<svg xmlns="http://www.w3.org/2000/svg" viewBox="0 0 652.53 199.09"><defs><style>.cls-1{fill:#1d1d1d;stroke:#fff;stroke-miterlimit:10;stroke-width:3px;}.cls-2{fill:#fff;}</style></defs><g id="Layer_2" data-name="Layer 2"><g id="Layer_1-2" data-name="Layer 1"><rect class="cls-1" x="1.5" y="1.5" width="649.53" height="196.09" rx="45.96"/><path class="cls-2" d="M78.84,97c.37-7.66,1.47-15.76,7.17-22.42,6-7,17.09-13.52,30.3-7.56,4.4,2,8.51,2.29,13.09.21a27.3,27.3,0,0,1,21.6-.86,23.9,23.9,0,0,1,11.08,8.45c1.72,2.36,1.59,3.16-.82,4.94-7.81,5.79-10.8,14.08-8.26,23.11a18.65,18.65,0,0,0,10.39,12.26c1.78.85,2.32,1.48,1.61,3.66-2.54,7.81-6.74,14.64-11.68,21.06-2.93,3.83-6.55,6.81-11.65,7.25a19.05,19.05,0,0,1-10-2c-5.43-2.61-10.74-2.14-16,.49-6.93,3.49-12.88,2.77-18.5-2.61a57,57,0,0,1-12.06-17.7A68.79,68.79,0,0,1,78.84,97Z"/><path class="cls-2" d="M141.58,38.69c-.33,8-7.6,16.87-15.36,18.91-1.45.39-2.08.36-1.77-1.44C126,47.09,131.08,41,139.72,37.9,140.48,37.62,141.71,36.75,141.58,38.69Z"/><path class="cls-2" d="M218.15,44.42h4.78V78.5h-4.78ZM221.38,74h7.72a8.19,8.19,0,0,0,5.84-2A7.22,7.22,0,0,0,237,66.48v-10a7.19,7.19,0,0,0-2.08-5.52,8.15,8.15,0,0,0-5.84-2h-7.72V44.42H229a15.76,15.76,0,0,1,7,1.43A10,10,0,0,1,240.39,50a13.4,13.4,0,0,1,1.53,6.61v9.66a13.37,13.37,0,0,1-1.53,6.61A9.86,9.86,0,0,1,236,77.07a15.83,15.83,0,0,1-7,1.43h-7.55Z"/><path class="cls-2" d="M253.1,77.61A8.2,8.2,0,0,1,249.66,74a12.76,12.76,0,0,1-1.18-5.73v-4a12.45,12.45,0,0,1,1.18-5.66,8.18,8.18,0,0,1,3.44-3.59,12.51,12.51,0,0,1,10.82,0,8.18,8.18,0,0,1,3.44,3.59,12.45,12.45,0,0,1,1.18,5.66v4A12.51,12.51,0,0,1,267.36,74a8.26,8.26,0,0,1-3.44,3.6,12.42,12.42,0,0,1-10.82,0Zm9.29-4.87a6.52,6.52,0,0,0,1.37-4.41v-4a6.45,6.45,0,0,0-1.37-4.39,5.66,5.66,0,0,0-7.76,0,6.45,6.45,0,0,0-1.37,4.39v4a6.52,6.52,0,0,0,1.37,4.41,5.58,5.58,0,0,0,7.76,0Z"/><path class="cls-2" d="M272.29,54.17h5l4.32,17.37,6.07-17.37H291l6.07,17.37,4.32-17.37h5l-7.5,24.33h-3.61l-5.93-16.8L283.4,78.5h-3.61Z"/><path class="cls-2" d="M311.53,54.17h4.78V78.5h-4.78Zm14.76,9.59a5.54,5.54,0,0,0-1.34-4,5.81,5.81,0,0,0-7.37-.16,4.65,4.65,0,0,0-1.27,3.49l-.5-4.69A8.61,8.61,0,0,1,318.76,55a7.13,7.13,0,0,1,4-1.2,7.51,7.51,0,0,1,6.12,2.59q2.18,2.6,2.17,7.33V78.5h-4.78Z"/><path class="cls-2" d="M343.12,72.22a2.13,2.13,0,0,0,.39,1.37,1.31,1.31,0,0,0,1.09.48h2.25v4.55H344a5.28,5.28,0,0,1-4.2-1.69,6.91,6.91,0,0,1-1.49-4.76V44.42h4.78Z"/><path class="cls-2" d="M356.15,77.61A8.18,8.18,0,0,1,352.72,74a12.76,12.76,0,0,1-1.19-5.73v-4a12.45,12.45,0,0,1,1.19-5.66,8.16,8.16,0,0,1,3.43-3.59,12.53,12.53,0,0,1,10.83,0,8.16,8.16,0,0,1,3.43,3.59,12.45,12.45,0,0,1,1.19,5.66v4A12.51,12.51,0,0,1,370.41,74a8.24,8.24,0,0,1-3.43,3.6,12.44,12.44,0,0,1-10.83,0Zm9.29-4.87a6.47,6.47,0,0,0,1.37-4.41v-4a6.4,6.4,0,0,0-1.37-4.39,5.65,5.65,0,0,0-7.75,0,6.4,6.4,0,0,0-1.38,4.39v4a6.47,6.47,0,0,0,1.38,4.41,5.57,5.57,0,0,0,7.75,0Z"/><path class="cls-2" d="M379.45,77q-2.24-1.86-2.23-5.66a6.87,6.87,0,0,1,2-5.42q2-1.8,6.16-1.8h6.92l.33,3.84h-7.22a4,4,0,0,0-2.8.84,3.23,3.23,0,0,0-.93,2.54A3.16,3.16,0,0,0,383,74.07a6.43,6.43,0,0,0,3.74.89,10.84,10.84,0,0,0,4.09-.58,1.93,1.93,0,0,0,1.35-1.83l.49,3.42a5.61,5.61,0,0,1-1.56,1.62,6.84,6.84,0,0,1-2.14,1,11.07,11.07,0,0,1-2.75.31Q381.67,78.85,379.45,77Zm12.68-13.91a5.17,5.17,0,0,0-1.28-3.72A4.8,4.8,0,0,0,387.23,58a9.23,9.23,0,0,0-2.85.45,8.3,8.3,0,0,0-2.47,1.24l-3.49-2.39a9,9,0,0,1,3.64-2.59,13.1,13.1,0,0,1,5-.93,11.62,11.62,0,0,1,5.18,1.07A7.44,7.44,0,0,1,395.55,58a9.93,9.93,0,0,1,1.12,4.89V78.5h-4.54Z"/><path class="cls-2" d="M407.09,77.76a7.31,7.31,0,0,1-2.87-3.38,13.14,13.14,0,0,1-1-5.35V63.66a13.48,13.48,0,0,1,1-5.36,7.22,7.22,0,0,1,2.8-3.39,8.13,8.13,0,0,1,4.42-1.16,7.32,7.32,0,0,1,3.95,1.13A8.27,8.27,0,0,1,418.26,58l-.49,5a5.7,5.7,0,0,0-.57-2.65,3.87,3.87,0,0,0-1.62-1.68,5.44,5.44,0,0,0-2.59-.57,4.62,4.62,0,0,0-3.67,1.48,6,6,0,0,0-1.3,4.15V69a5.87,5.87,0,0,0,1.3,4.09A4.7,4.7,0,0,0,413,74.56a5.33,5.33,0,0,0,2.59-.59,3.93,3.93,0,0,0,1.62-1.73,5.9,5.9,0,0,0,.57-2.69l.33,5.13a7,7,0,0,1-2.38,3,6.62,6.62,0,0,1-4.07,1.22A8.49,8.49,0,0,1,407.09,77.76Zm10.68-33.34h4.78V78.5h-4.78Z"/><path class="cls-2" d="M446.62,77.61A8.13,8.13,0,0,1,443.19,74,12.76,12.76,0,0,1,442,68.26v-4a12.45,12.45,0,0,1,1.19-5.66,8.11,8.11,0,0,1,3.43-3.59,12.53,12.53,0,0,1,10.83,0,8.16,8.16,0,0,1,3.43,3.59,12.45,12.45,0,0,1,1.18,5.66v4A12.51,12.51,0,0,1,460.88,74a8.24,8.24,0,0,1-3.43,3.6,12.44,12.44,0,0,1-10.83,0Zm9.29-4.87a6.47,6.47,0,0,0,1.37-4.41v-4a6.4,6.4,0,0,0-1.37-4.39,5.66,5.66,0,0,0-7.76,0,6.45,6.45,0,0,0-1.37,4.39v4a6.52,6.52,0,0,0,1.37,4.41,5.58,5.58,0,0,0,7.76,0Z"/><path class="cls-2" d="M468.86,54.17h4.78V78.5h-4.78Zm14.77,9.59a5.58,5.58,0,0,0-1.34-4,5.81,5.81,0,0,0-7.37-.16,4.65,4.65,0,0,0-1.28,3.49l-.49-4.69A8.67,8.67,0,0,1,476.09,55a7.13,7.13,0,0,1,4-1.2,7.55,7.55,0,0,1,6.13,2.59q2.17,2.6,2.17,7.33V78.5h-4.78Z"/><path class="cls-2" d="M506.69,54.17h11v4.32h-11ZM510.57,77a7.29,7.29,0,0,1-1.37-4.82V47.09H514V72.22a2.33,2.33,0,0,0,.35,1.37,1.19,1.19,0,0,0,1,.48h2.3v4.55h-2.77A5.31,5.31,0,0,1,510.57,77Z"/><path class="cls-2" d="M524.22,44.42H529V78.5h-4.78ZM539,63.76a5.58,5.58,0,0,0-1.34-4,5,5,0,0,0-3.75-1.4,5,5,0,0,0-3.62,1.22A4.53,4.53,0,0,0,529,63l-.49-4.69A8.73,8.73,0,0,1,531.45,55a7.27,7.27,0,0,1,4-1.18,7.55,7.55,0,0,1,6.13,2.59c1.44,1.73,2.17,4.17,2.17,7.33V78.5H539Z"/><path class="cls-2" d="M555.23,77.59a8.52,8.52,0,0,1-3.65-3.72A12.91,12.91,0,0,1,550.33,68V65.21a14.25,14.25,0,0,1,1.21-6.16,8.57,8.57,0,0,1,3.5-3.89,10.84,10.84,0,0,1,5.53-1.34,8.85,8.85,0,0,1,5.21,1.52,9.57,9.57,0,0,1,3.29,4.41,18.81,18.81,0,0,1,1.13,6.91v1.6H553.8V64.41h11.86a8.11,8.11,0,0,0-1.54-4.62,4.29,4.29,0,0,0-3.55-1.66,5.19,5.19,0,0,0-4.2,1.78,7.61,7.61,0,0,0-1.49,5v3.1a6.36,6.36,0,0,0,1.59,4.64A6.05,6.05,0,0,0,561,74.31a7.62,7.62,0,0,0,2.89-.59,8.37,8.37,0,0,0,2.55-1.64l3.14,3.14a13.05,13.05,0,0,1-4.05,2.68,11.44,11.44,0,0,1-4.53.95A12.19,12.19,0,0,1,555.23,77.59Z"/><path class="cls-2" d="M240.49,98.92h6.75L268,155.31h-8.53l-15.63-45.49-15.63,45.49H219.7Zm-11.21,36.49H259v7.53H229.28Z"/><path class="cls-2" d="M275.78,115.05h7.91v56.62h-7.91Zm11.48,39a10.54,10.54,0,0,1-4.11-5.1l.54-8.42a9.62,9.62,0,0,0,.93,4.42,6.46,6.46,0,0,0,2.7,2.8,8.82,8.82,0,0,0,4.28,1,7.75,7.75,0,0,0,6.07-2.38,9.67,9.67,0,0,0,2.15-6.73v-8.72c0-2.95-.71-5.24-2.15-6.87a7.65,7.65,0,0,0-6.07-2.44,9.05,9.05,0,0,0-4.28.93,6.25,6.25,0,0,0-2.7,2.73,9.35,9.35,0,0,0-.93,4.33l-.81-7.76a13.92,13.92,0,0,1,4.77-5.45,11.74,11.74,0,0,1,6.55-1.92,13.43,13.43,0,0,1,7.31,1.92,12.11,12.11,0,0,1,4.64,5.61,22.48,22.48,0,0,1,1.59,8.88v8.76a21.52,21.52,0,0,1-1.63,8.77,12.14,12.14,0,0,1-4.77,5.56,14.19,14.19,0,0,1-7.53,1.92A11.83,11.83,0,0,1,287.26,154.09Z"/><path class="cls-2" d="M319,115.05h7.91v56.62H319Zm11.48,39a10.54,10.54,0,0,1-4.11-5.1l.54-8.42a9.5,9.5,0,0,0,.94,4.42,6.44,6.44,0,0,0,2.69,2.8,8.86,8.86,0,0,0,4.29,1,7.73,7.73,0,0,0,6.06-2.38,9.67,9.67,0,0,0,2.16-6.73v-8.72a10,10,0,0,0-2.16-6.87,7.63,7.63,0,0,0-6.06-2.44,9.1,9.1,0,0,0-4.29.93,6.23,6.23,0,0,0-2.69,2.73,9.23,9.23,0,0,0-.94,4.33l-.81-7.76a13.92,13.92,0,0,1,4.77-5.45,11.74,11.74,0,0,1,6.55-1.92,13.41,13.41,0,0,1,7.31,1.92,12.05,12.05,0,0,1,4.64,5.61,22.31,22.31,0,0,1,1.59,8.88v8.76a21.36,21.36,0,0,1-1.63,8.77,12.14,12.14,0,0,1-4.77,5.56,14.13,14.13,0,0,1-7.52,1.92A11.84,11.84,0,0,1,330.46,154.09Z"/><path class="cls-2" d="M393.52,155.12a28.46,28.46,0,0,1-12.72-6.21l4.93-6a22.26,22.26,0,0,0,7.09,4.19,24.71,24.71,0,0,0,8.42,1.39q6.12,0,9.5-2.26a7.3,7.3,0,0,0,3.37-6.42v0a6.77,6.77,0,0,0-1.53-4.67,9.11,9.11,0,0,0-3.95-2.56,44.17,44.17,0,0,0-6.27-1.54,1,1,0,0,0-.25,0,1,1,0,0,1-.25,0l-.58-.12a61.09,61.09,0,0,1-9.21-2.19,13,13,0,0,1-6.07-4.46q-2.52-3.24-2.52-9.21v0a16.4,16.4,0,0,1,2.34-8.94,14.75,14.75,0,0,1,6.85-5.64,27.28,27.28,0,0,1,10.82-1.94,27,27,0,0,1,5.95.66,29.41,29.41,0,0,1,5.78,2,32.48,32.48,0,0,1,5.6,3.27l-4.5,6.29a26.17,26.17,0,0,0-6.41-3.55,18.44,18.44,0,0,0-6.42-1.19c-3.85,0-6.85.77-9,2.31a7.6,7.6,0,0,0-3.2,6.54v0a6.2,6.2,0,0,0,1.65,4.57,9.9,9.9,0,0,0,4.11,2.46,59.87,59.87,0,0,0,6.84,1.65,1.77,1.77,0,0,0,.3.06l.29.06.42.08.43.07a46.74,46.74,0,0,1,8.55,2.49,13.31,13.31,0,0,1,5.74,4.63q2.31,3.19,2.31,8.75v.07a15.57,15.57,0,0,1-2.45,8.83,15.17,15.17,0,0,1-7.07,5.58,29.21,29.21,0,0,1-11.19,1.92A37.49,37.49,0,0,1,393.52,155.12Z"/><path class="cls-2" d="M429.32,115.05h18.15v7.14H429.32Zm6.41,37.76q-2.26-2.7-2.26-8v-41.5h7.91v41.58a3.76,3.76,0,0,0,.58,2.26,2,2,0,0,0,1.71.8h3.8v7.52h-4.58C439.63,155.5,437.25,154.6,435.73,152.81Z"/><path class="cls-2" d="M464.8,153.84a13.58,13.58,0,0,1-5.68-6,21,21,0,0,1-2-9.48v-6.55a20.61,20.61,0,0,1,2-9.37,13.52,13.52,0,0,1,5.68-5.93,20.7,20.7,0,0,1,17.92,0,13.52,13.52,0,0,1,5.68,5.93,20.74,20.74,0,0,1,2,9.37v6.67a20.82,20.82,0,0,1-2,9.4,13.64,13.64,0,0,1-5.68,6,20.61,20.61,0,0,1-17.92,0Zm15.38-8.07q2.26-2.6,2.27-7.29v-6.67q0-4.69-2.27-7.25a9.33,9.33,0,0,0-12.84,0q-2.26,2.55-2.27,7.25v6.67q0,4.7,2.27,7.29a9.23,9.23,0,0,0,12.84,0Z"/><path class="cls-2" d="M501.6,115.05h7.92v40.26H501.6Zm19.51,7.61a9.55,9.55,0,0,0-3.68-.66,7.9,7.9,0,0,0-5.84,2.07,7.79,7.79,0,0,0-2.07,5.76l-.82-7.76a14.83,14.83,0,0,1,4.81-5.6,11.38,11.38,0,0,1,6.52-2,14.78,14.78,0,0,1,5,.8,11.25,11.25,0,0,1,3.9,2.34l-5.16,7A6.66,6.66,0,0,0,521.11,122.66Z"/><path class="cls-2" d="M541.67,153.8a14,14,0,0,1-6-6.15,21.19,21.19,0,0,1-2.08-9.79v-4.54a23.76,23.76,0,0,1,2-10.2,14.28,14.28,0,0,1,5.8-6.44,17.92,17.92,0,0,1,9.15-2.21,14.55,14.55,0,0,1,8.61,2.52,15.69,15.69,0,0,1,5.45,7.29,31.29,31.29,0,0,1,1.88,11.44v2.64H539.3V132h19.62a13.54,13.54,0,0,0-2.54-7.66,7.14,7.14,0,0,0-5.87-2.73,8.55,8.55,0,0,0-7,3c-1.64,2-2.47,4.74-2.47,8.33V138q0,5,2.64,7.68c1.76,1.78,4.25,2.68,7.49,2.68a12.63,12.63,0,0,0,4.77-1,13.76,13.76,0,0,0,4.22-2.72l5.2,5.2a22,22,0,0,1-6.71,4.44,19.06,19.06,0,0,1-7.48,1.57A20.19,20.19,0,0,1,541.67,153.8Z"/></g></g></svg>