<svg xmlns="http://www.w3.org/2000/svg" viewBox="0 0 933.66143 756.92403"><title>Asset 1</title><g id="Layer_2" data-name="Layer 2"><g id="Illustration"><path d="M243.18037,204.73435c28.32506-19.19069,54.76779-37.13589,81.24123-55.03581,44.10023-29.81822,88.10274-59.785,132.52671-89.1132,4.101-2.7075,12.61936-3.80062,16.25632-1.38392,70.7667,47.02277,141.11309,94.67788,211.52835,142.22926.788.53224,1.34465,1.40723,3.10754,3.30367Z"/><path d="M158.76113,287.15284c30.62668,0,60.38663-1.15194,90.00675.38673,21.34928,1.10908,35.81038,14.83967,39.46209,35.52106,3.42819,19.4155,3.68452,39.545,3.69882,59.36142.01179,16.30262-9.09442,27.27518-28.71039,31.98469,27.07566,8.87884,34.88867,26.93553,34.07093,50.65843-.67331,19.53143.43931,39.147-.754,58.63247-1.76863,28.88266-11.66815,40.21394-40.16229,41.77717-32.084,1.76-64.33877.40506-97.612.40506Zm59.56955,230.87822q2.29812,1.86,4.59618,3.72c4.73219-5.2339,12.85981-10.05745,13.55137-15.77979,1.96892-16.29191,1.29081-32.95912.90494-49.46109-.26108-11.16379-6.49791-16.66415-19.05249-15.205Zm-.33235-122.55855q1.77436,1.50729,3.54878,3.01457c4.88532-4.59376,12.96709-8.564,14.00955-13.90752,2.37883-12.19345,2.10206-25.1036,1.40463-37.63922-.62081-11.15954-7.34936-15.84466-18.963-13.01227Z"/><path d="M519.40468,449.38113v117.6033H470.62632V285.11072c14.38126,0,28.4975-.80439,42.4052.543,3.65857.35441,8.39731,6.869,9.70663,11.40192,9.729,33.68317,18.71834,67.58008,30.48445,101.26581V286.24055h50.58411v280.27H551.73557c-9.56273-38.78806-19.29231-78.253-29.022-117.718Q521.05918,449.08678,519.40468,449.38113Z"/><path d="M775.80814,566.95915H714.2096c-7.32861-35.88986-14.59428-71.47131-21.86-107.05275q-1.57037.159-3.14063.318V566.96453H629.76373V285.96675h59.2641v93.2273q1.82036.27092,3.64081.54192c7.99233-31.19868,15.98457-62.39732,24.08915-94.03416H772.3635c-10.27066,38.13959-20.99192,75.18286-29.867,112.66334-2.53313,10.6975-1.48766,23.06385.96908,33.97787C753.52233,477.021,764.75919,521.4334,775.80814,566.95915Z"/><path d="M336.95856,285.00129c26.93248,0,51.3746.372,75.79548-.18594,9.55771-.21836,12.271,3.2591,13.2395,12.51011,4.51934,43.17435,9.73567,86.27874,15.02454,129.36864,5.35027,43.58946,11.09862,87.12988,16.59449,130.7016.3571,2.83131.04644,5.74682.04644,9.48742H397.39445c-.63816-13.04343-1.55175-26.083-1.81032-39.13547-.15178-7.66769-2.406-11.65906-11.00887-11.61513-7.87148.04026-13.25152,1.06789-13.55635,10.60516-.41887,13.10663-1.557,26.19022-2.4397,40.11585H306.72995C316.77866,473.1589,326.78922,379.8202,336.95856,285.00129ZM391.91875,466.2705c-2.82074-36.35508-5.51506-71.08139-8.20947-105.8077q-1.35358-.08244-2.70715-.16492c-3.38736,34.99039-6.77463,69.98082-10.25891,105.97262Z"/><path d="M933.66143,733.71171V756.924H0V733.71171Z"/><path d="M39.12149,712.89606v-23.1492H891.8449v23.1492Z"/><path d="M85.037,669.33376v-22.4662H847.70665v22.4662Z"/><path d="M160.0302,204.37546c59.16973-39.95883,116.231-78.48487,173.28266-117.02516,41.29639-27.89717,82.67424-55.67613,123.76653-83.871,6.06483-4.16134,10.26429-4.887,16.68209-.547q146.91389,99.352,294.12158,198.26946c1.052.70881,1.75787,1.93113,3.41775,3.81125-24.48444,2.2876-45.162.03918-66.33853-14.83483C630.19148,137.66069,553.59745,87.74407,478.0176,36.36642c-8.98786-6.10984-15.02875-6.45631-24.21789-.17662C378.76129,87.46914,302.762,137.36294,228.35348,189.53045,207.45266,204.184,186.8412,208.45047,160.0302,204.37546Z"/><path d="M809.11629,226.6767v22.71235H124.73153V226.6767Z"/><path d="M124.35408,625.85153V603.61834H808.65044v22.23319Z"/></g></g></svg>