<svg width="897" height="898" viewBox="0 0 897 898" fill="none" xmlns="http://www.w3.org/2000/svg">
<path d="M282.292 166.421L775.808 446.808L287.893 733.998L282.292 166.421Z" fill="#6FD650" fill-opacity="0.45"/>
<path d="M273.3 601.6C268.1 589.6 258.3 579.6 246.5 574C234.6 568.4 208.1 571 208.1 571L138.5 570.9C139.9 577 144.5 592.7 147.8 598C151.2 603.3 156.2 607.7 162.2 609.4C169.6 611.5 177.4 609.3 185.1 608.8C198.6 607.9 211.8 612.3 224.8 616C237.8 619.7 251.6 622.9 264.7 619.8C268.4 618.9 272.3 617.2 274.2 613.8C276.2 610.2 275 605.5 273.3 601.6Z" fill="white"/>
<path d="M59.5 354.8C59.5 354.8 51.6 354.2 52.3 372C53 389.8 54.8 399.2 54.8 399.2C54.8 399.2 54.6 403.1 51.5 402.4C48.4 401.6 42.7 397.8 39.9 400.7C37 403.7 38 408.2 41.9 413.6C45.8 419 53.9 431 54.6 432.1C55.3 433.2 55.6 435.2 53.4 435C51.2 434.8 36.6 429.9 34.7 436.9C32.8 444 46.1 457.1 47.5 458.6C48.9 460.1 49 461 48.4 461.9C47.8 462.8 43.1 460.7 38.9 459.4C34.7 458.2 29.6 457.5 28.8 461.6C28 465.8 33.9 478 55.9 490.8L66.5 496.1L76.5 489.7C97.1 474.7 101.7 462 100.5 457.9C99.3 453.8 94.3 455 90.2 456.7C86.1 458.4 81.6 460.9 81 460.1C80.3 459.3 80.3 458.3 81.6 456.7C82.9 455.1 94.8 440.7 92.2 433.8C89.6 427 75.5 433.3 73.4 433.8C71.3 434.2 71.4 432.2 72 431C72.6 429.8 79.5 417 82.8 411.3C86.1 405.6 86.7 400.9 83.5 398.3C80.4 395.7 75.1 400.1 72.1 401.2C69.1 402.3 68.5 398.4 68.5 398.4C68.5 398.4 69.4 388.8 68.3 371.1C67.2 353.4 59.2 354.8 59.2 354.8" fill="#EBEBEB"/>
<path d="M60.2 370.7C60.2 370.7 60.2 370.8 60.2 371.1C60.2 371.4 60.1999 371.7 60.2999 372.2C60.3999 373.2 60.4999 374.6 60.5999 376.4C60.7999 380 61.2 385.3 61.5 391.8C62.2 404.8 63.1 422.9 63.9 442.8C64.8 462.7 65.6 480.7 66.2 493.8C66.5 500.3 66.8 505.6 67 509.2C67.1 511 67.2 512.4 67.2 513.4C67.2 513.9 67.2 514.2 67.2 514.5C67.2 514.7 67.2 514.9 67.2 514.9C67.2 514.9 67.2 514.8 67.2 514.5C67.2 514.2 67.1999 513.9 67.0999 513.4C66.9999 512.4 66.8999 511 66.7999 509.2C66.5999 505.6 66.2 500.3 65.9 493.8C65.2 480.8 64.3 462.7 63.5 442.8C62.6 422.9 61.8 404.9 61.2 391.8C60.9 385.3 60.6 380 60.4 376.4C60.3 374.6 60.2 373.2 60.2 372.2C60.2 371.7 60.2 371.4 60.2 371.1C60.2 370.8 60.2 370.7 60.2 370.7Z" fill="#E0E0E0"/>
<path d="M47.8 406.3C47.8 406.3 48.1 406.5 48.5 406.8C48.9 407.2 49.5001 407.7 50.2001 408.4C51.6001 409.8 53.5 411.7 55.5 413.9C57.5 416.1 59.3001 418 60.7001 419.6C61.3001 420.3 61.8 420.8 62.3 421.3C62.7 421.7 62.9001 421.9 62.9001 422C62.9001 422 62.6 421.8 62.2001 421.5C61.8001 421.1 61.2 420.6 60.5 419.9C59.1 418.5 57.3001 416.5 55.2001 414.3C53.2001 412.1 51.4 410.2 50 408.7C49.4 408 48.9 407.5 48.4 407C48 406.6 47.8 406.3 47.8 406.3Z" fill="#E0E0E0"/>
<path d="M63.8 421.7C63.7 421.6 67.6 417.6 72.4 412.7C77.2 407.8 81.2 403.9 81.3 403.9C81.4 404 77.5 408 72.7 412.9C67.8 417.8 63.9 421.8 63.8 421.7Z" fill="#E0E0E0"/>
<path d="M63.7 452.3C63.7 452.3 64 452.1 64.4 451.8C65 451.5 65.7 451.1 66.5 450.6C68.2 449.6 70.6 448.3 73.2 446.7C75.8 445.1 78.0999 443.6 79.7999 442.5C80.5999 442 81.1999 441.5 81.7999 441.2C82.2999 440.9 82.4999 440.7 82.5999 440.8C82.5999 440.8 82.4 441 81.9 441.4C81.5 441.7 80.7999 442.2 80 442.8C78.4 444 76.1 445.5 73.5 447.1C70.9 448.7 68.5 450 66.7 450.9C65.8 451.4 65.0999 451.7 64.5999 451.9C63.9999 452.2 63.7 452.3 63.7 452.3Z" fill="#E0E0E0"/>
<path d="M46.2 441.6C46.2 441.6 46.5 441.7 46.9 441.9C47.4 442.1 47.9999 442.5 48.7999 443C50.3999 443.9 52.6 445.2 55 446.6C57.4 448 59.6 449.4 61.2 450.3C62 450.8 62.5999 451.2 63.0999 451.5C63.4999 451.8 63.7999 452 63.7999 452C63.7999 452 63.4999 451.9 63.0999 451.7C62.5999 451.5 62 451.1 61.2 450.6C59.6 449.7 57.4 448.4 55 447C52.6 445.6 50.3999 444.2 48.7999 443.3C47.9999 442.8 47.4 442.4 46.9 442.1C46.4 441.8 46.2 441.6 46.2 441.6Z" fill="#E0E0E0"/>
<path d="M42.7 468.6C42.7 468.6 43 468.7 43.6 469C44.3 469.4 45.1 469.8 46.1 470.4C48.2 471.6 51 473.2 54.1 475C57.2 476.8 59.9999 478.5 62.0999 479.7C63.0999 480.3 63.9 480.8 64.5 481.2C65.1 481.6 65.4 481.8 65.4 481.8C65.4 481.8 65.1 481.7 64.5 481.4C63.7999 481 63 480.6 62 480C59.9 478.8 57.1 477.2 54 475.4C50.9 473.6 48.1 471.9 46 470.7C45 470.1 44.2 469.6 43.6 469.2C43 468.9 42.7 468.7 42.7 468.6Z" fill="#E0E0E0"/>
<path d="M64.8999 481.3C64.8999 481.3 65.1999 481.1 65.7999 480.7C66.4999 480.3 67.2999 479.8 68.3999 479.1C70.5999 477.8 73.5999 475.9 76.7999 473.8C79.9999 471.7 82.8999 469.7 84.9999 468.2C85.9999 467.5 86.7999 466.9 87.4999 466.5C88.0999 466.1 88.3999 465.9 88.3999 465.9C88.3999 465.9 88.0999 466.2 87.5999 466.6C86.9999 467 86.1999 467.7 85.1999 468.4C83.1999 469.9 80.2999 471.9 76.9999 474.1C73.7999 476.2 70.6999 478 68.4999 479.3C67.3999 479.9 66.4999 480.4 65.8999 480.8C65.2999 481.2 64.9999 481.4 64.8999 481.3Z" fill="#E0E0E0"/>
<path d="M80.8001 499.6H51.6001L61.1001 571.8H71.3001L80.8001 499.6Z" fill="#E0E0E0"/>
<path d="M53.1001 508.5C53.1001 508.5 53.1001 508.6 53.3001 508.8C53.4001 509 53.7001 509.2 54.0001 509.3C54.7001 509.6 55.9001 509.6 57.1001 508.9C58.3001 508.2 59.3001 507 60.9001 506.4C62.5001 505.8 64.4001 505.9 66.3001 506.5C68.2001 507.1 69.8001 508 71.3001 508.9C72.8001 509.8 74.1001 510.6 75.4001 511.1C76.6001 511.6 77.7001 511.9 78.4001 512C78.8001 512 79.1001 512.1 79.2001 512.1C79.4001 512.1 79.5001 512.1 79.5001 512.1C79.5001 512 77.8001 512 75.5001 510.9C74.3001 510.4 73.0001 509.6 71.5001 508.6C70.0001 507.7 68.4001 506.7 66.4001 506.1C64.5001 505.5 62.4001 505.4 60.7001 506C59.9001 506.3 59.2001 506.8 58.6001 507.3C58.0001 507.8 57.5001 508.3 56.9001 508.6C55.8001 509.3 54.7001 509.3 54.1001 509.1C53.4001 508.8 53.1001 508.4 53.1001 508.5Z" fill="#F5F5F5"/>
<path d="M54.2002 521.8C54.2002 521.8 54.4002 521.5 54.9002 521C55.4002 520.5 56.1002 519.9 57.2002 519.5C58.3002 519.1 59.7002 518.8 61.3002 518.9C62.9002 519 64.6002 519.3 66.4002 519.6C68.2002 519.9 70.0002 520 71.6002 519.8C73.2002 519.6 74.6002 519.1 75.7002 518.6C76.8002 518.1 77.6002 517.5 78.2002 517.1C78.7002 516.7 79.0002 516.4 79.0002 516.4C78.9002 516.3 77.8002 517.3 75.6002 518.3C74.5002 518.8 73.1002 519.2 71.6002 519.3C70.0002 519.5 68.3002 519.4 66.5002 519C64.7002 518.7 63.0002 518.4 61.3002 518.3C59.7002 518.3 58.2002 518.6 57.1002 519C56.0002 519.5 55.2002 520.2 54.8002 520.7C54.6002 521 54.4002 521.2 54.4002 521.3C54.2002 521.7 54.2002 521.8 54.2002 521.8Z" fill="#F5F5F5"/>
<path d="M77.5002 528.9C77.5002 528.9 77.2002 528.7 76.7002 528.5C76.2002 528.3 75.3002 528.1 74.3002 528C73.3002 527.9 72.0002 528 70.6002 528.2C69.2002 528.4 67.8002 528.8 66.2002 529.1C64.7002 529.4 63.2002 529.6 61.8002 529.6C60.5002 529.6 59.3002 529.3 58.3002 528.9C56.4002 528.1 55.7002 526.9 55.7002 526.9C55.7002 526.9 55.8002 527.2 56.2002 527.7C56.6002 528.2 57.2002 528.7 58.2002 529.2C59.1002 529.7 60.4002 530 61.8002 530.1C63.2002 530.2 64.7002 530 66.3002 529.6C67.9002 529.3 69.3002 528.9 70.6002 528.6C71.9002 528.4 73.2002 528.3 74.2002 528.3C76.3002 528.4 77.5002 529 77.5002 528.9Z" fill="#F5F5F5"/>
<path d="M56.8002 538.9C56.8002 539 57.8002 538.2 59.6002 538.6C60.5002 538.8 61.5002 539.2 62.6002 539.7C63.7002 540.2 65.0002 540.7 66.5002 540.8C69.4002 541.1 71.9002 540.1 73.5002 539.2C74.3002 538.7 74.9002 538.2 75.2002 537.9C75.6002 537.5 75.7002 537.3 75.7002 537.3C75.6002 537.2 74.9002 538.1 73.3002 539C71.7002 539.9 69.3002 540.7 66.5002 540.4C63.7002 540.2 61.6002 538.6 59.7002 538.4C58.8002 538.3 58.0002 538.4 57.5002 538.6C57.0002 538.7 56.7002 538.9 56.8002 538.9Z" fill="#F5F5F5"/>
<path d="M58.4001 552.8C58.4001 552.9 59.4001 552.8 60.8001 552.3C62.3001 551.8 64.1001 550.7 66.2001 549.8C67.3001 549.4 68.3001 549.1 69.3001 549.1C70.3001 549.1 71.1001 549.3 71.8001 549.7C73.1001 550.4 73.5001 551.3 73.6001 551.3C73.6001 551.3 73.6001 551.1 73.3001 550.7C73.1001 550.3 72.6001 549.9 71.9001 549.5C71.2001 549.1 70.3001 548.8 69.2001 548.8C68.2001 548.8 67.0001 549 65.9001 549.4C63.7001 550.3 61.9001 551.4 60.5001 552C59.3001 552.6 58.4001 552.7 58.4001 552.8Z" fill="#F5F5F5"/>
<path d="M59.8 559.2C59.8 559.3 60.5001 559.5 61.7001 559.8C62.9001 560.1 64.5 560.4 66.3 560.6C68.1 560.8 69.8 560.8 71 560.7C72.2 560.6 72.9001 560.5 72.9001 560.5C72.9001 560.4 69.9 560.5 66.3 560.1C62.7 559.8 59.9 559.1 59.8 559.2Z" fill="#F5F5F5"/>
<path d="M604.733 377.518L515.822 397.837L529.524 457.794L618.435 437.474L604.733 377.518Z" fill="#F5F5F5"/>
<path d="M605.2 378.1C605.2 378.1 605 378.5 604.6 379.1C604.1 379.8 603.4 380.7 602.6 381.8C600.8 384.2 598.3 387.6 595.2 391.8C588.8 400.2 580.1 411.8 570.4 424.6L570.2 424.9L569.9 424.8C569.7 424.7 569.4 424.6 569.2 424.4C554.6 417.3 541.4 410.9 531.7 406.2C527 403.9 523.1 402 520.4 400.6C519.1 400 518.1 399.4 517.3 399C516.6 398.6 516.2 398.4 516.3 398.4C516.3 398.4 516.7 398.5 517.4 398.8C518.2 399.2 519.2 399.6 520.5 400.2C523.3 401.5 527.2 403.3 531.9 405.6C541.6 410.2 554.8 416.6 569.5 423.6C569.8 423.7 570 423.8 570.2 424L569.7 424.1C579.4 411.4 588.2 399.9 594.7 391.4C597.9 387.3 600.5 384 602.3 381.6C603.2 380.5 603.9 379.6 604.4 379C604.9 378.4 605.2 378.1 605.2 378.1Z" fill="#E0E0E0"/>
<path d="M530 458.4C529.8 458.3 534.6 448.6 540.7 436.6C546.8 424.7 552 415.1 552.2 415.2C552.4 415.3 547.6 425 541.5 437C535.3 448.9 530.2 458.5 530 458.4Z" fill="#E0E0E0"/>
<path d="M581.6 407.8C581.7 407.6 590.2 414.3 600.5 422.6C610.8 431 619 437.9 618.9 438.1C618.8 438.3 610.3 431.6 600 423.3C589.7 414.9 581.4 407.9 581.6 407.8Z" fill="#E0E0E0"/>
<path d="M208.643 214.648L200.498 249.922L252.921 262.027L261.066 226.753L208.643 214.648Z" fill="#F5F5F5"/>
<path d="M261.1 227.1C261.1 227.1 260.9 227.2 260.5 227.5C260.1 227.7 259.5 228.1 258.7 228.4C257.1 229.2 254.9 230.4 252.2 231.8C246.6 234.6 239 238.5 230.6 242.8L230.4 242.9L230.3 242.7C230.2 242.6 230.1 242.5 230 242.3C224.1 234.8 218.7 228 214.8 223C212.9 220.5 211.3 218.5 210.2 217.1C209.7 216.4 209.3 215.9 209 215.5C208.7 215.1 208.6 214.9 208.6 214.9C208.6 214.9 208.8 215.1 209.1 215.4C209.4 215.8 209.9 216.3 210.4 217C211.5 218.4 213.1 220.4 215.1 222.8C219 227.8 224.4 234.5 230.4 242C230.5 242.1 230.6 242.3 230.7 242.4L230.4 242.3C238.8 238 246.5 234.2 252 231.4C254.7 230 257 228.9 258.6 228.2C259.3 227.8 259.9 227.6 260.4 227.3C260.9 227.2 261.1 227.1 261.1 227.1Z" fill="#E0E0E0"/>
<path d="M200.6 250.3C200.5 250.2 205.6 246.3 211.9 241.5C218.2 236.8 223.4 233 223.5 233.1C223.6 233.2 218.5 237.1 212.2 241.9C205.8 246.7 200.6 250.5 200.6 250.3Z" fill="#E0E0E0"/>
<path d="M241 236.8C241.1 236.7 243.9 242.4 247.2 249.5C250.5 256.6 253.1 262.4 253 262.4C252.9 262.5 250.1 256.8 246.8 249.7C243.4 242.6 240.8 236.8 241 236.8Z" fill="#E0E0E0"/>
<path d="M540.894 223.4L502.58 239.864L513.674 265.682L551.988 249.219L540.894 223.4Z" fill="#F5F5F5"/>
<path d="M541.1 223.6C541.1 223.6 541 223.8 540.9 224.1C540.7 224.5 540.5 224.9 540.2 225.5C539.6 226.7 538.7 228.5 537.7 230.6C535.5 234.9 532.6 240.8 529.3 247.4L529.2 247.5H529.1C529 247.5 528.9 247.4 528.7 247.4C521.6 245.4 515.1 243.6 510.4 242.3C508.1 241.6 506.2 241.1 504.9 240.7C504.3 240.5 503.8 240.4 503.4 240.3C503.1 240.2 502.9 240.1 502.9 240.1C502.9 240.1 503.1 240.1 503.4 240.2C503.8 240.3 504.3 240.4 504.9 240.6C506.3 241 508.2 241.5 510.5 242.1C515.2 243.4 521.7 245.1 528.9 247.1C529 247.1 529.1 247.2 529.3 247.2L529.1 247.3C532.4 240.8 535.4 234.9 537.6 230.6C538.7 228.5 539.6 226.8 540.2 225.6C540.5 225 540.7 224.6 540.9 224.2C541 223.8 541 223.6 541.1 223.6Z" fill="#E0E0E0"/>
<path d="M513.9 265.9C513.8 265.9 515.2 261.1 516.9 255.2C518.7 249.3 520.2 244.6 520.3 244.6C520.4 244.6 519 249.4 517.3 255.3C515.5 261.2 514 265.9 513.9 265.9Z" fill="#E0E0E0"/>
<path d="M532.9 238.9C533 238.8 537.3 241.1 542.6 244C547.9 246.9 552.2 249.4 552.1 249.4C552 249.5 547.7 247.2 542.4 244.3C537.1 241.4 532.8 239 532.9 238.9Z" fill="#E0E0E0"/>
<path d="M591.5 484.4C587.4 481.8 582.7 480.2 578 479.7C575.8 479.5 573.4 479.5 571.6 480.9C571.2 481.2 570.9 481.6 570.9 482.1C571 482.4 571.3 482.7 571.5 482.9C577 487.1 585.4 487.7 591.5 484.4Z" fill="#18A753"/>
<path d="M591.2 484.1C588.1 481.7 585 479.3 582.4 476.4C579.8 473.5 577.7 470.1 576.9 466.3C576.7 465.1 576.6 463.8 577.3 462.9C584.3 468.3 589.8 475.3 591.2 484.1Z" fill="#18A753"/>
<path d="M591.4 484.4C590.9 480.6 590.7 476.7 591.6 472.9C592.5 469.1 594.5 465.6 597.7 463.4C598.9 466.2 598.4 469.5 597.5 472.4C596.2 476.9 594.1 481.3 591.4 485.2" fill="#18A753"/>
<path d="M598.3 496.6C594.1 497.1 590.5 499.3 587.4 502.1C584.3 504.9 582.1 508.7 581.2 512.8C585.3 512.5 588.7 509.7 591.2 506.5C593.7 503.2 595.5 499.7 598.3 496.6Z" fill="#18A753"/>
<path d="M599.8 498.6C596.5 490.4 597.7 480.4 602.9 473.3C605.2 481.7 604.3 491.2 599.8 498.6Z" fill="#18A753"/>
<path d="M608.8 509.4C605 509.2 601.2 510.1 597.9 511.9C594.6 513.8 591.9 516.6 590.2 520C590 520.5 589.8 521 590.1 521.5C590.4 521.9 590.9 521.9 591.3 521.9C595 521.7 598.2 519.5 600.9 517C603.6 514.4 605.9 511.5 608.8 509.4Z" fill="#18A753"/>
<path d="M608.5 508.8C606.6 502.6 606.4 495.8 608.2 489.5C608.9 487 610 484.4 612.3 483.2C612.5 483.1 612.7 483 612.9 483.1C613.1 483.2 613.2 483.4 613.3 483.6C614.1 485.3 614.4 487.2 614.3 489.1C614.2 491 613.8 492.8 613.4 494.7C612.7 498.1 612.3 501.8 610.4 504.7C610 505.4 609.6 506.2 609.2 506.9C608.8 507.7 608.8 507.9 608.5 508.5" fill="#18A753"/>
<path d="M632.4 512.3C630.6 505.6 632.5 497.4 636.8 491.9C637.1 491.5 637.5 491.1 638 491.1C638.8 491.2 639 492.2 638.9 493C638.6 499.9 636.3 506.7 632.4 512.3Z" fill="#18A753"/>
<path d="M634.6 513.8C642.8 515.9 652.2 513.9 659 508.8C655 506.8 650.2 506.2 645.8 507.2C641.3 508.2 637.3 510.2 634.6 513.8Z" fill="#18A753"/>
<path d="M636.4 509.3C641 501.8 649.8 496.9 658.5 496.5C657.5 500.1 654.6 502.8 651.3 504.5C648 506.2 644.3 506.9 640.7 507.6C639.2 507.9 637.3 508.2 636.4 509.3Z" fill="#18A753"/>
<path d="M632.9 487.5C634.1 483.2 635.4 479 635.7 474.5C636 470.1 635.4 465.5 633.1 461.7C628.8 470 628.4 479.7 632.7 487.9" fill="#18A753"/>
<path d="M647.3 480.3C652.3 471.2 662.5 463.9 672.9 462.9C668.9 472.8 658 480.5 647.3 480.3Z" fill="#18A753"/>
<path d="M644.1 482C651.6 483.1 657.9 487.9 664.9 490.8C666.4 491.4 668 491.9 669.6 491.7C671.2 491.5 672.8 490.4 673.1 488.8C673.4 487.5 672.8 486.1 671.9 485.1C671 484.1 669.7 483.5 668.5 483C660.9 479.8 652.7 479.8 644.7 481.7" fill="#18A753"/>
<path d="M639.8 487.3C641.5 487.8 642.1 488.7 643.4 489.8C647.9 493.7 653.4 496.5 659.2 497.9C659.8 498 660.6 498.1 660.9 497.6C661.2 497.1 660.8 496.5 660.5 496.1C658.1 493.1 654.6 491 651 489.6C647.4 488.2 644.2 486.6 639.9 487" fill="#18A753"/>
<path d="M634.9 455.6C641 461.3 649.5 464.2 657.8 463.4C658.2 463.4 658.6 463.3 658.8 463C659.4 462.4 658.7 461.4 658 460.9C651.4 455.7 643.2 453.5 634.9 455.6Z" fill="#18A753"/>
<path d="M640.7 453.5C648.7 447.5 659.7 445.7 669.3 448.8C665.7 452.3 660.7 454.3 655.7 454.8C650.7 455.3 645.6 454.7 640.7 453.5Z" fill="#18A753"/>
<path d="M638.4 439C637.7 432.3 638.2 427 637.7 420.2C637.7 419.7 637.5 419 637 418.8C636.3 418.5 635.7 419.4 635.5 420.1C633.5 426.3 634.6 433.5 638.4 438.8" fill="#18A753"/>
<path d="M637.9 439.7C642.5 436.9 645.9 433.2 649 428.9C651.2 425.9 653.1 422.3 652.6 418.6C649.5 418.5 646.6 420.2 644.6 422.6C642.6 424.9 641.4 427.9 640.5 430.8C639.6 433.8 639 436.8 637.9 439.7Z" fill="#18A753"/>
<path d="M648.9 436.7C658.9 433 668.2 427.5 676.3 420.5C673 419.2 669.3 420 666 421.3C658.5 424.3 652.4 429.4 648.8 436.6" fill="#18A753"/>
<path d="M641 443.4C646.1 444 651.2 444.3 656.2 443.5C661.1 442.7 665.8 440.7 670.4 438.8C670.8 438.6 671.2 438.4 671.4 438.1C671.6 437.7 671.4 437.2 671.1 436.9C670.8 436.6 670.3 436.5 669.9 436.3C664.9 434.9 659.5 435.6 654.6 437.2C649.6 438.8 645.5 440.8 641 443.4Z" fill="#18A753"/>
<path d="M612.1 455.9C608.6 448.9 608.9 440.8 611.9 433.6C614 436.8 614.3 440.9 613.9 444.7C613.5 448.5 612.4 452.4 612.3 456.2" fill="#18A753"/>
<path d="M598.3 448.9C589.7 448.7 581.1 452.4 575.2 458.7C579.5 459.4 583.9 458.3 587.8 456.4C591.7 454.5 595.2 451.8 598.6 449.1" fill="#18A753"/>
<path d="M589.1 445.8C584.9 445.5 580.8 444.9 576.8 446.2C572.7 447.4 569.1 450.3 567.4 454.2C571.3 454.6 575.3 453.7 579 452C582.5 450.3 585.8 448.1 589.1 445.8Z" fill="#18A753"/>
<path d="M602.8 446C599 443.5 595.1 441 590.7 440C586.3 439 581.2 439.7 578.1 443.1C581.7 445.2 586 445.4 590.2 445.4C594.3 445.4 599.4 445.3 603.3 446.7" fill="#18A753"/>
<path d="M602.8 446.2C596.3 439.8 593.9 428.4 596.5 419.7C601.6 427.4 603.9 436.9 602.8 446.2Z" fill="#18A753"/>
<path d="M620.6 428.1C621.8 425.3 622.7 422.3 623.8 419.4C624.9 416.5 626.3 413.7 628.3 411.4C630.4 409.1 633.2 407.4 636.3 407.2C634.4 416 628.5 423.8 620.7 428.2" fill="#18A753"/>
<path d="M617.4 431.9C615.4 429.1 613 425.3 610.3 423.3C607.6 421.2 604 420 600.6 420.8C604.1 426.8 610.5 431.1 617.4 431.9Z" fill="#18A753"/>
<path d="M618.1 428.4C616.8 425 615.4 421.6 614.9 418C614.4 414.4 614.7 410.6 616.5 407.5C620.1 414.2 621.2 421.4 618.3 428.5" fill="#18A753"/>
<path d="M620.7 407.5C622.7 400.8 628.8 395.9 635.4 393.7C636.2 393.4 637.1 393.2 638 393.3C638.9 393.4 639.7 394 639.9 394.9C640.1 396 639.2 397.1 638.3 397.8C633.2 402.1 627.1 405.5 620.7 407.5Z" fill="#18A753"/>
<path d="M620.8 402C621.1 397.7 621.3 393.3 622.7 389.3C624.1 385.2 626.8 381.4 630.7 379.6C631.4 383.9 629.5 388.3 627.1 392C624.8 395.7 622 399.3 620.6 403.4" fill="#18A753"/>
<path d="M620.6 405C618.9 400.1 618.8 394 615.9 389.7C613.9 386.7 610.6 384.7 608.9 381.6C607.7 384.5 608.1 387.9 609.3 390.8C610.5 393.7 612.5 396.2 614.7 398.5C616.8 400.8 618.6 402.5 620.6 405Z" fill="#18A753"/>
<path d="M620.7 548.1C620.6 548.1 620.5 515.7 620.4 475.7C620.4 435.7 620.5 403.3 620.6 403.3C620.7 403.3 620.8 435.7 620.9 475.7C620.9 515.7 620.8 548.1 620.7 548.1Z" fill="#263238"/>
<path d="M649 451C649 451 648.6 451.2 647.8 451.5C646.9 451.8 645.8 452.2 644.4 452.6C641.6 453.6 637.7 455 633.5 456.7C629.3 458.5 625.4 459.9 623.1 461.9C622 462.9 621.3 463.9 621 464.7C620.7 465.5 620.6 465.9 620.6 465.9C620.6 465.9 620.6 465.8 620.6 465.6C620.6 465.4 620.7 465.1 620.8 464.7C621.1 463.9 621.7 462.8 622.8 461.8C623.9 460.8 625.5 459.8 627.3 459C629.1 458.2 631.1 457.3 633.2 456.4C637.4 454.7 641.3 453.3 644.2 452.4C645.6 452 646.8 451.6 647.6 451.4C648.5 451 649 450.9 649 451Z" fill="#263238"/>
<path d="M658.3 428.2C658.3 428.2 658.2 428.3 658 428.6C657.7 428.9 657.4 429.2 657 429.6C656 430.5 654.7 431.7 653.1 433.1C649.7 436.1 645.2 440.1 640.2 444.6C635.2 449.1 630.8 453.4 627.8 456.6C626.3 458.2 625.1 459.6 624.3 460.5C623.9 460.9 623.6 461.3 623.4 461.6C623.2 461.8 623.1 462 623 462C623 462 623.1 461.8 623.3 461.6C623.5 461.3 623.8 461 624.2 460.5C625 459.5 626.1 458.2 627.6 456.5C630.6 453.2 634.9 448.9 640 444.4C645.1 439.9 649.7 435.9 653 433C654.6 431.6 656 430.4 657 429.6C657.4 429.2 657.8 428.9 658.1 428.7C658.1 428.3 658.3 428.2 658.3 428.2Z" fill="#263238"/>
<path d="M634.7 449.1C634.6 449 635.6 446.6 636.7 443.5C637.8 440.4 638.3 437.8 638.4 437.8C638.5 437.8 638.2 440.5 637.2 443.6C636.7 445.2 636.1 446.5 635.6 447.5C635 448.6 634.7 449.1 634.7 449.1Z" fill="#263238"/>
<path d="M620.7 468.7C620.7 468.7 620.4 468.4 619.9 467.8C619.4 467.1 618.7 466.3 617.9 465.2C616.2 463 613.9 460.1 611.3 456.8C608.7 453.5 606.3 450.6 604.6 448.5C603.8 447.5 603.1 446.6 602.6 446C602.1 445.4 601.9 445.1 601.9 445C601.9 445 602.2 445.3 602.7 445.8C603.2 446.4 604 447.2 604.9 448.2C606.7 450.3 609.1 453.2 611.7 456.4C614.3 459.7 616.6 462.7 618.2 464.9C619 466 619.6 466.9 620.1 467.5C620.5 468.4 620.7 468.7 620.7 468.7Z" fill="#263238"/>
<path d="M614.5 460.8C614.4 460.9 612.8 458.9 611.9 455.9C611.3 453.8 611.2 451.9 611.3 451H611.5C611.4 451.4 611.3 451.6 611.3 451.6C611.3 451.6 611.3 451.4 611.3 451H611.5C611.6 451.9 611.7 453.7 612.3 455.8C613.2 458.6 614.6 460.7 614.5 460.8Z" fill="#263238"/>
<path d="M606.5 450.7C606.4 450.8 605.9 450.1 604.7 449.6C603.5 449.1 601.7 449 599.7 449.2C597.7 449.3 595.9 449.7 594.6 450C593.3 450.3 592.5 450.6 592.5 450.5C592.5 450.4 593.2 450.1 594.5 449.7C595.8 449.3 597.6 448.9 599.6 448.7C601.6 448.5 603.5 448.7 604.8 449.3C606.1 449.9 606.5 450.7 606.5 450.7Z" fill="#263238"/>
<path d="M604.6 448.2C604.6 448.3 603.5 447.8 601.8 447.2C600.1 446.6 597.6 446 594.9 445.8C592.1 445.6 589.6 445.8 587.8 446.2C586 446.5 584.9 446.9 584.9 446.8C584.9 446.8 585.2 446.7 585.6 446.5C586.1 446.3 586.8 446.1 587.7 445.9C589.5 445.5 592.1 445.2 594.9 445.4C597.7 445.6 600.2 446.3 601.9 447C602.8 447.3 603.4 447.7 603.9 447.9C604.3 448 604.6 448.2 604.6 448.2Z" fill="#263238"/>
<path d="M620.6 437.9C620.5 437.9 619.6 434.8 618.6 430.8C617.6 426.9 616.9 423.7 617 423.6C617.1 423.6 618 426.7 619 430.7C620.1 434.6 620.8 437.9 620.6 437.9Z" fill="#263238"/>
<path d="M620.8 437.9C620.7 437.9 620.1 435.8 618.6 433.7C617.1 431.5 615.2 430.4 615.3 430.3C615.3 430.3 615.8 430.4 616.6 431C617.3 431.5 618.2 432.4 619 433.5C620.5 435.6 620.9 437.9 620.8 437.9Z" fill="#263238"/>
<path d="M620.7 530.8C620.6 530.8 620.6 530 620.2 528.6C619.8 527.2 619.2 525.3 618 523C615.8 518.4 611.7 512.6 606.5 506.8C603.9 503.9 601.4 501.1 599.3 498.5C597.2 495.9 595.4 493.3 594.2 491.1C592.9 488.9 592.1 487 591.6 485.6C591.4 484.9 591.2 484.4 591.1 484C591 483.6 591 483.4 591 483.4C591 483.4 591.3 484.1 591.8 485.5C592.3 486.8 593.2 488.7 594.5 490.9C595.8 493.1 597.6 495.6 599.7 498.2C601.8 500.8 604.3 503.6 606.9 506.5C612.1 512.3 616.2 518.2 618.3 522.9C619.4 525.2 620 527.2 620.3 528.6C620.5 529.3 620.6 529.8 620.6 530.2C620.7 530.6 620.7 530.8 620.7 530.8Z" fill="#263238"/>
<path d="M646.3 501.9C646.3 501.9 645.8 502.2 645 502.7C644.1 503.2 642.9 503.9 641.5 505C640.1 506.1 638.5 507.5 636.9 509.2C635.3 510.9 633.6 512.9 632 515C628.6 519.2 625.5 523 623.6 526C622.6 527.5 621.9 528.7 621.5 529.6C621 530.5 620.8 531 620.8 531C620.8 531 620.8 530.9 620.9 530.6C621 530.4 621.1 530 621.4 529.5C621.8 528.6 622.5 527.3 623.4 525.8C625.2 522.7 628.4 518.9 631.7 514.7C633.4 512.6 635.1 510.6 636.7 508.9C638.3 507.2 639.9 505.8 641.4 504.8C642.8 503.7 644.1 503 645 502.6C645.4 502.4 645.8 502.2 646 502.1C646.1 501.9 646.3 501.9 646.3 501.9Z" fill="#263238"/>
<path d="M646.8 511.3C646.8 511.4 645.7 511.5 644 511.7C642.3 511.9 639.8 512.2 637.3 513C634.8 513.8 632.7 515.1 631.3 516.2C629.9 517.3 629.3 518.2 629.2 518.1C629.2 518.1 629.3 517.8 629.6 517.4C629.9 517 630.4 516.5 631.1 515.9C632.5 514.7 634.6 513.4 637.2 512.6C639.8 511.8 642.3 511.5 644 511.4C645.7 511.2 646.8 511.2 646.8 511.3Z" fill="#263238"/>
<path d="M629.9 517C629.8 516.9 631 515 632 512.3C632.9 509.7 633.1 507.3 633.3 507.4C633.4 507.4 633.4 508 633.3 508.9C633.2 509.8 633 511.1 632.5 512.5C632 513.9 631.4 515 630.9 515.8C630.3 516.6 630 517.1 629.9 517Z" fill="#263238"/>
<path d="M654.6 476.7C654.6 476.7 654.4 476.8 654.1 476.9C653.7 477.1 653.3 477.3 652.8 477.5C652.2 477.8 651.5 478.1 650.7 478.5C649.9 478.9 649 479.3 648 479.9C647.5 480.2 647 480.5 646.5 480.8C646 481.1 645.4 481.5 644.9 481.8C643.8 482.5 642.6 483.3 641.4 484.2C639 486 636.5 488.2 634.1 490.6C631.7 493.1 629.7 495.7 627.9 498.1C627.1 499.3 626.3 500.5 625.6 501.7C625.3 502.3 624.9 502.8 624.6 503.4C624.3 503.9 624 504.5 623.8 505C623.2 506 622.9 506.9 622.5 507.8C622.1 508.6 621.8 509.3 621.6 509.9C621.4 510.4 621.2 510.9 621 511.3C620.9 511.6 620.8 511.8 620.8 511.8C620.8 511.8 620.8 511.6 620.9 511.3C621 510.9 621.2 510.5 621.4 509.9C621.6 509.3 621.9 508.6 622.2 507.7C622.6 506.9 622.9 505.9 623.5 504.9C623.8 504.4 624 503.9 624.3 503.3C624.6 502.7 624.9 502.2 625.3 501.6C625.9 500.4 626.7 499.2 627.6 498C629.3 495.5 631.4 492.9 633.8 490.4C636.2 487.9 638.8 485.8 641.2 483.9C642.4 483 643.6 482.2 644.8 481.5C645.4 481.2 645.9 480.8 646.5 480.5C647 480.2 647.6 479.9 648.1 479.6C649.1 479 650 478.6 650.9 478.2C651.7 477.8 652.4 477.5 653 477.3C653.6 477.1 654 476.9 654.4 476.8C654.4 476.7 654.6 476.7 654.6 476.7Z" fill="#263238"/>
<path d="M634.3 490.3C634.3 490.3 634.5 489.5 635.4 488.6C636.3 487.7 638 486.9 639.9 486.9C641.8 486.8 643.5 487.4 644.6 487.8C645.7 488.2 646.4 488.6 646.4 488.7C646.4 488.8 645.7 488.5 644.5 488.1C643.3 487.7 641.7 487.3 639.9 487.3C638.1 487.4 636.5 488.1 635.6 488.8C634.7 489.6 634.4 490.3 634.3 490.3Z" fill="#263238"/>
<path d="M631.3 493.4C631.2 493.3 632.3 491.7 632.6 489.3C632.9 486.9 632.2 485 632.3 485C632.4 485 632.6 485.4 632.8 486.2C633 487 633.2 488.1 633 489.4C632.9 490.6 632.4 491.7 632.1 492.4C631.7 493.1 631.3 493.4 631.3 493.4Z" fill="#263238"/>
<path d="M598.3 535.4C599 547.8 602.7 560.4 608.5 573.1H633.5C639 560.5 642.5 547.9 643.1 535.4H598.3Z" fill="#455A64"/>
<path d="M639 555.5C639 555.6 630.8 555.7 620.6 555.7C610.5 555.7 602.2 555.6 602.2 555.5C602.2 555.4 610.4 555.3 620.6 555.3C630.7 555.3 639 555.4 639 555.5Z" fill="#FAFAFA"/>
<path d="M638.4 560C638.4 560.1 630.7 560.2 621.2 560.2C611.7 560.2 604 560.1 604 560C604 559.9 611.7 559.8 621.2 559.8C630.7 559.7 638.4 559.9 638.4 560Z" fill="#FAFAFA"/>
<path d="M527.8 567.3H172.4C164.4 567.3 157.8 560.8 157.8 552.7V327.6C157.8 319.6 164.3 313 172.4 313H527.8C535.8 313 542.4 319.5 542.4 327.6V552.7C542.4 560.7 535.9 567.3 527.8 567.3Z" fill="#455A64"/>
<path d="M541.6 573.1H160.6C150.8 573.1 142.8 565.1 142.8 555.3V550.8H559.4V555.3C559.4 565.1 551.5 573.1 541.6 573.1Z" fill="#455A64"/>
<path d="M531 323.1H168.2V537.8H531V323.1Z" fill="#263238"/>
<path d="M312.2 548.5L317.4 556.7H390.1L394.9 548.5H312.2Z" fill="#263238"/>
<path d="M521 537.1H178.9C177.1 537.1 175.6 535.6 175.6 533.8V333.6C175.6 331.8 177.1 330.3 178.9 330.3H521C522.8 330.3 524.3 331.8 524.3 333.6V533.8C524.3 535.7 522.8 537.1 521 537.1Z" fill="#EBEBEB"/>
<path d="M523.9 537.4H175.3L175.7 345.8H523.9V537.4Z" fill="#FAFAFA"/>
<path d="M204.3 338.3C204.3 339.8 203.1 341.1 201.5 341.1C200 341.1 198.7 339.9 198.7 338.3C198.7 336.7 199.9 335.5 201.5 335.5C203 335.6 204.3 336.8 204.3 338.3Z" fill="#263238"/>
<path d="M187.4 338.3C187.4 339.8 186.2 341.1 184.6 341.1C183.1 341.1 181.8 339.9 181.8 338.3C181.8 336.7 183 335.5 184.6 335.5C186.1 335.6 187.4 336.8 187.4 338.3Z" fill="#263238"/>
<path d="M195.5 338.3C195.5 339.8 194.3 341.1 192.7 341.1C191.2 341.1 189.9 339.9 189.9 338.3C189.9 336.7 191.1 335.5 192.7 335.5C194.2 335.6 195.5 336.8 195.5 338.3Z" fill="#263238"/>
<path d="M539.1 548.5C539.1 548.6 453.8 548.7 348.5 548.7C243.2 548.7 157.9 548.6 157.9 548.5C157.9 548.4 243.2 548.3 348.5 548.3C453.7 548.2 539.1 548.3 539.1 548.5Z" fill="#263238"/>
<path d="M287.3 420.7L429.1 419.3L433.3 515.8L286.4 514.7L287.3 420.7Z" fill="#18A753"/>
<path d="M287.3 420.7L354.3 366.2C357.1 363.9 361.2 363.9 364 366.2L429.1 419.3" fill="#18A753"/>
<g opacity="0.3">
<g opacity="0.3">
<g opacity="0.3">
<path opacity="0.3" d="M287.3 420.7L354.3 366.2C357.1 363.9 361.2 363.9 364 366.2L429.1 419.3" fill="black"/>
</g>
</g>
</g>
<path d="M286.4 514.7C286.2 514.5 297.6 502.1 311.7 487C325.9 471.8 337.5 459.7 337.6 459.9C337.8 460.1 326.5 472.5 312.3 487.6C298.2 502.7 286.6 514.9 286.4 514.7Z" fill="#263238"/>
<path d="M433.3 515.8C433.1 516 422 503.8 408.5 488.7C395 473.6 384.2 461.2 384.4 461C384.6 460.8 395.7 473 409.2 488.1C422.7 503.2 433.5 515.6 433.3 515.8Z" fill="#263238"/>
<g opacity="0.5">
<g opacity="0.5">
<g opacity="0.5">
<path opacity="0.5" d="M429.1 419.3L358 476.4L287.3 420.7" fill="black"/>
</g>
</g>
</g>
<path d="M294.4 425.9L294.1 381.6L418.3 379.9L419.8 426.5L358 475.6L294.4 425.9Z" fill="#FAFAFA"/>
<path d="M294.4 425.9C294.4 425.9 294.8 426.2 295.6 426.8C296.4 427.4 297.5 428.3 299 429.4C302 431.7 306.3 435.1 311.9 439.4C323 448 338.9 460.4 358.2 475.5H357.9C375.7 461.3 396.8 444.5 419.7 426.3L419.6 426.5C419.3 417.6 419 408.3 418.7 398.8C418.5 392.4 418.3 386.1 418.1 379.9L418.4 380.2C368.4 380.9 324.2 381.4 294.2 381.8L294.4 381.6C294.5 395.5 294.5 406.6 294.5 414.2C294.5 418 294.5 420.9 294.5 422.9C294.5 423.9 294.5 424.6 294.5 425.1C294.5 425.7 294.4 425.9 294.4 425.9C294.4 425.9 294.4 425.7 294.4 425.2C294.4 424.7 294.4 423.9 294.4 423C294.4 421 294.3 418.1 294.3 414.3C294.2 406.7 294.1 395.6 294 381.7V381.5H294.2C324.2 381.1 368.3 380.4 418.4 379.7H418.7V380C418.9 386.2 419.1 392.5 419.3 398.9C419.6 408.4 419.9 417.7 420.2 426.6V426.7L420.1 426.8C397.2 445 376.1 461.8 358.3 475.9L358.2 476L358.1 475.9C338.8 460.8 323 448.3 311.9 439.6C306.4 435.3 302.1 431.9 299.1 429.5C297.6 428.3 296.5 427.5 295.8 426.9C294.8 426.2 294.4 425.9 294.4 425.9Z" fill="#263238"/>
<path d="M398.7 402.2C398.7 402.3 379.7 402.6 356.3 402.8C332.9 403 313.9 403 313.9 402.9C313.9 402.8 332.9 402.5 356.3 402.3C379.7 402.1 398.7 402.1 398.7 402.2Z" fill="#263238"/>
<path d="M398.8 414.8C398.8 414.9 379.8 415.2 356.4 415.4C333 415.6 314 415.6 314 415.5C314 415.4 333 415.1 356.4 414.9C379.8 414.7 398.8 414.6 398.8 414.8Z" fill="#263238"/>
<path d="M398.8 429.2C398.8 429.3 379.8 429.6 356.4 429.8C333 430 314 430 314 429.9C314 429.8 333 429.5 356.4 429.3C379.8 429.1 398.8 429 398.8 429.2Z" fill="#263238"/>
<path d="M398.8 443.6C398.8 443.7 380.7 444 358.3 444.2C335.9 444.4 317.8 444.4 317.8 444.3C317.8 444.2 335.9 443.9 358.3 443.7C380.7 443.5 398.8 443.5 398.8 443.6Z" fill="#263238"/>
<path d="M383 456.3C383 456.3 382.8 456.3 382.5 456.4C382.1 456.4 381.6 456.4 381.1 456.5C379.8 456.5 378 456.6 375.9 456.6C371.4 456.7 365.3 456.8 358.6 456.9C351.8 457 345.7 457.1 341.3 457.1C339.1 457.1 337.4 457.1 336.1 457.1C335.5 457.1 335.1 457.1 334.7 457.1C334.4 457.1 334.2 457.1 334.2 457.1C334.2 457.1 334.4 457.1 334.7 457C335.1 457 335.6 457 336.1 456.9C337.4 456.9 339.2 456.8 341.3 456.8C345.8 456.7 351.9 456.6 358.6 456.5C365.4 456.4 371.5 456.3 375.9 456.3C378.1 456.3 379.8 456.3 381.1 456.3C381.7 456.3 382.1 456.3 382.5 456.3C382.8 456.3 383 456.3 383 456.3Z" fill="#263238"/>
<path d="M367 468.5C367 468.6 363 468.8 358 468.8C353 468.8 349 468.7 349 468.6C349 468.5 353 468.3 358 468.3C363 468.2 367 468.3 367 468.5Z" fill="#263238"/>
<path d="M691 572.2C691 572.3 541.5 572.5 357 572.5C172.5 572.5 23 572.4 23 572.2C23 572.1 172.5 571.9 357 571.9C541.4 572 691 572.1 691 572.2Z" fill="#263238"/>
<path d="M383.7 379.5C383.8 379.5 383.9 380.1 383.8 380.8C383.7 381.5 383.6 382 383.4 382C383.3 382 383.2 381.4 383.3 380.7C383.4 380 383.6 379.5 383.7 379.5Z" fill="#263238"/>
<path d="M385.1 369.8C385.2 369.8 385.2 370.9 385 372.3C384.8 373.6 384.5 374.7 384.4 374.7C384.3 374.7 384.3 373.6 384.5 372.2C384.6 370.8 384.9 369.7 385.1 369.8Z" fill="#263238"/>
<path d="M387 360.1C387.1 360.1 387 361.2 386.7 362.6C386.4 363.9 386.1 365 385.9 364.9C385.8 364.9 385.9 363.8 386.2 362.4C386.5 361.2 386.9 360.1 387 360.1Z" fill="#263238"/>
<path d="M389.7 350.7C389.8 350.7 389.6 351.8 389.2 353.1C388.8 354.4 388.4 355.4 388.2 355.4C388.1 355.4 388.3 354.3 388.7 353C389.1 351.7 389.6 350.6 389.7 350.7Z" fill="#263238"/>
<path d="M393.1 341.5C393.2 341.6 392.9 342.6 392.4 343.9C391.9 345.2 391.4 346.1 391.2 346.1C391.1 346.1 391.4 345 391.9 343.7C392.5 342.4 393 341.4 393.1 341.5Z" fill="#263238"/>
<path d="M397.4 332.6C397.5 332.7 397.1 333.7 396.5 334.9C395.9 336.1 395.3 337 395.1 337C395 336.9 395.4 335.9 396 334.7C396.7 333.5 397.3 332.5 397.4 332.6Z" fill="#263238"/>
<path d="M402.5 324.2C402.6 324.3 402.1 325.3 401.3 326.4C400.6 327.5 399.9 328.4 399.8 328.3C399.7 328.2 400.2 327.2 400.9 326.1C401.7 325 402.4 324.2 402.5 324.2Z" fill="#263238"/>
<path d="M408.6 316.5C408.7 316.6 408.1 317.5 407.2 318.6C406.3 319.6 405.5 320.4 405.4 320.3C405.3 320.2 405.9 319.3 406.8 318.2C407.7 317.2 408.5 316.4 408.6 316.5Z" fill="#263238"/>
<path d="M415.5 309.5C415.6 309.6 414.9 310.4 413.9 311.4C412.9 312.3 412 313 411.9 312.9C411.8 312.8 412.5 312 413.5 311C414.5 310.1 415.4 309.4 415.5 309.5Z" fill="#263238"/>
<path d="M423.3 303.5C423.4 303.6 422.6 304.4 421.5 305.2C420.4 306 419.5 306.6 419.4 306.4C419.3 306.3 420.1 305.5 421.2 304.7C422.2 303.9 423.2 303.4 423.3 303.5Z" fill="#263238"/>
<path d="M431.7 298.5C431.8 298.6 430.9 299.3 429.7 299.9C428.5 300.5 427.5 301 427.4 300.8C427.3 300.7 428.2 300 429.4 299.4C430.6 298.8 431.7 298.4 431.7 298.5Z" fill="#263238"/>
<path d="M440.8 294.8C440.8 294.9 439.8 295.4 438.6 295.9C437.3 296.4 436.3 296.6 436.2 296.5C436.1 296.4 437.1 295.9 438.4 295.4C439.7 294.9 440.8 294.7 440.8 294.8Z" fill="#263238"/>
<path d="M450.4 292.6C450.4 292.7 449.4 293 448 293.3C446.7 293.6 445.6 293.7 445.5 293.6C445.5 293.5 446.5 293.1 447.9 292.8C449.3 292.5 450.4 292.4 450.4 292.6Z" fill="#263238"/>
<path d="M460.2 292C460.2 292.1 459.1 292.3 457.7 292.3C456.3 292.3 455.2 292.2 455.2 292.1C455.2 292 456.3 291.8 457.7 291.8C459.1 291.8 460.2 291.9 460.2 292Z" fill="#263238"/>
<path d="M470 293.2C470 293.3 468.9 293.3 467.5 293.1C466.2 292.9 465.1 292.6 465.1 292.5C465.1 292.4 466.2 292.4 467.6 292.6C468.9 292.7 470 293 470 293.2Z" fill="#263238"/>
<path d="M479.4 296C479.3 296.1 478.3 295.9 477 295.4C475.7 295 474.7 294.5 474.8 294.3C474.8 294.2 475.9 294.4 477.2 294.9C478.4 295.4 479.4 295.9 479.4 296Z" fill="#263238"/>
<path d="M488.1 300.4C488 300.5 487 300.1 485.8 299.4C484.6 298.7 483.7 298.1 483.8 298C483.9 297.9 484.9 298.3 486.1 299C487.3 299.7 488.2 300.3 488.1 300.4Z" fill="#263238"/>
<path d="M495.8 306.5C495.7 306.6 494.8 306 493.8 305.1C492.8 304.2 492 303.4 492.1 303.3C492.2 303.2 493.1 303.8 494.1 304.7C495.2 305.6 495.9 306.4 495.8 306.5Z" fill="#263238"/>
<path d="M500.7 312.1C500.6 312.2 500.1 311.8 499.7 311.3C499.3 310.8 499 310.2 499.1 310.2C499.2 310.1 499.6 310.5 500.1 311C500.5 311.5 500.8 312 500.7 312.1Z" fill="#263238"/>
<path d="M546.9 372.4C546.8 372.5 545.8 372.2 544.5 371.6C543.2 371 542.3 370.4 542.3 370.3C542.4 370.2 543.4 370.5 544.7 371.1C546 371.7 547 372.2 546.9 372.4Z" fill="#263238"/>
<path d="M556.4 375.7C556.4 375.8 555.3 375.6 553.9 375.2C552.6 374.8 551.5 374.4 551.6 374.2C551.6 374.1 552.8 374.3 554.1 374.7C555.4 375.1 556.4 375.5 556.4 375.7Z" fill="#263238"/>
<path d="M566.2 377.2C566.2 377.3 565.1 377.3 563.7 377.2C562.3 377 561.2 376.8 561.2 376.7C561.2 376.6 562.3 376.6 563.7 376.7C565.1 376.9 566.2 377.1 566.2 377.2Z" fill="#263238"/>
<path d="M576.2 376.9C576.2 377 575.1 377.2 573.7 377.3C572.3 377.4 571.2 377.4 571.2 377.2C571.2 377.1 572.3 376.9 573.7 376.8C575.1 376.7 576.2 376.8 576.2 376.9Z" fill="#263238"/>
<path d="M586 375.1C586 375.2 585 375.6 583.6 375.9C582.2 376.2 581.1 376.3 581.1 376.1C581.1 376 582.2 375.6 583.5 375.3C584.9 375.1 586 374.9 586 375.1Z" fill="#263238"/>
<path d="M595.3 371.4C595.4 371.5 594.4 372.1 593.1 372.7C591.8 373.3 590.8 373.6 590.7 373.5C590.6 373.4 591.6 372.8 592.9 372.2C594.2 371.6 595.2 371.3 595.3 371.4Z" fill="#263238"/>
<path d="M603.6 365.8C603.7 365.9 602.9 366.7 601.8 367.6C600.7 368.4 599.7 369 599.6 368.8C599.5 368.7 600.4 368 601.5 367.1C602.6 366.4 603.5 365.7 603.6 365.8Z" fill="#263238"/>
<path d="M610.4 358.5C610.5 358.6 610 359.6 609.1 360.6C608.2 361.7 607.4 362.4 607.2 362.3C607.1 362.2 607.8 361.3 608.6 360.3C609.5 359.3 610.3 358.4 610.4 358.5Z" fill="#263238"/>
<path d="M615.1 349.7C615.2 349.7 615 350.9 614.4 352.1C613.8 353.4 613.2 354.3 613.1 354.2C613 354.1 613.4 353.1 614 351.8C614.5 350.7 614.9 349.7 615.1 349.7Z" fill="#263238"/>
<path d="M616.9 339.9C617 339.9 617.2 341 617 342.4C616.9 343.8 616.5 344.9 616.4 344.8C616.3 344.8 616.4 343.7 616.5 342.3C616.7 341.1 616.8 339.9 616.9 339.9Z" fill="#263238"/>
<path d="M615.5 330.1C615.6 330.1 616.1 331.1 616.4 332.5C616.7 333.9 616.7 335 616.6 335C616.5 335 616.2 333.9 615.9 332.6C615.6 331.2 615.3 330.1 615.5 330.1Z" fill="#263238"/>
<path d="M611.1 321.1C611.2 321 612 321.9 612.7 323.1C613.4 324.3 613.8 325.4 613.6 325.4C613.5 325.5 612.9 324.5 612.2 323.3C611.6 322.2 611 321.2 611.1 321.1Z" fill="#263238"/>
<path d="M604.2 314C604.3 313.9 605.3 314.4 606.3 315.4C607.4 316.3 608 317.2 607.9 317.3C607.8 317.4 606.9 316.7 605.9 315.8C605 314.8 604.1 314.1 604.2 314Z" fill="#263238"/>
<path d="M595.1 309.9C595.1 309.8 596.3 309.9 597.6 310.3C598.9 310.7 599.9 311.3 599.8 311.5C599.7 311.6 598.7 311.3 597.4 310.8C596.2 310.4 595.1 310.1 595.1 309.9Z" fill="#263238"/>
<path d="M585.2 310.1C585.2 310 586.2 309.6 587.6 309.4C589 309.2 590.1 309.3 590.1 309.5C590.1 309.6 589 309.8 587.6 309.9C586.4 310.1 585.3 310.2 585.2 310.1Z" fill="#263238"/>
<path d="M576.6 314.9C576.5 314.8 577.2 313.9 578.3 313C579.4 312.1 580.5 311.7 580.6 311.9C580.7 312 579.7 312.6 578.7 313.5C577.5 314.3 576.7 315 576.6 314.9Z" fill="#263238"/>
<path d="M572.6 323.9C572.5 323.9 572.4 322.7 572.7 321.4C573 320 573.6 319 573.7 319.1C573.8 319.2 573.5 320.2 573.2 321.5C573 322.8 572.8 323.9 572.6 323.9Z" fill="#263238"/>
<path d="M574.6 333.6C574.5 333.7 573.8 332.7 573.4 331.4C572.9 330.1 572.8 328.9 573 328.9C573.1 328.9 573.5 329.9 573.9 331.2C574.3 332.5 574.7 333.5 574.6 333.6Z" fill="#263238"/>
<path d="M581.1 341C581 341.1 580 340.6 579 339.6C577.9 338.7 577.3 337.7 577.4 337.6C577.5 337.5 578.3 338.3 579.3 339.2C580.4 340.2 581.2 340.9 581.1 341Z" fill="#263238"/>
<path d="M590.2 345.1C590.2 345.2 589 345.1 587.7 344.6C586.4 344.2 585.4 343.6 585.5 343.4C585.6 343.3 586.6 343.6 587.9 344.1C589.2 344.6 590.2 345 590.2 345.1Z" fill="#263238"/>
<path d="M600.1 346C600.1 346.1 599 346.3 597.6 346.3C596.2 346.3 595.1 346 595.1 345.9C595.1 345.8 596.2 345.8 597.6 345.8C599 345.8 600.1 345.9 600.1 346Z" fill="#263238"/>
<path d="M609.9 344.2C609.9 344.3 608.9 344.8 607.6 345.1C606.3 345.4 605.1 345.5 605.1 345.4C605.1 345.3 606.1 344.9 607.5 344.6C608.8 344.3 609.9 344.1 609.9 344.2Z" fill="#263238"/>
<path d="M619 340.1C619.1 340.2 618.1 340.8 616.9 341.5C615.7 342.1 614.6 342.6 614.6 342.4C614.5 342.3 615.5 341.6 616.7 341C617.9 340.4 618.9 339.9 619 340.1Z" fill="#263238"/>
<path d="M627 334.1C627.1 334.2 626.3 335 625.2 335.9C624.1 336.8 623.2 337.4 623.1 337.3C623 337.2 623.8 336.4 624.9 335.5C626 334.6 626.9 334 627 334.1Z" fill="#263238"/>
<path d="M633.8 326.8C633.9 326.9 633.3 327.8 632.4 328.9C631.5 330 630.7 330.7 630.6 330.6C630.5 330.5 631.1 329.6 632 328.5C632.9 327.5 633.7 326.7 633.8 326.8Z" fill="#263238"/>
<path d="M639.3 318.5C639.4 318.6 639 319.6 638.2 320.8C637.5 322 636.8 322.9 636.7 322.8C636.6 322.7 637.1 321.7 637.8 320.5C638.5 319.3 639.2 318.4 639.3 318.5Z" fill="#263238"/>
<path d="M643.4 309.3C643.5 309.3 643.2 310.4 642.7 311.7C642.2 313 641.7 314 641.5 313.9C641.4 313.8 641.7 312.8 642.2 311.5C642.7 310.3 643.2 309.3 643.4 309.3Z" fill="#263238"/>
<path d="M646.2 299.7C646.3 299.7 646.2 300.8 645.8 302.2C645.5 303.5 645.1 304.6 644.9 304.6C644.8 304.6 644.9 303.4 645.3 302.1C645.6 300.7 646 299.7 646.2 299.7Z" fill="#263238"/>
<path d="M647.9 289.9C648 289.9 648 291 647.8 292.4C647.6 293.8 647.3 294.9 647.2 294.8C647.1 294.8 647.1 293.7 647.3 292.3C647.5 291 647.8 289.9 647.9 289.9Z" fill="#263238"/>
<path d="M648.8 279.9C648.9 279.9 649 281 648.9 282.4C648.8 283.8 648.6 284.9 648.5 284.9C648.4 284.9 648.3 283.8 648.4 282.4C648.5 281 648.7 279.9 648.8 279.9Z" fill="#263238"/>
<path d="M649.2 269.9C649.3 269.9 649.4 271 649.4 272.4C649.4 273.8 649.2 274.9 649.1 274.9C649 274.9 648.9 273.8 648.9 272.4C648.9 271.1 649 269.9 649.2 269.9Z" fill="#263238"/>
<path d="M649.1 259.9C649.2 259.9 649.4 261 649.4 262.4C649.4 263.8 649.3 264.9 649.2 264.9C649.1 264.9 648.9 263.8 648.9 262.4C648.8 261.1 648.9 259.9 649.1 259.9Z" fill="#263238"/>
<path d="M648.9 253.8C649 253.8 649.2 254.1 649.2 254.4C649.2 254.7 649.1 255 649 255C648.9 255 648.7 254.7 648.7 254.4C648.7 254.1 648.8 253.8 648.9 253.8Z" fill="#263238"/>
<path d="M670.945 224.116L602.941 231.503L607.92 277.336L675.923 269.949L670.945 224.116Z" fill="#18A753"/>
<path d="M607.8 277.3L602.8 231.4L670.8 224L675.8 269.8L607.8 277.3ZM602.9 231.5L607.9 277.3L675.8 269.9L670.8 224.1L602.9 231.5Z" fill="#263238"/>
<path d="M671.1 224.7C671.1 224.7 670.9 224.9 670.5 225.4C670.1 225.9 669.5 226.5 668.8 227.3C667.2 228.9 665.1 231.3 662.4 234.1C656.9 239.8 649.4 247.7 641.1 256.4L640.9 256.6L640.7 256.5C640.5 256.4 640.4 256.3 640.2 256.2C630 249.4 620.7 243.5 614 239.1C610.7 237 608 235.2 606.1 233.9C605.2 233.3 604.5 232.8 604 232.5C603.5 232.2 603.3 232 603.3 232C603.3 232 603.6 232.1 604.1 232.4C604.7 232.7 605.4 233.2 606.3 233.7C608.3 234.9 611 236.6 614.3 238.7C621.1 243 630.4 248.9 640.7 255.4C640.9 255.5 641.1 255.6 641.2 255.7H640.8C649.2 247.1 656.7 239.3 662.2 233.6C664.9 230.8 667.1 228.6 668.7 227C669.4 226.3 670 225.7 670.5 225.2C670.9 224.8 671.1 224.6 671.1 224.7Z" fill="#263238"/>
<path d="M608.1 277.8C608 277.7 612.4 270.9 618 262.5C623.6 254.2 628.3 247.5 628.4 247.6C628.5 247.7 624.1 254.5 618.5 262.9C612.9 271.3 608.3 277.9 608.1 277.8Z" fill="#263238"/>
<path d="M651 244.6C651.1 244.5 656.9 250.2 663.8 257.3C670.7 264.4 676.3 270.3 676.1 270.4C675.9 270.5 670.3 264.8 663.3 257.7C656.4 250.6 650.8 244.8 651 244.6Z" fill="#263238"/>
<path d="M360.5 363C360.6 363 360.9 363.5 361 364.2C361.1 364.9 361.1 365.5 361 365.5C360.9 365.5 360.6 365 360.5 364.3C360.3 363.6 360.3 363.1 360.5 363Z" fill="#263238"/>
<path d="M358.9 353.3C359 353.3 359.3 354.4 359.6 355.7C359.8 357 359.9 358.2 359.7 358.2C359.6 358.2 359.3 357.1 359 355.8C358.8 354.4 358.7 353.3 358.9 353.3Z" fill="#263238"/>
<path d="M357.4 343.5C357.5 343.5 357.8 344.6 358 345.9C358.2 347.3 358.2 348.4 358.1 348.4C358 348.4 357.7 347.3 357.5 346C357.3 344.6 357.3 343.5 357.4 343.5Z" fill="#263238"/>
<path d="M356.3 333.7C356.4 333.7 356.7 334.8 356.8 336.1C356.9 337.5 356.9 338.6 356.8 338.6C356.7 338.6 356.4 337.5 356.3 336.2C356.2 334.8 356.2 333.7 356.3 333.7Z" fill="#263238"/>
<path d="M355.6 323.8C355.7 323.8 355.9 324.9 356 326.3C356.1 327.7 356 328.8 355.9 328.8C355.8 328.8 355.6 327.7 355.5 326.3C355.4 324.9 355.5 323.8 355.6 323.8Z" fill="#263238"/>
<path d="M355.5 313.9C355.6 313.9 355.8 315 355.7 316.4C355.7 317.8 355.6 318.9 355.4 318.9C355.3 318.9 355.1 317.8 355.2 316.4C355.2 315 355.4 313.9 355.5 313.9Z" fill="#263238"/>
<path d="M356.1 304.1C356.2 304.1 356.3 305.2 356.2 306.6C356.1 308 355.9 309 355.7 309C355.6 309 355.5 307.9 355.6 306.5C355.8 305.1 356 304 356.1 304.1Z" fill="#263238"/>
<path d="M357.6 294.3C357.7 294.3 357.7 295.4 357.4 296.8C357.2 298.1 356.9 299.2 356.7 299.2C356.6 299.2 356.6 298.1 356.9 296.7C357.2 295.3 357.5 294.3 357.6 294.3Z" fill="#263238"/>
<path d="M360.1 284.7C360.2 284.7 360 285.8 359.6 287.1C359.2 288.4 358.8 289.4 358.6 289.4C358.5 289.4 358.7 288.3 359.1 287C359.6 285.7 360 284.7 360.1 284.7Z" fill="#263238"/>
<path d="M363.8 275.6C363.9 275.7 363.6 276.7 363 278C362.5 279.2 361.9 280.2 361.8 280.2C361.7 280.1 362 279.1 362.6 277.8C363.1 276.5 363.7 275.5 363.8 275.6Z" fill="#263238"/>
<path d="M368.7 266.9C368.8 267 368.3 268 367.6 269.2C366.9 270.4 366.2 271.3 366.1 271.2C366 271.1 366.4 270.1 367.2 268.9C367.9 267.8 368.5 266.9 368.7 266.9Z" fill="#263238"/>
<path d="M374.6 259C374.7 259.1 374.1 260 373.3 261.1C372.4 262.2 371.7 262.9 371.5 262.9C371.4 262.8 372 261.9 372.8 260.8C373.7 259.7 374.5 258.9 374.6 259Z" fill="#263238"/>
<path d="M381.6 252.1C381.7 252.2 381 253 380 254C379 254.9 378.1 255.6 378 255.5C377.9 255.4 378.6 254.6 379.6 253.6C380.6 252.6 381.5 252 381.6 252.1Z" fill="#263238"/>
<path d="M389.7 246.4C389.8 246.5 388.9 247.2 387.8 247.9C386.7 248.6 385.7 249.1 385.6 249C385.5 248.9 386.4 248.2 387.5 247.5C388.6 246.8 389.6 246.3 389.7 246.4Z" fill="#263238"/>
<path d="M398.7 242.4C398.7 242.5 397.8 243 396.5 243.5C395.2 244 394.2 244.3 394.1 244.2C394 244.1 395 243.6 396.3 243.1C397.6 242.5 398.6 242.2 398.7 242.4Z" fill="#263238"/>
<path d="M405.9 240.6C405.9 240.7 405.4 241 404.7 241.1C404 241.2 403.5 241.2 403.4 241.1C403.4 241 403.9 240.7 404.6 240.6C405.3 240.4 405.9 240.4 405.9 240.6Z" fill="#263238"/>
<path d="M352.698 203.026L334.627 249.755L403.927 276.555L421.998 229.826L352.698 203.026Z" fill="#18A753"/>
<path d="M404 276.6L334.6 249.8L352.7 203L422.1 229.8L404 276.6ZM334.7 249.8L404 276.6L422 229.9L352.7 203.1L334.7 249.8Z" fill="#263238"/>
<path d="M422.1 230.5C422.1 230.5 421.8 230.6 421.2 230.9C420.5 231.1 419.7 231.5 418.6 231.8C416.3 232.6 413 233.8 409 235.2C400.8 238 389.7 241.8 377.3 246.1L377 246.2L376.9 246C376.8 245.8 376.7 245.6 376.6 245.4C370 234 364 223.6 359.6 216C357.5 212.3 355.7 209.2 354.5 207.1C353.9 206.1 353.5 205.3 353.1 204.7C352.8 204.1 352.6 203.8 352.7 203.8C352.7 203.8 352.9 204.1 353.2 204.6C353.6 205.2 354.1 206 354.7 207C356 209 357.8 212 360 215.7C364.4 223.2 370.5 233.6 377.2 245C377.3 245.2 377.4 245.4 377.5 245.6L377.1 245.5C389.5 241.3 400.7 237.6 408.8 234.8C412.8 233.5 416.1 232.4 418.4 231.6C419.5 231.3 420.4 231 421 230.8C421.7 230.6 422.1 230.5 422.1 230.5Z" fill="#263238"/>
<path d="M334.7 250.4C334.6 250.2 342.3 245.8 351.9 240.6C361.5 235.3 369.3 231.2 369.4 231.4C369.5 231.6 361.8 236 352.2 241.2C342.6 246.5 334.7 250.6 334.7 250.4Z" fill="#263238"/>
<path d="M392.6 239.7C392.8 239.6 395.5 248 398.6 258.4C401.7 268.8 404.1 277.2 404 277.3C403.8 277.4 401.1 269 398 258.6C394.8 248.2 392.4 239.8 392.6 239.7Z" fill="#263238"/>
<path d="M331.3 374C331.4 374 331.5 374.6 331.5 375.3C331.4 376 331.3 376.5 331.1 376.5C331 376.5 330.9 375.9 330.9 375.2C331 374.5 331.2 374 331.3 374Z" fill="#263238"/>
<path d="M331.6 363.8C331.7 363.8 331.9 364.9 331.9 366.3C331.9 367.7 331.8 368.8 331.6 368.8C331.5 368.8 331.3 367.7 331.3 366.3C331.3 365 331.4 363.8 331.6 363.8Z" fill="#263238"/>
<path d="M330.9 353.7C331 353.7 331.3 354.8 331.4 356.2C331.5 357.6 331.5 358.7 331.4 358.8C331.3 358.8 331 357.7 330.9 356.3C330.7 354.8 330.7 353.7 330.9 353.7Z" fill="#263238"/>
<path d="M329.2 343.6C329.3 343.6 329.7 344.7 329.9 346C330.2 347.4 330.3 348.5 330.1 348.5C330 348.5 329.6 347.4 329.4 346.1C329.2 344.8 329.1 343.7 329.2 343.6Z" fill="#263238"/>
<path d="M326.4 333.8C326.5 333.8 327 334.8 327.4 336.2C327.8 337.5 328.1 338.7 327.9 338.7C327.8 338.7 327.3 337.7 326.9 336.3C326.5 335 326.3 333.9 326.4 333.8Z" fill="#263238"/>
<path d="M322.5 324.4C322.6 324.3 323.2 325.3 323.8 326.6C324.4 327.9 324.7 329 324.6 329C324.5 329.1 323.9 328.1 323.3 326.8C322.8 325.6 322.4 324.5 322.5 324.4Z" fill="#263238"/>
<path d="M317.5 315.6C317.6 315.5 318.3 316.4 319.1 317.6C319.8 318.8 320.3 319.9 320.2 319.9C320.1 320 319.4 319.1 318.7 317.8C317.9 316.7 317.4 315.7 317.5 315.6Z" fill="#263238"/>
<path d="M311.3 307.6C311.4 307.5 312.2 308.3 313.1 309.4C314 310.5 314.6 311.4 314.5 311.5C314.4 311.6 313.6 310.8 312.7 309.7C311.8 308.6 311.2 307.7 311.3 307.6Z" fill="#263238"/>
<path d="M304 300.5C304.1 300.4 305 301.1 306.1 302C307.1 302.9 307.9 303.8 307.8 303.9C307.7 304 306.8 303.3 305.7 302.4C304.6 301.5 303.9 300.6 304 300.5Z" fill="#263238"/>
<path d="M295.7 294.6C295.8 294.5 296.8 295 298 295.8C299.2 296.6 300.1 297.3 300 297.4C299.9 297.5 298.9 297 297.7 296.2C296.5 295.4 295.6 294.7 295.7 294.6Z" fill="#263238"/>
<path d="M286.6 289.9C286.7 289.8 287.7 290.1 289 290.7C290.3 291.3 291.3 291.9 291.2 292C291.1 292.1 290.1 291.8 288.8 291.2C287.6 290.7 286.6 290.1 286.6 289.9Z" fill="#263238"/>
<path d="M277 286.9C277 286.8 278.2 286.9 279.5 287.3C280.9 287.7 281.9 288.1 281.9 288.2C281.9 288.3 280.7 288.2 279.4 287.8C278 287.4 276.9 287 277 286.9Z" fill="#263238"/>
<path d="M266.9 285.6C266.9 285.5 268.1 285.4 269.5 285.5C270.9 285.6 272 285.9 272 286C272 286.1 270.8 286.1 269.4 286C268 285.9 266.9 285.7 266.9 285.6Z" fill="#263238"/>
<path d="M256.7 286.3C256.7 286.2 257.8 285.9 259.2 285.7C260.6 285.5 261.7 285.5 261.8 285.7C261.8 285.8 260.7 286.1 259.3 286.3C257.9 286.4 256.8 286.4 256.7 286.3Z" fill="#263238"/>
<path d="M246.9 288.9C246.8 288.8 247.9 288.3 249.2 287.9C250.5 287.5 251.7 287.2 251.7 287.4C251.7 287.5 250.7 288 249.4 288.4C248.1 288.8 247 289 246.9 288.9Z" fill="#263238"/>
<path d="M237.8 293.3C237.7 293.2 238.7 292.5 239.9 291.9C241.1 291.2 242.2 290.8 242.3 290.9C242.4 291 241.4 291.7 240.2 292.3C238.9 293 237.8 293.4 237.8 293.3Z" fill="#263238"/>
<path d="M229.6 299.4C229.5 299.3 230.3 298.5 231.4 297.6C232.5 296.7 233.4 296.1 233.5 296.2C233.6 296.3 232.8 297.1 231.7 298C230.7 298.9 229.7 299.5 229.6 299.4Z" fill="#263238"/>
<path d="M223 307.1C222.9 307 223.4 306 224.3 304.9C225.2 303.8 226 303 226.1 303.1C226.2 303.2 225.5 304.1 224.7 305.2C223.8 306.3 223.1 307.2 223 307.1Z" fill="#263238"/>
<path d="M219.3 313.7C219.2 313.6 219.3 313.1 219.6 312.5C219.9 311.9 220.3 311.4 220.4 311.5C220.5 311.6 220.4 312.1 220.1 312.7C219.8 313.3 219.4 313.8 219.3 313.7Z" fill="#263238"/>
<path d="M155.7 372.7C155.7 372.6 156.2 372.4 156.9 372.3C157.6 372.2 158.1 372.3 158.2 372.4C158.2 372.5 157.7 372.7 157 372.8C156.3 372.9 155.7 372.9 155.7 372.7Z" fill="#263238"/>
<path d="M145.8 371.6C145.8 371.5 146.9 371.7 148.3 372C149.6 372.3 150.7 372.5 150.7 372.7C150.7 372.8 149.5 372.8 148.2 372.6C146.8 372.2 145.8 371.7 145.8 371.6Z" fill="#263238"/>
<path d="M136.9 367.2C137 367.1 138 367.6 139.1 368.3C140.3 369 141.2 369.6 141.2 369.7C141.1 369.8 140.1 369.4 138.9 368.7C137.6 368 136.8 367.3 136.9 367.2Z" fill="#263238"/>
<path d="M129.4 360.5C129.5 360.4 130.3 361.2 131.3 362.1C132.3 363.1 133 363.9 132.9 364C132.8 364.1 131.9 363.4 130.9 362.5C130 361.5 129.3 360.6 129.4 360.5Z" fill="#263238"/>
<path d="M123.6 352.4C123.7 352.3 124.4 353.2 125.2 354.4C126 355.6 126.5 356.6 126.4 356.6C126.3 356.7 125.6 355.8 124.8 354.6C123.9 353.5 123.4 352.5 123.6 352.4Z" fill="#263238"/>
<path d="M119.2 343.3C119.3 343.3 119.9 344.2 120.4 345.5C120.9 346.8 121.3 347.8 121.1 347.9C121 348 120.4 347 119.9 345.7C119.4 344.5 119.1 343.4 119.2 343.3Z" fill="#263238"/>
<path d="M116.4 333.8C116.5 333.8 116.9 334.8 117.3 336.2C117.7 337.5 117.8 338.6 117.7 338.7C117.6 338.7 117.2 337.7 116.8 336.3C116.4 334.9 116.2 333.8 116.4 333.8Z" fill="#263238"/>
<path d="M114.6 323.9C114.7 323.9 115 325 115.2 326.3C115.4 327.7 115.5 328.8 115.3 328.8C115.2 328.8 114.9 327.7 114.7 326.4C114.5 325 114.5 323.9 114.6 323.9Z" fill="#263238"/>
<path d="M113.7 313.9C113.8 313.9 114.1 315 114.2 316.4C114.3 317.8 114.3 318.9 114.1 318.9C114 318.9 113.8 317.8 113.6 316.4C113.5 315 113.5 313.9 113.7 313.9Z" fill="#263238"/>
<path d="M113.2 306.4C113.3 306.4 113.5 306.9 113.5 307.6C113.5 308.3 113.4 308.9 113.3 308.9C113.2 308.9 113 308.4 113 307.7C113 307 113.1 306.4 113.2 306.4Z" fill="#263238"/>
<path d="M150.834 245.775L67.7258 249.692L70.3672 305.73L153.476 301.813L150.834 245.775Z" fill="#18A753"/>
<path d="M70.3998 305.8L67.7998 249.7L151 245.8L153.6 301.9L70.3998 305.8ZM67.7998 249.7L70.3998 305.7L153.5 301.8L150.9 245.8L67.7998 249.7Z" fill="#263238"/>
<path d="M151.2 246.4C151.2 246.4 151 246.7 150.5 247.2C149.9 247.7 149.2 248.4 148.3 249.3C146.3 251.2 143.5 253.8 140 257.1C132.9 263.7 123.2 272.6 112.5 282.6L112.3 282.8L112 282.6C111.8 282.5 111.6 282.3 111.4 282.2C99.4 273.5 88.6 265.6 80.7 259.8C76.8 256.9 73.7 254.6 71.4 252.9C70.4 252.1 69.5 251.5 68.9 251C68.3 250.6 68 250.3 68.1 250.3C68.2 250.3 68.4 250.5 69 250.9C69.6 251.3 70.5 251.9 71.6 252.7C73.9 254.3 77.1 256.6 81 259.4C89 265.1 99.8 273 111.9 281.6C112.1 281.8 112.3 281.9 112.5 282H112C122.8 272.1 132.6 263.2 139.7 256.7C143.2 253.5 146.1 251 148.1 249.1C149.1 248.3 149.8 247.6 150.4 247.1C150.9 246.6 151.2 246.4 151.2 246.4Z" fill="#263238"/>
<path d="M70.7 306.4C70.5 306.3 76.4 298.3 83.9 288.6C91.3 278.9 97.5 271.1 97.7 271.2C97.9 271.3 92 279.3 84.5 289C77 298.7 70.8 306.5 70.7 306.4Z" fill="#263238"/>
<path d="M125.2 269.2C125.4 269.1 131.9 276.4 139.8 285.6C147.7 294.8 154 302.3 153.8 302.5C153.6 302.6 147.1 295.3 139.2 286.1C131.3 276.9 125 269.4 125.2 269.2Z" fill="#263238"/>
<path d="M216.6 444.9C216.8 443.8 216 442.7 214.9 442.4L212.7 442.6L204.7 439.8C203.2 439.4 201.7 440.5 201.7 442C201.7 444.3 200.7 450.5 198.9 448.6L198.8 448.5C196.2 445.6 193.1 444.2 192 444.3C190.9 444.5 190.6 445.9 191.4 446.7C191.5 446.8 191.7 447 191.9 447C192 447 192.1 447.1 192.2 447.1C193.2 447.7 194.4 448.9 195.2 449.8C196 450.7 196.7 451.7 197.2 452.8C197.7 454 198.2 455.1 198.5 456L198.6 463.3L195.4 497.6C195.4 497.6 174.3 475.4 174.8 475.2L176 509.7L188.8 520.3C194.2 524.8 202 525.2 207.9 521.4C212.5 518.4 215.3 513.2 215.2 507.7L214.5 463.4L215 457.6L216.6 444.9Z" fill="#FFBE9D"/>
<path d="M98.0999 493.6L74.9999 546.4L56.6999 584.5L43.0999 589.1C43.0999 589.1 32.3999 592.2 32.3999 594.4C32.3999 596.6 35.1999 596.1 35.1999 596.1C35.6999 599.4 40.2999 597.5 43.4999 596C46.6999 594.5 53.8999 594.2 53.8999 594.2C51.8999 595.7 52.5999 598.1 53.6999 598.9C54.7999 599.7 56.7999 598.7 58.1999 597.3C59.4999 595.9 62.9999 595.2 66.7999 593.8C70.5999 592.4 71.2999 587.3 71.2999 587.3L117.5 509.4L98.0999 493.6Z" fill="#FFBE9D"/>
<path d="M174.7 512.8L180.5 520.5L193.1 492.6C193.1 492.6 180.9 477.7 176.4 471.4C172 465.2 168.6 464.1 168.6 464.1C168.6 464.1 160.5 461.7 156.4 461.8L136.3 463L115.9 471.9C110.9 474.1 106.6 477.7 103.6 482.2L84.5999 513L111.8 524.6L120.9 576.7C122.6 584.5 124.2 591.9 131.4 595.5L181.8 547.1L175.9 537.8L174.7 512.8Z" fill="#18A753"/>
<path d="M126.6 503.2C126.7 503.3 123.6 508.1 119.7 514C115.8 519.9 112.5 524.6 112.3 524.5C112.2 524.4 115.3 519.6 119.2 513.7C123.2 507.8 126.5 503.1 126.6 503.2Z" fill="#263238"/>
<path d="M168.8 552.6C168.8 552.6 168.3 552.9 167.5 553.4C166.6 553.9 165.3 554.6 163.8 555.4C160.6 557.1 156.2 559.3 151.2 561.6C146.3 563.9 141.7 565.9 138.4 567.3C136.8 568 135.4 568.6 134.5 568.9C133.6 569.3 133 569.5 133 569.4C133 569.4 133.5 569.1 134.4 568.7C135.4 568.2 136.7 567.6 138.3 566.9C141.6 565.4 146.1 563.4 151 561C155.9 558.7 160.4 556.5 163.6 554.9C165.1 554.2 166.4 553.5 167.4 553.1C168.3 552.8 168.8 552.6 168.8 552.6Z" fill="#263238"/>
<path d="M125 491.9C124.9 491.9 124.3 491.1 123.2 489.7C122.1 488.3 120.7 486.4 118.7 484.6C116.7 482.8 114.6 481.7 112.9 481.2C111.2 480.7 110.1 480.7 110.2 480.6C110.2 480.6 110.5 480.5 111 480.5C111.5 480.5 112.2 480.6 113.1 480.8C114.8 481.2 117.1 482.3 119.1 484.2C121.1 486 122.5 488 123.5 489.5C124.5 490.9 125 491.9 125 491.9Z" fill="#263238"/>
<path d="M166.4 517.3C166.4 517.3 166.4 517.5 166.4 517.9C166.4 518.3 166.4 518.8 166.3 519.5C166.2 520.9 166 522.9 165.5 525.3C164.5 530.1 162 536.7 157.3 542.6C152.6 548.5 146.7 552.3 142.2 554.3C140 555.3 138.1 556 136.7 556.3C136 556.5 135.5 556.6 135.2 556.7C134.8 556.8 134.7 556.8 134.7 556.8C134.7 556.8 135.4 556.5 136.7 556.1C138 555.7 139.9 555 142.1 553.9C146.5 551.8 152.3 548 156.9 542.2C161.6 536.4 164.1 529.9 165.1 525.2C165.7 522.8 165.9 520.9 166.1 519.5C166.3 518.1 166.4 517.3 166.4 517.3Z" fill="#263238"/>
<g opacity="0.3">
<path opacity="0.3" d="M115.3 544.7C115.2 544.2 121.8 510.3 121.8 510.3L111.9 525.1" fill="black"/>
</g>
<path d="M173.4 480.3C173.4 480.3 173.4 480.5 173.5 480.9C173.5 481.3 173.6 481.9 173.6 482.6C173.7 484.1 173.8 486.2 173.9 488.8C174.2 494.1 174.5 501.2 174.9 509.1C175.3 517 175.6 524.2 175.7 529.4C175.8 532 175.8 534.1 175.8 535.6C175.8 536.3 175.8 536.8 175.8 537.3C175.8 537.7 175.8 537.9 175.8 537.9C175.8 537.9 175.8 537.7 175.7 537.3C175.7 536.9 175.6 536.3 175.6 535.6C175.5 534.1 175.4 532 175.3 529.4C175 524.1 174.7 517 174.3 509.1C173.9 501.2 173.6 494 173.5 488.8C173.4 486.2 173.4 484.1 173.4 482.6C173.4 481.9 173.4 481.4 173.4 480.9C173.4 480.5 173.4 480.3 173.4 480.3Z" fill="#263238"/>
<g opacity="0.2">
<g opacity="0.2">
<path opacity="0.2" d="M133.2 569.5C131.6 568.2 132 565.4 133.4 563.9C134.8 562.4 136.9 561.7 138.9 561C148.5 557.9 158.1 553.5 164.4 545.7C165.3 544.6 166.1 543.5 167.2 542.7C168.3 541.9 169.9 541.5 171.1 542.2C173 543.2 173.1 546 172.3 548C171.3 550.5 169.4 552.6 167 553.8" fill="black"/>
</g>
</g>
<g opacity="0.2">
<path opacity="0.2" d="M173.6 486.3L179.2 518.7L174.9 513L173.6 486.3Z" fill="black"/>
</g>
<path d="M226.8 571.5L217.3 603.9L257.6 615.9C258.5 612 240 598.1 240 598.1L246.9 577.6L226.8 571.5Z" fill="#18A753"/>
<g opacity="0.6">
<g opacity="0.6">
<g opacity="0.6">
<g opacity="0.6">
<path opacity="0.6" d="M228.1 592.6C227.3 592.6 226.5 593.3 226.4 594.1C226.3 594.9 227.1 595.8 227.9 595.8C228.7 595.8 229.7 595 229.7 594.2C229.7 593.4 228.8 592.4 227.9 592.6" fill="white"/>
</g>
</g>
</g>
</g>
<g opacity="0.6">
<g opacity="0.6">
<g opacity="0.6">
<path opacity="0.6" d="M217.4 603.9L218.5 600.7L256.7 613.4C256.7 613.4 258.3 614.7 257.7 615.9L217.4 603.9Z" fill="white"/>
</g>
</g>
</g>
<path d="M240.7 598C240.6 598.2 239.6 598 238.5 598.3C237.3 598.6 236.6 599.3 236.4 599.2C236.2 599.1 236.9 598 238.3 597.6C239.7 597.3 240.8 597.8 240.7 598Z" fill="#263238"/>
<path d="M244.4 601C244.4 601.2 243.4 601.3 242.5 601.9C241.6 602.5 241.1 603.4 240.9 603.3C240.7 603.3 240.9 602.1 242.1 601.3C243.3 600.6 244.5 600.8 244.4 601Z" fill="#263238"/>
<path d="M245.3 606.8C245.1 606.8 245.1 605.7 246 604.8C246.8 603.9 247.9 603.7 247.9 603.9C248 604.1 247.2 604.5 246.5 605.3C245.8 606 245.5 606.8 245.3 606.8Z" fill="#263238"/>
<path d="M241.8 593.2C241.7 593.4 240.8 592.8 239.7 592.6C238.6 592.3 237.6 592.4 237.5 592.2C237.4 592 238.5 591.5 239.8 591.9C241.2 592.1 241.9 593 241.8 593.2Z" fill="#263238"/>
<path d="M242.3 588.1C242.3 588.2 241.5 588.1 240.3 587.5C239.7 587.2 239 586.8 238.4 586.2C238.1 585.9 237.7 585.6 237.4 585.2C237.3 585 237.1 584.8 236.9 584.5C236.7 584.2 236.8 583.7 237.1 583.4C237.4 583.2 237.8 583.1 238.1 583.2C238.4 583.3 238.6 583.4 238.8 583.5C239.2 583.7 239.6 584 239.9 584.3C240.6 584.9 241.1 585.5 241.4 586.1C242.1 587.2 242.2 588.1 242.1 588.1C242 588.1 241.7 587.4 241 586.4C240.6 585.9 240.1 585.4 239.5 584.9C239.2 584.6 238.8 584.4 238.4 584.2C238 584 237.6 583.9 237.5 584C237.4 584.1 237.4 584.1 237.5 584.2C237.6 584.3 237.7 584.5 237.8 584.7C238.1 585 238.4 585.3 238.7 585.6C239.3 586.2 239.9 586.6 240.4 586.9C241.5 587.7 242.3 588 242.3 588.1Z" fill="#263238"/>
<path d="M241.9 588.3C241.8 588.3 241.6 587.5 241.9 586.2C242.1 585.6 242.3 584.8 242.8 584.1C243 583.7 243.3 583.4 243.7 583C244.1 582.7 244.5 582.2 245.3 582.4C245.7 582.5 245.9 582.9 246 583.2C246.1 583.5 246 583.8 246 584C245.9 584.5 245.8 585 245.6 585.4C245.2 586.2 244.7 586.8 244.1 587.2C243 588 242.1 588 242.1 587.9C242.1 587.8 242.9 587.6 243.8 586.8C244.2 586.4 244.7 585.8 245 585.1C245.2 584.7 245.3 584.3 245.3 583.9C245.4 583.5 245.3 583.1 245.1 583.1C244.9 583 244.5 583.3 244.2 583.6C243.9 583.9 243.6 584.2 243.4 584.5C242.9 585.2 242.6 585.8 242.4 586.4C242 587.5 242 588.3 241.9 588.3Z" fill="#263238"/>
<path d="M268.2 523.2C269.2 530.7 266.7 539.1 264 546.2L246.3 587.7L226.8 584.7C226.8 584.7 222.7 589.2 217.5 591C215.2 591.8 207.5 593.3 201.2 588.7C201.2 588.7 192.3 601.1 178.2 604.9C164.1 608.7 142.9 610.7 132.6 594.3L181.6 547.1C182.6 547.3 223.8 519.5 246.1 513.2C246 513.2 266.3 509.5 268.2 523.2Z" fill="#263238"/>
<path d="M225.3 584.5C225.3 584.5 225.4 584.4 225.6 584.3C225.8 584.2 226.1 584.1 226.4 583.9C227.1 583.5 228.1 583 229.5 582.3C230.8 581.6 232.4 580.6 234.2 579.4C235.9 578.2 237.8 576.6 239.5 574.5C241.2 572.4 242.4 569.7 242.9 566.6C243.4 563.5 243.2 560.1 242.5 556.6C241.7 553.2 240.1 549.6 237.1 547.2C234.1 544.8 230.1 543.6 226.1 543.3C224.1 543.1 222 543.2 220 543.4C218 543.6 216.1 544 214.2 544.4C210.4 545.3 206.9 546.6 203.7 548C197.2 550.9 191.5 553.9 186.5 556.1C181.5 558.3 177.3 559.6 174.4 560.2C173.7 560.4 173 560.5 172.4 560.6C171.8 560.7 171.3 560.8 170.9 560.8C170.5 560.8 170.2 560.9 170 560.9C169.8 560.9 169.7 560.9 169.7 560.9C169.7 560.9 169.8 560.9 170 560.8C170.2 560.8 170.5 560.7 170.9 560.7C171.3 560.6 171.8 560.6 172.3 560.5C172.9 560.4 173.5 560.3 174.3 560.1C177.2 559.4 181.4 558.1 186.3 555.9C191.2 553.7 196.9 550.6 203.4 547.7C206.7 546.3 210.2 544.9 214 544C215.9 543.5 217.9 543.2 219.9 543C221.9 542.8 224 542.8 226 542.9C230.1 543.2 234.2 544.5 237.3 546.9C238.8 548.1 240.1 549.7 241 551.4C241.9 553.1 242.5 554.9 242.9 556.6C243.7 560.1 243.8 563.6 243.3 566.8C242.8 570 241.5 572.8 239.7 574.9C238 577 236.1 578.6 234.3 579.8C232.5 581 230.9 581.9 229.6 582.6C228.3 583.3 227.2 583.8 226.5 584.2C226.2 584.4 225.9 584.5 225.7 584.6C225.4 584.5 225.3 584.5 225.3 584.5Z" fill="#455A64"/>
<path d="M237.5 530C237.6 530.1 235.8 533.1 233.4 536.7C231 540.3 229 543.2 228.9 543.1C228.8 543 230.6 540 233 536.4C235.4 532.8 237.4 530 237.5 530Z" fill="#455A64"/>
<path d="M223.4 581.2C223.4 581.3 222 581.6 219.8 582.1C217.6 582.6 214.6 583.5 211.3 584.6C208 585.7 205.2 587 203.1 587.9C201 588.8 199.8 589.5 199.8 589.4C199.8 589.4 200.1 589.2 200.6 588.9C201.1 588.6 202 588.1 203 587.6C205 586.6 207.9 585.3 211.2 584.1C214.5 583 217.5 582.2 219.7 581.7C220.8 581.5 221.7 581.3 222.3 581.2C223.1 581.2 223.4 581.2 223.4 581.2Z" fill="#455A64"/>
<path d="M245.9 585C245.8 585 245.6 584.1 244.7 582.9C243.9 581.7 242.4 580.2 240.2 579.5C238.1 578.8 236 579.1 234.6 579.6C233.2 580.1 232.5 580.7 232.4 580.6C232.4 580.6 232.5 580.4 232.9 580.1C233.2 579.8 233.8 579.5 234.5 579.2C235.9 578.6 238.1 578.2 240.4 578.9C242.7 579.6 244.2 581.3 245 582.6C245.4 583.3 245.6 583.8 245.7 584.3C245.9 584.7 246 585 245.9 585Z" fill="#455A64"/>
<path d="M161.3 569.5C161.3 569.5 161.4 569.8 161.6 570.4C161.7 571 161.8 571.9 161.8 573C161.8 575.2 161.3 578.4 159.5 581.4C157.7 584.4 154.9 586.2 152.8 586.8C151.7 587.2 150.8 587.3 150.2 587.3C149.6 587.3 149.2 587.3 149.2 587.3C149.2 587.2 150.6 587.3 152.6 586.5C154.6 585.8 157.2 584 159 581.1C160.8 578.3 161.3 575.2 161.4 573C161.5 570.8 161.2 569.5 161.3 569.5Z" fill="#455A64"/>
<path d="M139.3 591.9C139.2 592 138.7 591.5 138.2 590.9C137.7 590.2 137.5 589.6 137.6 589.5C137.7 589.4 138.2 589.9 138.6 590.6C139.1 591.2 139.4 591.8 139.3 591.9Z" fill="#455A64"/>
<path d="M143.4 596.3C143.3 596.4 142.7 596 142.1 595.4C141.5 594.8 141.1 594.3 141.2 594.2C141.3 594.1 141.9 594.5 142.5 595.1C143.1 595.6 143.5 596.1 143.4 596.3Z" fill="#455A64"/>
<path d="M148.3 599.8C148.2 599.9 147.6 599.7 146.9 599.2C146.2 598.7 145.7 598.3 145.8 598.2C145.9 598.1 146.5 598.4 147.2 598.8C147.8 599.2 148.3 599.6 148.3 599.8Z" fill="#455A64"/>
<path d="M153.8 602.1C153.8 602.2 153.1 602.1 152.3 601.8C151.5 601.5 150.9 601.2 151 601C151.1 600.8 151.7 601 152.5 601.3C153.2 601.7 153.8 602 153.8 602.1Z" fill="#455A64"/>
<path d="M159.7 603.1C159.7 603.2 159 603.3 158.2 603.2C157.4 603.1 156.7 602.9 156.7 602.8C156.7 602.7 157.4 602.6 158.2 602.7C159 602.7 159.7 602.9 159.7 603.1Z" fill="#455A64"/>
<path d="M165.7 602.7C165.7 602.8 165.1 603 164.2 603.1C163.8 603.1 163.3 603.1 163.1 603.1C162.9 603.1 162.7 603 162.7 603C162.7 602.9 162.8 602.9 163.1 602.8C163.4 602.7 163.8 602.7 164.2 602.6C165 602.5 165.6 602.6 165.7 602.7Z" fill="#455A64"/>
<path d="M171.5 601.7C171.5 601.8 170.9 602.1 170.1 602.3C169.3 602.5 168.6 602.5 168.6 602.4C168.6 602.3 169.2 602 170 601.8C170.8 601.6 171.5 601.5 171.5 601.7Z" fill="#455A64"/>
<path d="M177.3 599.9C177.3 600 176.8 600.4 176 600.6C175.2 600.9 174.5 601 174.5 600.8C174.5 600.7 175.1 600.3 175.8 600.1C176.6 599.9 177.2 599.8 177.3 599.9Z" fill="#455A64"/>
<path d="M182.8 597.6C182.9 597.7 182.3 598.1 181.5 598.5C180.7 598.8 180.1 599 180 598.9C179.9 598.8 180.5 598.4 181.3 598C182.1 597.6 182.7 597.5 182.8 597.6Z" fill="#455A64"/>
<path d="M188 594.7C188.1 594.8 187.6 595.3 186.8 595.7C186.1 596.1 185.4 596.4 185.4 596.2C185.3 596.1 185.9 595.6 186.6 595.2C187.3 594.8 188 594.6 188 594.7Z" fill="#455A64"/>
<path d="M193 591.3C193.1 591.4 192.6 591.9 191.9 592.4C191.2 592.9 190.6 593.2 190.5 593.1C190.4 593 190.9 592.5 191.6 592C192.3 591.5 192.9 591.2 193 591.3Z" fill="#455A64"/>
<path d="M197.6 587.5C197.7 587.6 197.3 588.1 196.6 588.7C196 589.2 195.4 589.6 195.3 589.5C195.2 589.4 195.6 588.9 196.3 588.3C196.9 587.7 197.5 587.4 197.6 587.5Z" fill="#455A64"/>
<path d="M202 583.4C202.1 583.5 201.7 584.1 201.1 584.6C200.5 585.2 199.9 585.5 199.8 585.4C199.7 585.3 200.1 584.8 200.7 584.2C201.3 583.6 201.9 583.3 202 583.4Z" fill="#455A64"/>
<path d="M206.7 579.7C206.8 579.8 206.3 580.3 205.6 580.8C204.9 581.3 204.3 581.6 204.2 581.5C204.1 581.4 204.6 580.9 205.3 580.4C206 579.9 206.6 579.6 206.7 579.7Z" fill="#455A64"/>
<path d="M212 576.8C212.1 576.9 211.5 577.3 210.8 577.7C210.1 578.1 209.4 578.3 209.3 578.1C209.2 578 209.8 577.6 210.5 577.2C211.3 576.9 211.9 576.7 212 576.8Z" fill="#455A64"/>
<path d="M217.7 575C217.7 575.1 217.1 575.4 216.3 575.6C215.5 575.8 214.8 575.8 214.8 575.7C214.8 575.6 215.4 575.3 216.2 575.1C217 574.9 217.7 574.9 217.7 575Z" fill="#455A64"/>
<path d="M223.7 574.7C223.7 574.8 223 574.9 222.2 574.9C221.4 574.9 220.7 574.8 220.7 574.7C220.7 574.6 221.4 574.4 222.2 574.4C223 574.4 223.7 574.6 223.7 574.7Z" fill="#455A64"/>
<path d="M229.5 576.2C229.4 576.3 228.8 576.1 228 575.9C227.2 575.6 226.6 575.4 226.6 575.2C226.6 575.1 227.3 575.1 228.1 575.4C229 575.7 229.5 576.1 229.5 576.2Z" fill="#455A64"/>
<path d="M228.2 580.6C228.1 580.5 228.6 580 229.1 579.4C229.6 578.8 230.1 578.3 230.2 578.4C230.3 578.5 230.1 579.1 229.5 579.8C228.9 580.4 228.3 580.7 228.2 580.6Z" fill="#455A64"/>
<path d="M222.9 583.3C222.9 583.2 223.4 582.8 224.2 582.5C225 582.2 225.6 582 225.7 582.2C225.8 582.3 225.2 582.7 224.4 583C223.6 583.3 222.9 583.5 222.9 583.3Z" fill="#455A64"/>
<path d="M217.2 585.2C217.2 585.1 217.8 584.7 218.5 584.5C219.3 584.2 220 584.1 220 584.3C220 584.4 219.4 584.8 218.7 585C217.9 585.2 217.2 585.3 217.2 585.2Z" fill="#455A64"/>
<path d="M211.6 587.3C211.5 587.2 212.1 586.8 212.9 586.5C213.7 586.2 214.3 586.1 214.4 586.2C214.5 586.3 213.9 586.7 213.1 587C212.3 587.3 211.6 587.4 211.6 587.3Z" fill="#455A64"/>
<path d="M206 589.6C205.9 589.5 206.5 589.1 207.3 588.8C208.1 588.5 208.7 588.3 208.8 588.4C208.9 588.5 208.3 588.9 207.5 589.2C206.8 589.6 206.1 589.8 206 589.6Z" fill="#455A64"/>
<path d="M194.9 418.2C194.9 418.2 201.4 416.2 210.1 406.5C218.8 396.8 222.3 384.5 223.4 384.5C224.5 384.5 229.4 381.8 240.4 401.8C251.4 421.8 248.1 426.9 246.2 427C244.3 427.1 231.2 424.5 223.2 426C215.2 427.5 205.2 432.5 205.2 432.5L194.9 418.2Z" fill="#455A64"/>
<path d="M181.6 430.5L184.2 434.6L185.4 436.5C187 439 190.3 439.9 192.9 438.4L206.8 432.4L197.1 414.1L183.4 422.7C180.7 424.4 179.9 427.9 181.6 430.5Z" fill="#263238"/>
<path d="M190.3 436.8L195.5 445.4L197.7 444.6L213.4 455.6L216.9 447.2C216.9 447.2 207.9 444.1 206 441.1C204.1 438.1 206 437.2 206 437.2L201.5 432.8L190.3 436.8Z" fill="#263238"/>
<path d="M239.7 402.2C245.6 413 248.4 422.9 246.1 424.2C243.7 425.5 237 417.8 231.1 406.9C225.2 396.1 222.4 386.2 224.7 384.9C227.1 383.6 233.8 391.4 239.7 402.2Z" fill="#263238"/>
<path d="M180.8 436.8L184.6 435.3L181.9 430.9L179.1 433L180.8 436.8Z" fill="#455A64"/>
<path d="M203.1 434.2L193.3 441.6L191.8 439.2L203.1 434.2Z" fill="#455A64"/>
<path d="M181.9 430.9L184.6 435.3L183.8 435.6L181.5 431.2L181.9 430.9Z" fill="#455A64"/>
<path d="M184.6 431.8C184.7 431.9 186.5 431 188.8 429.8C191 428.6 192.8 427.5 192.7 427.4C192.6 427.3 190.8 428.2 188.5 429.4C186.3 430.6 184.5 431.7 184.6 431.8Z" fill="#455A64"/>
<path d="M183.2 429.2C183.3 429.3 185 428.5 187 427.3C189 426.1 190.6 425.1 190.5 424.9C190.4 424.8 188.7 425.6 186.7 426.8C184.7 428 183.1 429.1 183.2 429.2Z" fill="#455A64"/>
<path d="M186.3 434.5C186.3 434.6 186.8 434.4 187.5 434.1C187.9 434 188.3 433.8 188.7 433.6C189.2 433.4 189.6 433.1 190.2 432.8C192.2 431.7 193.8 430.6 193.7 430.5C193.6 430.4 192 431.3 189.9 432.4C189.4 432.7 188.9 433 188.5 433.2C188.1 433.4 187.7 433.6 187.3 433.8C186.7 434.2 186.3 434.5 186.3 434.5Z" fill="#455A64"/>
<path d="M229.2 400.5C229.2 400.5 234.7 396.5 238.5 404.1C242.2 411.7 236.3 413.4 236.3 413.4C233.5 409.7 231.1 405.4 229.2 400.5Z" fill="#455A64"/>
<path d="M222.4 391.6C222.4 391.6 222.5 392.1 222.7 393.1C223 394 223.3 395.4 223.8 397.1C224.1 397.9 224.4 398.8 224.8 399.8C225 400.3 225.2 400.8 225.4 401.3C225.5 401.6 225.6 401.8 225.7 402.1C225.8 402.4 225.9 402.6 226.1 402.9C226.6 403.9 227.1 405 227.7 406.2C227.8 406.5 228 406.8 228.1 407.1C228.2 407.4 228.4 407.7 228.6 407.9C228.9 408.5 229.3 409 229.6 409.6C229.9 410.2 230.3 410.7 230.6 411.3C230.8 411.6 230.9 411.9 231.1 412.1C231.3 412.4 231.5 412.6 231.6 412.9C232.3 413.9 233 414.9 233.7 415.9C233.9 416.1 234 416.4 234.2 416.6C234.4 416.8 234.6 417 234.7 417.2C235 417.6 235.4 418 235.7 418.4C236.4 419.2 237 419.9 237.5 420.6C238.7 421.9 239.7 422.8 240.4 423.5C241.1 424.2 241.5 424.5 241.5 424.5C241.5 424.5 241.2 424.1 240.5 423.3C239.8 422.6 238.9 421.5 237.7 420.3C237.2 419.6 236.6 418.9 235.9 418.1C235.6 417.7 235.3 417.3 234.9 416.9C234.7 416.7 234.6 416.5 234.4 416.3C234.2 416.1 234.1 415.8 233.9 415.6C233.3 414.7 232.6 413.7 231.9 412.6C231.7 412.3 231.5 412.1 231.4 411.8C231.2 411.5 231.1 411.3 230.9 411C230.6 410.4 230.2 409.9 229.9 409.3C229.6 408.7 229.2 408.2 228.9 407.6C228.7 407.3 228.6 407.1 228.4 406.8C228.3 406.5 228.1 406.2 228 406C227.5 404.9 226.9 403.8 226.4 402.8C226.3 402.5 226.1 402.3 226 402C225.9 401.7 225.8 401.5 225.7 401.2C225.5 400.7 225.3 400.2 225.1 399.7C224.7 398.8 224.4 397.9 224 397.1C223.5 395.5 223 394.1 222.7 393.2C222.6 392.1 222.4 391.6 222.4 391.6Z" fill="#263238"/>
<path d="M207.5 437.1C208.4 437.4 208.9 438.3 208.7 439.2C208.3 440.9 207.6 443.6 207 445.2C206.8 445.7 206.6 446.3 206.3 446.7C205.9 447.1 205.4 447.4 204.8 447.3C204.2 447.2 203.8 446.6 203.7 446C203.6 445.4 203.7 444.8 203.8 444.3C204.2 442.7 204.8 440.3 205.4 438.4C205.7 437.4 206.6 436.9 207.5 437.1Z" fill="#FFBE9D"/>
<path d="M210.2 439.9C211.1 440.2 211.6 441.1 211.4 442C211 443.7 210.3 446.4 209.7 448C209.5 448.5 209.3 449.1 209 449.5C208.6 449.9 208.1 450.2 207.5 450.1C206.9 450 206.5 449.4 206.4 448.8C206.3 448.2 206.4 447.6 206.5 447.1C206.9 445.5 207.5 443.1 208.1 441.2C208.4 440.1 209.3 439.6 210.2 439.9Z" fill="#FFBE9D"/>
<path d="M212.8 441.5C213.6 441.7 214 442.5 213.8 443.3C213.4 444.8 212.8 447.1 212.3 448.5C212.1 449 212 449.4 211.7 449.8C211.4 450.2 210.9 450.4 210.4 450.3C209.9 450.2 209.6 449.7 209.5 449.2C209.4 448.7 209.5 448.2 209.6 447.7C209.9 446.3 210.5 444.3 210.9 442.6C211.2 441.8 212.1 441.3 212.8 441.5Z" fill="#FFBE9D"/>
<path d="M215.8 441.9C216.6 442.1 217 442.9 216.8 443.7C216.4 445.2 215.8 447.5 215.3 448.9C215.1 449.4 215 449.8 214.6 450.2C214.3 450.6 213.8 450.8 213.3 450.7C212.8 450.6 212.5 450.1 212.4 449.6C212.3 449.1 212.4 448.6 212.5 448.1C212.8 446.7 213.4 444.6 213.9 443C214.2 442.1 215 441.6 215.8 441.9Z" fill="#FFBE9D"/>
<path d="M206.6 446.7C206.5 446.7 206.8 445.2 207.3 443.5C207.8 441.8 208.4 440.4 208.5 440.5C208.6 440.5 208.3 442 207.8 443.7C207.3 445.4 206.7 446.7 206.6 446.7Z" fill="#EB996E"/>
<path d="M212.2 449C212.1 448.9 212.5 447.5 213 445.8C213.5 444.1 213.9 442.7 214.1 442.7C214.2 442.7 214.1 444.2 213.5 446C213 447.7 212.3 449 212.2 449Z" fill="#EB996E"/>
<path d="M209.4 448.6C209.3 448.5 209.7 447.1 210.2 445.4C210.7 443.7 211.1 442.3 211.3 442.3C211.4 442.3 211.3 443.8 210.7 445.6C210.2 447.3 209.6 448.6 209.4 448.6Z" fill="#EB996E"/>
<path d="M260.2 364C260.3 364.1 256.2 369.7 251 376.4C245.8 383.2 241.5 388.6 241.4 388.5C241.3 388.4 245.4 382.8 250.6 376.1C255.8 369.4 260.1 363.9 260.2 364Z" fill="#263238"/>
<path d="M287.1 379.9C287.2 380 278.5 384.2 267.8 389.1C257.1 394.1 248.4 398 248.3 397.9C248.2 397.8 256.9 393.6 267.6 388.7C278.3 383.7 287 379.8 287.1 379.9Z" fill="#263238"/>
<path d="M283.1 412.9C283.1 413 276.9 412.6 269.4 411.8C261.8 411.1 255.7 410.4 255.7 410.2C255.7 410.1 261.9 410.5 269.4 411.3C277 412.1 283.1 412.8 283.1 412.9Z" fill="#263238"/>
<path d="M125.4 431.4L132.2 470C133.4 476.7 139.7 481.2 146.5 480.3C153.6 479.3 158.5 472.8 157.3 465.9L156.2 459.3C156.2 459.3 165.7 456.7 164.7 447.2C164.2 442.6 162.5 433.2 160.8 424.7C158.9 415.2 149.7 408.9 140 410.5C130 412.2 123.4 421.7 125.4 431.4Z" fill="#FFBE9D"/>
<path d="M156.2 459.3C156.2 459.3 150.1 460.5 143.2 457.2C143.2 457.2 147 463.7 156.5 461.8L156.2 459.3Z" fill="#EB996E"/>
<path d="M158.7 431.1C158.8 431.8 158.3 432.5 157.5 432.6C156.7 432.7 156 432.3 155.9 431.5C155.8 430.8 156.3 430.1 157.1 430C157.9 429.9 158.6 430.4 158.7 431.1Z" fill="#263238"/>
<path d="M159 428.8C158.8 429 157.7 428.4 156.2 428.5C154.7 428.7 153.7 429.5 153.5 429.4C153.4 429.3 153.5 429 154 428.6C154.4 428.2 155.2 427.8 156.1 427.7C157 427.6 157.8 427.8 158.3 428.1C158.9 428.4 159.1 428.7 159 428.8Z" fill="#263238"/>
<path d="M144.7 432.8C144.8 433.5 144.3 434.2 143.5 434.3C142.7 434.4 142 434 141.9 433.2C141.8 432.5 142.3 431.8 143.1 431.7C143.9 431.6 144.6 432.1 144.7 432.8Z" fill="#263238"/>
<path d="M144.7 430.7C144.5 430.9 143.4 430.3 141.9 430.4C140.4 430.6 139.4 431.4 139.2 431.3C139.1 431.2 139.2 430.9 139.7 430.5C140.1 430.1 140.9 429.7 141.8 429.6C142.7 429.5 143.5 429.7 144 430C144.5 430.3 144.7 430.6 144.7 430.7Z" fill="#263238"/>
<path d="M151.3 441.8C151.3 441.7 152.2 441.5 153.7 441.1C154.1 441 154.4 440.9 154.5 440.6C154.6 440.3 154.4 439.9 154.1 439.5C153.6 438.6 153.2 437.7 152.6 436.8C150.6 432.9 149.1 429.7 149.2 429.6C149.4 429.5 151.1 432.6 153.2 436.5C153.7 437.5 154.2 438.4 154.6 439.2C154.8 439.6 155.1 440.1 155 440.6C154.9 440.9 154.7 441.1 154.4 441.2C154.2 441.3 154 441.3 153.8 441.4C152.3 441.8 151.3 441.9 151.3 441.8Z" fill="#263238"/>
<path d="M147.1 443.4C147.3 443.4 147.5 444.9 149 445.9C150.5 446.9 152.2 446.5 152.2 446.7C152.2 446.8 151.9 447.1 151.1 447.2C150.4 447.3 149.3 447.2 148.4 446.6C147.5 446 147 445.1 146.9 444.5C146.8 443.8 146.9 443.4 147.1 443.4Z" fill="#263238"/>
<path d="M144.4 425.8C144.3 426.2 142.8 426.2 141.1 426.6C139.4 427 138 427.6 137.8 427.3C137.7 427.1 137.9 426.7 138.4 426.3C138.9 425.9 139.8 425.4 140.8 425.2C141.8 425 142.8 425 143.5 425.2C144.1 425.4 144.4 425.6 144.4 425.8Z" fill="#263238"/>
<path d="M158.2 425.5C158 425.9 156.9 425.6 155.7 425.8C154.5 425.9 153.5 426.3 153.2 426C153.1 425.8 153.2 425.5 153.6 425.1C154 424.7 154.7 424.4 155.6 424.3C156.4 424.2 157.2 424.4 157.7 424.7C158.1 425 158.3 425.3 158.2 425.5Z" fill="#263238"/>
<path d="M160.8 408.4C159.5 407.4 157.5 407.5 156.4 408.7C157.3 407.5 156.8 405.6 155.6 404.7C154.4 403.8 152.7 403.7 151.2 404.1C149.7 404.5 148.4 405.3 147.1 406.1C147.2 405.5 146.9 404.9 146.4 404.5C145.9 404.1 145.3 404 144.7 404C142.2 403.7 139.7 404.5 137.5 405.6C135.3 406.7 132.8 408.6 130.8 410.1C128.8 411.7 126.7 413.8 124.7 416.6C124.7 416.6 124.7 416.6 124.6 416.7C123.2 418 122 421.8 122.2 423.6C123 430.5 125.3 434.4 126.5 440.9C126.6 441.3 126.7 441.8 127 442.1C127.8 442.9 129.2 442.2 130 441.4C131.8 439.3 132.5 436.4 132.5 433.7C132.6 430.9 132.2 428.2 132.3 425.4C132.3 425.3 132.3 425.3 132.3 425.2C132.3 424.5 132.4 423.8 132.5 423.1C132.6 422.7 133.8 418.7 137.6 418.1C141.6 417.4 149.6 421.3 153.5 420.7C157.4 420.1 157.6 417.3 157.6 417.3L159.9 422C159.9 422 160.8 419.2 160.3 416.1C161.3 415.2 162 414 162.3 412.7C162.6 411.1 162.1 409.3 160.8 408.4Z" fill="#263238"/>
<path d="M129.2 435.6C129 435.5 122.3 434.4 123.3 440.9C124.3 447.4 130.7 445.1 130.7 444.9C130.6 444.7 129.2 435.6 129.2 435.6Z" fill="#FFBE9D"/>
<path d="M128.3 442.7C128.3 442.7 128.2 442.8 128 442.9C127.8 443 127.5 443.1 127.1 443C126.4 442.8 125.6 441.8 125.4 440.7C125.3 440.1 125.3 439.5 125.5 439C125.6 438.5 125.9 438.1 126.2 438C126.5 437.9 126.8 438 126.9 438.2C127 438.4 127 438.5 127 438.5C127 438.5 127.1 438.4 127 438.1C127 438 126.9 437.8 126.7 437.7C126.5 437.6 126.3 437.6 126 437.6C125.5 437.7 125.1 438.2 125 438.8C124.8 439.4 124.8 440 124.9 440.7C125.1 442 126 443.1 127 443.3C127.5 443.4 127.8 443.2 128 443C128.3 442.8 128.3 442.7 128.3 442.7Z" fill="#EB996E"/>
<path d="M114.4 482.5C114.4 482.5 114.6 482.4 115 482.4C115.4 482.4 116 482.6 116.5 483.1C117 483.6 117.4 484.5 117.4 485.6C117.4 486.6 117 487.8 116.6 489C116.3 490.2 116 491.6 116.8 492.9C117.5 494.1 119 495.1 119.6 496.8C120.2 498.5 119.7 500.6 118.1 501.8C117.4 502.4 116.4 502.8 115.4 502.8C114.4 502.8 113.4 502.6 112.5 502.3C111.6 502.1 110.6 501.9 109.8 502.1C109 502.3 108.3 503 107.8 503.7C107.3 504.4 106.8 505.2 106.1 505.8C105.4 506.4 104.5 506.8 103.6 506.7C101.8 506.6 100.3 505.4 99.6 504.1C98.9 502.7 98.7 501.3 98.6 500C98.5 498.7 98.6 497.6 98.5 496.6C98.5 495.6 98.4 494.7 98.3 494C98 492.6 97.6 491.9 97.7 491.9C97.7 491.9 97.8 492.1 98 492.4C98.2 492.7 98.4 493.3 98.5 494C98.7 494.7 98.8 495.6 98.8 496.6C98.9 497.6 98.8 498.8 98.9 500C99 501.2 99.2 502.6 99.9 503.9C100.6 505.1 102 506.2 103.5 506.3C104.3 506.4 105.1 506.1 105.7 505.5C106.3 504.9 106.8 504.2 107.3 503.4C107.8 502.7 108.5 501.9 109.6 501.6C110.6 501.3 111.6 501.5 112.6 501.8C113.5 502 114.5 502.3 115.3 502.3C116.2 502.3 117 501.9 117.7 501.4C119.1 500.3 119.5 498.4 119 496.9C118.5 495.4 117.1 494.4 116.3 493.1C115.9 492.4 115.7 491.7 115.7 490.9C115.7 490.2 115.9 489.5 116.1 488.9C116.5 487.7 116.9 486.6 116.9 485.6C117 484.6 116.6 483.8 116.2 483.3C115.7 482.8 115.2 482.6 114.9 482.5C114.6 482.5 114.4 482.6 114.4 482.5Z" fill="#FAFAFA"/>
<path d="M117.1 552.5C117.1 552.5 117.2 552.7 117.4 553.1C117.6 553.5 118.1 554 119 554.2C119.8 554.4 120.9 554.4 121.9 553.6C122.8 552.9 123.5 551.6 123.8 550.1C124.1 548.6 124.1 546.9 124.3 545.1C124.5 544.2 124.7 543.2 125.2 542.4C125.7 541.5 126.5 540.7 127.5 540.3C128.5 539.9 129.6 539.9 130.7 540C131.8 540.1 132.9 540.4 133.9 540.5C135 540.7 136.1 540.7 137.2 540.3C138.3 540 139.3 539.4 140.1 538.7C140.9 537.9 141.6 537 141.9 535.9C142.2 534.8 142.2 533.7 141.8 532.7C141.1 530.7 139.4 529 137.5 528.8C135.5 528.6 133.7 529.5 131.8 529.6C130.9 529.6 129.9 529.4 129.2 529C128.4 528.6 127.8 528.1 127.1 527.7C125.9 526.8 124.7 525.9 123.6 525.6C122.5 525.2 121.4 525.4 120.6 525.8C119.9 526.2 119.5 526.8 119.3 527.2C119.2 527.6 119.2 527.9 119.1 527.9C119.1 527.9 119 527.7 119.2 527.2C119.3 526.8 119.7 526.1 120.5 525.7C120.9 525.5 121.4 525.3 121.9 525.2C122.4 525.1 123 525.2 123.6 525.4C124.8 525.8 126 526.6 127.2 527.5C128.4 528.4 129.9 529.4 131.7 529.3C132.6 529.3 133.5 529 134.4 528.8C135.3 528.6 136.4 528.3 137.4 528.5C139.6 528.7 141.5 530.5 142.2 532.7C142.6 533.8 142.6 535 142.3 536.2C142 537.4 141.3 538.4 140.4 539.2C139.5 540 138.4 540.6 137.3 540.9C136.2 541.2 134.9 541.2 133.8 541.1C132.7 541 131.6 540.7 130.6 540.6C129.6 540.5 128.5 540.5 127.6 540.8C126.7 541.1 126 541.8 125.5 542.6C125 543.4 124.8 544.3 124.6 545.2C124.3 547 124.3 548.7 124 550.2C123.7 551.7 122.9 553.1 121.9 553.8C120.9 554.6 119.6 554.6 118.8 554.4C117.9 554.1 117.4 553.6 117.2 553.2C117.1 552.8 117.1 552.5 117.1 552.5Z" fill="#FAFAFA"/>
<path d="M151.1 491.9C151.1 491.9 151.3 491.5 151.8 491C152.3 490.5 153.3 489.7 154.8 489.5C156.2 489.2 158.2 489.7 159.6 491.4C160.3 492.2 160.7 493.3 160.8 494.5C160.9 495.6 160.9 496.9 161.6 498C161.9 498.5 162.5 498.9 163.1 499.1C163.7 499.3 164.4 499.4 165.1 499.4C165.8 499.4 166.5 499.4 167.3 499.5C168 499.6 168.8 499.7 169.5 500.3C169.8 500.5 170.1 500.9 170.3 501.3C170.5 501.7 170.5 502.1 170.5 502.5C170.4 503.4 170 504.1 169.5 504.8C169 505.4 168.3 506 167.5 506.4C166.7 506.8 166 507.1 165.2 507.4C164.4 507.8 163.7 508.2 163.1 508.7C162.5 509.3 162.1 510 161.9 510.8C161.5 512.5 161.9 514.3 161.8 516.2C161.7 517.1 161.5 518.1 161 519C160.5 519.9 159.7 520.6 158.6 520.8C157.5 521 156.5 520.5 155.7 519.9C154.9 519.2 154.3 518.4 153.8 517.6C153.3 516.7 152.8 515.9 152.3 515.1C151.7 514.4 151 513.7 150.2 513.4C149.3 513.1 148.4 513.2 147.6 513.6C146.7 513.9 146 514.4 145.2 514.9C144.4 515.4 143.6 515.9 142.7 516.2C141.8 516.5 140.9 516.7 140 516.7C138.2 516.7 136.4 516 135 514.9C133.6 513.8 132.6 512.3 132.3 510.7C132 509.1 132.3 507.3 133.5 506.1C134.1 505.5 134.8 505.2 135.6 505C136.3 504.8 137.1 504.7 137.7 504.6C139.1 504.4 140.4 504.2 141.4 503.4C142.4 502.6 142.9 501.5 143.4 500.4C143.8 499.3 144.1 498.3 144.5 497.3C144.9 496.3 145.3 495.5 145.8 494.7C146.4 494 147 493.5 147.5 493C148.6 492.1 149.7 491.6 150.5 491.6C150.8 491.6 151.1 492 151.1 491.9C151.1 492 150.8 491.6 150 491.7C149.3 491.8 148.2 492.3 147.1 493.2C146.6 493.7 146 494.2 145.4 494.9C144.9 495.6 144.5 496.4 144.1 497.4C143.8 498.4 143.5 499.4 143.1 500.5C142.7 501.6 142.1 502.8 141.1 503.6C140.1 504.5 138.6 504.8 137.2 505C135.8 505.2 134.3 505.4 133.2 506.4C132.1 507.4 131.8 509 132.2 510.6C132.5 512.1 133.5 513.6 134.8 514.5C136.1 515.5 137.8 516.1 139.5 516.1C140.4 516.1 141.2 516 142.1 515.7C142.9 515.4 143.7 514.9 144.5 514.4C145.3 513.9 146.1 513.4 147 513.1C147.9 512.7 149 512.6 150 512.9C151 513.2 151.8 513.9 152.4 514.7C153 515.5 153.5 516.4 154 517.2C154.5 518 155.1 518.8 155.8 519.4C156.5 520 157.4 520.4 158.3 520.2C159.2 520.1 159.9 519.5 160.3 518.7C160.7 517.9 160.9 517 161 516.1C161.1 514.3 160.7 512.4 161.1 510.6C161.3 509.7 161.8 508.8 162.5 508.2C163.2 507.6 164 507.2 164.8 506.8C165.6 506.4 166.4 506.1 167.1 505.8C167.8 505.4 168.4 504.9 169 504.4C169.5 503.8 169.9 503.1 169.9 502.4C169.9 502 169.9 501.7 169.7 501.4C169.5 501.1 169.3 500.8 169.1 500.6C168.6 500.2 167.8 500 167.1 499.9C166.4 499.8 165.7 499.8 165 499.8C164.3 499.8 163.6 499.7 162.9 499.5C162.2 499.3 161.6 498.8 161.3 498.3C160.6 497.1 160.7 495.8 160.5 494.7C160.4 493.6 160 492.5 159.4 491.8C158.1 490.2 156.3 489.7 154.9 489.9C153.5 490.1 152.5 490.8 152 491.3C151.3 491.6 151.1 492 151.1 491.9Z" fill="#FAFAFA"/>
<path d="M134.3 475.1C134.3 475.1 133.7 475.8 132.2 476.1C131.5 476.2 130.6 476.3 129.7 476.1C128.8 475.9 127.7 475.5 127 474.5C126.3 473.5 126.1 472.5 126 471.5C125.9 470.5 126 469.7 126.2 469C126.5 467.6 127.2 466.9 127.3 467C127.4 467.1 126.8 467.7 126.6 469.1C126.5 469.8 126.4 470.6 126.5 471.5C126.6 472.4 126.8 473.4 127.4 474.2C128 475 129 475.4 129.8 475.6C130.7 475.8 131.5 475.8 132.2 475.7C133.5 475.5 134.2 475 134.3 475.1Z" fill="#FAFAFA"/>
<path d="M177.3 472.5C177.3 472.5 177.3 472.6 177.2 472.8C177.1 473 177 473.2 176.8 473.5C176.4 474.1 175.6 474.8 174.3 475.2C173.7 475.4 172.9 475.4 172.2 475.2C171.4 475 170.7 474.6 170.1 474.1C169.4 473.6 168.8 473 168 472.8C167.2 472.6 166.4 472.9 165.9 473.6C165.4 474.3 165.1 475.2 164.7 476C164.3 476.8 163.7 477.6 162.9 478C161.4 479 159.7 479 158.5 478.5C157.3 478 156.6 477.2 156.2 476.6C155.8 476 155.8 475.6 155.8 475.6C155.8 475.6 156 476 156.4 476.5C156.8 477 157.5 477.8 158.7 478.2C159.8 478.6 161.4 478.6 162.7 477.7C163.4 477.3 163.9 476.6 164.3 475.9C164.7 475.1 165 474.2 165.6 473.4C165.9 473 166.3 472.6 166.8 472.4C167.3 472.2 167.8 472.2 168.3 472.3C169.3 472.6 169.9 473.2 170.6 473.7C171.2 474.2 171.9 474.6 172.5 474.8C173.2 475 173.8 474.9 174.4 474.8C175.6 474.5 176.4 473.9 176.8 473.4C177.1 472.9 177.3 472.5 177.3 472.5Z" fill="#FAFAFA"/>
<path d="M184.4 511.8C184.4 511.8 184 511.6 183.3 511.1C182.6 510.6 181.6 509.8 180.6 508.7C180.1 508.1 179.5 507.5 179 506.7C178.5 505.9 178.1 505 178 503.9C177.9 502.9 178 501.7 178.5 500.7C178.8 500.2 179.2 499.7 179.6 499.4C180.1 499 180.6 498.8 181.1 498.5C181.6 498.2 182.1 497.9 182.4 497.5C182.8 497.1 183 496.7 183.2 496.2C183.5 495.2 183.4 494.2 183.3 493.2C183.2 492.2 183 491.2 183.1 490.3C183.2 489.4 183.4 488.5 184 487.9C185.2 486.8 186.5 486.6 187.4 486.5C188.3 486.5 188.7 487 188.6 487C188.6 487 188.2 486.7 187.4 486.7C186.6 486.8 185.3 487.1 184.3 488.1C183.8 488.6 183.6 489.4 183.5 490.3C183.5 491.2 183.6 492.1 183.8 493.1C183.9 494.1 184 495.2 183.7 496.3C183.5 496.9 183.2 497.4 182.8 497.8C182.4 498.2 181.9 498.6 181.4 498.8C180.4 499.4 179.4 499.9 179 500.9C178.5 501.8 178.4 502.9 178.5 503.8C178.7 505.8 179.9 507.2 180.9 508.3C182.9 510.6 184.5 511.7 184.4 511.8Z" fill="#FAFAFA"/>
<path d="M163.5 531.6C163.5 531.6 163.7 531.6 164 531.6C164.3 531.6 164.8 531.6 165.3 531.7C166.4 531.8 168.2 532.1 170 533.1C171.8 534.1 173.9 536 174.5 538.8C174.8 540.2 174.7 541.8 173.9 543.1C173.1 544.4 171.8 545.6 170.1 545.9C169.3 546.1 168.4 546 167.7 545.8C167 545.6 166.3 545.5 165.6 545.8C165 546 164.4 546.5 164 547C163.6 547.5 163.2 548.1 162.9 548.7C162.3 549.9 161.5 551.1 160.3 551.7C159.2 552.3 157.9 552.4 156.9 552.1C155.8 551.8 155 551.2 154.5 550.5C154 549.8 153.7 549.1 153.6 548.6C153.5 548 153.5 547.6 153.5 547.2C153.5 546.9 153.6 546.7 153.6 546.7C153.7 546.7 153.5 547.4 153.8 548.5C153.9 549 154.2 549.7 154.7 550.3C155.2 550.9 156 551.5 156.9 551.7C157.9 551.9 159 551.8 160 551.3C161 550.8 161.7 549.7 162.4 548.5C163 547.3 163.8 545.9 165.4 545.3C166.2 545 167.1 545.1 167.8 545.3C168.5 545.5 169.3 545.6 170 545.4C171.5 545.1 172.7 544.1 173.4 542.8C174.1 541.6 174.3 540.1 174 538.8C173.4 536.2 171.6 534.3 169.8 533.4C168 532.4 166.3 532.1 165.2 531.9C164.2 531.7 163.5 531.7 163.5 531.6Z" fill="#FAFAFA"/>
<path d="M144.8 564.6C144.7 564.6 144.7 563.7 143.9 562.5C143.5 561.9 142.9 561.4 142 561C141.2 560.6 140.2 560.4 139.2 560.7C138.2 561 137.4 561.6 136.9 562.4C136.4 563.1 136.1 564 136 564.6C135.8 566 136.3 566.8 136.2 566.9C136.2 566.9 136 566.7 135.9 566.3C135.7 565.9 135.6 565.3 135.6 564.6C135.6 563.9 135.9 563 136.4 562.1C136.9 561.3 137.8 560.5 139 560.2C140.1 559.9 141.3 560.1 142.2 560.6C143.1 561.1 143.8 561.7 144.2 562.3C144.6 562.9 144.8 563.5 144.8 563.9C144.9 564.4 144.8 564.6 144.8 564.6Z" fill="#FAFAFA"/>
<path d="M148 579.2C147.9 579.2 147.9 578.7 147.5 578C147.2 577.3 146.4 576.2 145.1 575.5C143.8 574.8 141.8 574.8 140.2 575.9C139.4 576.4 138.8 577.3 138.2 578.2C137.9 578.6 137.5 579.1 137.1 579.5C136.6 579.9 136 580.2 135.4 580.1C134.1 580 133.1 579.1 132.4 578.3C131.7 577.4 131.1 576.6 130.3 576.1C129.5 575.6 128.5 575.5 127.7 575.6C126.9 575.7 126.1 576.1 125.5 576.5C124.3 577.4 123.6 578.4 123.2 579.2C122.8 579.9 122.6 580.3 122.5 580.3C122.5 580.3 122.6 579.8 123 579.1C123.4 578.4 124 577.2 125.3 576.3C125.9 575.8 126.7 575.4 127.6 575.3C128.5 575.1 129.6 575.2 130.5 575.8C131.4 576.4 132.1 577.3 132.8 578.1C133.5 578.9 134.4 579.7 135.4 579.7C136.5 579.7 137.3 578.8 137.9 578C138.5 577.1 139.2 576.2 140.1 575.6C141.9 574.4 144 574.5 145.4 575.3C146.8 576.1 147.5 577.2 147.8 578C148 578.4 148 578.7 148.1 579C148 579.1 148 579.2 148 579.2Z" fill="#FAFAFA"/>
<path d="M155.7 542.9C155.6 543 154.7 542.1 152.8 541.6C151.9 541.4 150.7 541.2 149.4 541.4C148.1 541.6 146.8 542 145.6 542.9C144.4 543.8 143.6 545 143.2 546.2C142.8 547.4 142.7 548.6 142.8 549.5C143.1 551.4 144 552.4 143.9 552.4C143.9 552.4 143.7 552.2 143.3 551.7C143 551.2 142.6 550.5 142.4 549.5C142.2 548.5 142.2 547.3 142.7 546C143.1 544.7 144 543.4 145.2 542.5C146.5 541.6 147.9 541.1 149.3 541C150.6 540.8 151.9 541 152.8 541.3C153.8 541.6 154.5 542 154.9 542.3C155.5 542.7 155.7 542.9 155.7 542.9Z" fill="#FAFAFA"/>
</svg>
