<svg width="15" height="14" viewBox="0 0 15 14" fill="none" xmlns="http://www.w3.org/2000/svg">
<mask id="path-1-inside-1" fill="white">
<path fill-rule="evenodd" clip-rule="evenodd" d="M7.50315 0.170654C9.40646 0.170654 10.9584 1.48875 10.9791 3.11496L11.1477 3.11563C13.2723 3.11563 15 4.59308 15 6.40946V10.0396C15 11.8553 13.2723 13.3328 11.1477 13.3328H3.85231C1.72846 13.3328 0 11.8553 0 10.0396V6.40946C0 4.59308 1.72846 3.11563 3.85231 3.11563L4.00923 3.11503L4.01411 2.98705C4.06242 2.24045 4.42182 1.55553 5.03854 1.03343C5.69854 0.473384 6.58469 0.193688 7.50315 0.170654ZM11.1477 4.10279L10.9792 4.1022L10.9793 5.14332C10.9793 5.41578 10.7208 5.63691 10.4024 5.63691C10.0839 5.63691 9.82546 5.41578 9.82546 5.14332L9.82539 4.1022H5.16231L5.16238 5.14332C5.16238 5.41578 4.90392 5.63691 4.58546 5.63691C4.267 5.63691 4.00854 5.41578 4.00854 5.14332L4.00846 4.1022L3.85231 4.10279C2.36462 4.10279 1.15385 5.13734 1.15385 6.40946V10.0396C1.15385 11.3111 2.36462 12.3456 3.85231 12.3456H11.1477C12.6354 12.3456 13.8462 11.3111 13.8462 10.0396V6.40946C13.8462 5.13734 12.6354 4.10279 11.1477 4.10279ZM7.50085 1.15782C6.877 1.17624 6.29238 1.36051 5.85085 1.73432C5.41571 2.10335 5.17183 2.59254 5.16264 3.11497L9.82385 3.11503L9.82151 3.03121C9.7507 1.98822 8.73736 1.15782 7.50085 1.15782Z"/>
</mask>
<path fill-rule="evenodd" clip-rule="evenodd" d="M7.50315 0.170654C9.40646 0.170654 10.9584 1.48875 10.9791 3.11496L11.1477 3.11563C13.2723 3.11563 15 4.59308 15 6.40946V10.0396C15 11.8553 13.2723 13.3328 11.1477 13.3328H3.85231C1.72846 13.3328 0 11.8553 0 10.0396V6.40946C0 4.59308 1.72846 3.11563 3.85231 3.11563L4.00923 3.11503L4.01411 2.98705C4.06242 2.24045 4.42182 1.55553 5.03854 1.03343C5.69854 0.473384 6.58469 0.193688 7.50315 0.170654ZM11.1477 4.10279L10.9792 4.1022L10.9793 5.14332C10.9793 5.41578 10.7208 5.63691 10.4024 5.63691C10.0839 5.63691 9.82546 5.41578 9.82546 5.14332L9.82539 4.1022H5.16231L5.16238 5.14332C5.16238 5.41578 4.90392 5.63691 4.58546 5.63691C4.267 5.63691 4.00854 5.41578 4.00854 5.14332L4.00846 4.1022L3.85231 4.10279C2.36462 4.10279 1.15385 5.13734 1.15385 6.40946V10.0396C1.15385 11.3111 2.36462 12.3456 3.85231 12.3456H11.1477C12.6354 12.3456 13.8462 11.3111 13.8462 10.0396V6.40946C13.8462 5.13734 12.6354 4.10279 11.1477 4.10279ZM7.50085 1.15782C6.877 1.17624 6.29238 1.36051 5.85085 1.73432C5.41571 2.10335 5.17183 2.59254 5.16264 3.11497L9.82385 3.11503L9.82151 3.03121C9.7507 1.98822 8.73736 1.15782 7.50085 1.15782Z" fill="white"/>
<path d="M7.50315 0.170654V-14.8293H7.31509L7.12709 -14.8246L7.50315 0.170654ZM10.9791 3.11496L-4.01968 3.30616L-3.83164 18.0562L10.9195 18.1148L10.9791 3.11496ZM11.1477 3.11563L11.0881 18.1155L11.1179 18.1156H11.1477V3.11563ZM3.85231 3.11563V18.1156H3.88061L3.90891 18.1155L3.85231 3.11563ZM4.00923 3.11503L4.06583 18.1149L18.4505 18.0606L18.9984 3.68628L4.00923 3.11503ZM4.01411 2.98705L-10.9546 2.01853L-10.9674 2.21703L-10.975 2.4158L4.01411 2.98705ZM5.03854 1.03343L14.7305 12.4818L14.7371 12.4762L14.7437 12.4706L5.03854 1.03343ZM11.1477 4.10279L11.095 19.1027L11.1213 19.1028H11.1477V4.10279ZM10.9792 4.1022L11.032 -10.8977L-4.02187 -10.9506L-4.02077 4.1033L10.9792 4.1022ZM10.9793 5.14332H25.9793V5.14222L10.9793 5.14332ZM9.82546 5.14332H24.8255V5.14222L9.82546 5.14332ZM9.82539 4.1022L24.8254 4.1011L24.8243 -10.8978H9.82539V4.1022ZM5.16231 4.1022V-10.8978H-9.8388L-9.83769 4.1033L5.16231 4.1022ZM5.16238 5.14332H20.1624V5.14222L5.16238 5.14332ZM4.00854 5.14332H19.0085L19.0085 5.14222L4.00854 5.14332ZM4.00846 4.1022L19.0085 4.10109L19.0074 -10.9548L3.95158 -10.8977L4.00846 4.1022ZM3.85231 4.10279V19.1028H3.88075L3.90919 19.1027L3.85231 4.10279ZM7.50085 1.15782V-13.8422H7.27936L7.05797 -13.8356L7.50085 1.15782ZM5.85085 1.73432L-3.84126 -9.71397L-3.85118 -9.70555L5.85085 1.73432ZM5.16264 3.11497L-9.83504 2.851L-10.1037 18.1148L5.16243 18.115L5.16264 3.11497ZM9.82385 3.11503L9.82364 18.115L25.2478 18.1152L24.818 2.69709L9.82385 3.11503ZM9.82151 3.03121L24.8157 2.61327L24.8073 2.31397L24.7871 2.01525L9.82151 3.03121ZM7.50315 15.1707C3.40789 15.1707 -3.90966 11.9363 -4.01968 3.30616L25.9779 2.92375C25.8264 -8.95882 15.405 -14.8293 7.50315 -14.8293V15.1707ZM10.9195 18.1148L11.0881 18.1155L11.2073 -11.8843L11.0387 -11.8849L10.9195 18.1148ZM11.1477 18.1156C8.76865 18.1156 6.24109 17.2936 4.12234 15.4819C1.97507 13.6459 2.68221e-07 10.4903 2.68221e-07 6.40946H30C30 -5.8083 19.2676 -11.8844 11.1477 -11.8844V18.1156ZM2.68221e-07 6.40946V10.0396H30V6.40946H2.68221e-07ZM2.68221e-07 10.0396C2.68221e-07 5.95679 1.97648 2.80116 4.12312 0.965886C6.24154 -0.845261 8.76869 -1.66724 11.1477 -1.66724V28.3328C19.2655 28.3328 30 22.2585 30 10.0396H2.68221e-07ZM11.1477 -1.66724H3.85231V28.3328H11.1477V-1.66724ZM3.85231 -1.66724C6.23262 -1.66724 8.75912 -0.844699 10.8764 0.965222C13.0218 2.79919 15 5.95459 15 10.0396H-15C-15 22.2602 -4.26269 28.3328 3.85231 28.3328V-1.66724ZM15 10.0396V6.40946H-15V10.0396H15ZM15 6.40946C15 10.4925 13.0232 13.6478 10.8772 15.4826C8.75956 17.293 6.23267 18.1156 3.85231 18.1156V-11.8844C-4.26477 -11.8844 -15 -5.81007 -15 6.40946H15ZM3.90891 18.1155L4.06583 18.1149L3.95263 -11.8849L3.7957 -11.8843L3.90891 18.1155ZM18.9984 3.68628L19.0032 3.55829L-10.975 2.4158L-10.9799 2.54379L18.9984 3.68628ZM18.9828 3.95556C18.7453 7.62637 16.9423 10.6094 14.7305 12.4818L-4.65342 -10.415C-8.09867 -7.4983 -10.6205 -3.14548 -10.9546 2.01853L18.9828 3.95556ZM14.7437 12.4706C12.2426 14.593 9.58891 15.1231 7.87922 15.1659L7.12709 -14.8246C3.58047 -14.7357 -0.845501 -13.6462 -4.66663 -10.4038L14.7437 12.4706ZM11.2004 -10.8971L11.032 -10.8977L10.9265 19.1021L11.095 19.1027L11.2004 -10.8971ZM-4.02077 4.1033L-4.02069 5.14442L25.9793 5.14222L25.9792 4.1011L-4.02077 4.1033ZM-4.02069 5.14332C-4.02069 -4.9785 4.71724 -9.36309 10.4024 -9.36309V20.6369C16.7245 20.6369 25.9793 15.8101 25.9793 5.14332H-4.02069ZM10.4024 -9.36309C16.0875 -9.36309 24.8255 -4.9785 24.8255 5.14332H-5.17454C-5.17454 15.8101 4.08031 20.6369 10.4024 20.6369V-9.36309ZM24.8255 5.14222L24.8254 4.1011L-5.17461 4.1033L-5.17454 5.14442L24.8255 5.14222ZM9.82539 -10.8978H5.16231V19.1022H9.82539V-10.8978ZM-9.83769 4.1033L-9.83762 5.14443L20.1624 5.14222L20.1623 4.10109L-9.83769 4.1033ZM-9.83762 5.14332C-9.83762 -4.9785 -1.09969 -9.36309 4.58546 -9.36309V20.6369C10.9075 20.6369 20.1624 15.8101 20.1624 5.14332H-9.83762ZM4.58546 -9.36309C10.2706 -9.36309 19.0085 -4.9785 19.0085 5.14332H-10.9915C-10.9915 15.8101 -1.73661 20.6369 4.58546 20.6369V-9.36309ZM19.0085 5.14222L19.0085 4.10109L-10.9915 4.1033L-10.9915 5.14443L19.0085 5.14222ZM3.95158 -10.8977L3.79543 -10.8971L3.90919 19.1027L4.06534 19.1021L3.95158 -10.8977ZM3.85231 -10.8972C-3.62419 -10.8972 -13.8462 -5.2696 -13.8462 6.40946H16.1538C16.1538 15.5443 8.35342 19.1028 3.85231 19.1028V-10.8972ZM-13.8462 6.40946V10.0396H16.1538V6.40946H-13.8462ZM-13.8462 10.0396C-13.8462 21.7205 -3.62122 27.3456 3.85231 27.3456V-2.6544C8.35045 -2.6544 16.1538 0.901578 16.1538 10.0396H-13.8462ZM3.85231 27.3456H11.1477V-2.6544H3.85231V27.3456ZM11.1477 27.3456C18.6212 27.3456 28.8462 21.7205 28.8462 10.0396H-1.15385C-1.15385 0.90158 6.64954 -2.6544 11.1477 -2.6544V27.3456ZM28.8462 10.0396V6.40946H-1.15385V10.0396H28.8462ZM28.8462 6.40946C28.8462 -5.2696 18.6242 -10.8972 11.1477 -10.8972V19.1028C6.64658 19.1028 -1.15385 15.5443 -1.15385 6.40946H28.8462ZM7.05797 -13.8356C3.8841 -13.7419 -0.227745 -12.7732 -3.84125 -9.71396L15.5429 13.1826C12.8125 15.4942 9.8699 16.0944 7.94372 16.1513L7.05797 -13.8356ZM-3.85118 -9.70555C-7.23555 -6.83531 -9.7424 -2.41273 -9.83504 2.851L20.1603 3.37893C20.0861 7.59781 18.067 11.042 15.5529 13.1742L-3.85118 -9.70555ZM5.16243 18.115L9.82364 18.115L9.82406 -11.885L5.16285 -11.885L5.16243 18.115ZM24.818 2.69709L24.8157 2.61327L-5.17267 3.44915L-5.17033 3.53297L24.818 2.69709ZM24.7871 2.01525C24.0569 -8.74089 14.6378 -13.8422 7.50085 -13.8422V16.1578C2.83691 16.1578 -4.55546 12.7173 -5.14404 4.04717L24.7871 2.01525Z" fill="white" mask="url(#path-1-inside-1)"/>
</svg>
