<svg width="20" height="22" viewBox="0 0 20 22" fill="none" xmlns="http://www.w3.org/2000/svg">
<path d="M10.0103 0C12.5565 0 14.6201 2.10526 14.6509 4.70526H14.8665C17.7002 4.70526 20 7.07368 20 9.97895V15.7895C20 18.6947 17.7002 21.0526 14.8665 21.0526H5.13347C2.29979 21.0526 0 18.6947 0 15.7895V9.97895C0 7.07368 2.29979 4.70526 5.13347 4.70526H5.34908C5.36961 3.44211 5.85216 2.26316 6.72485 1.37895C7.6078 0.48421 8.73717 0.0315789 10.0103 0ZM13.9014 5.95789C13.4805 5.95789 13.1314 6.31579 13.1314 6.74737V7.96842C13.1314 8.4 13.4805 8.75789 13.9014 8.75789C14.3326 8.75789 14.6715 8.4 14.6715 7.96842V6.74737C14.6715 6.31579 14.3326 5.95789 13.9014 5.95789ZM6.00616 5.95789C5.58522 5.95789 5.23614 6.31579 5.23614 6.74737V7.96842C5.23614 8.4 5.58522 8.75789 6.00616 8.75789C6.43737 8.75789 6.77618 8.4 6.77618 7.96842V6.74737C6.77618 6.31579 6.43737 5.95789 6.00616 5.95789ZM10.0103 1.57895C9.21971 1.57895 8.39836 1.90526 7.80288 2.50526C7.22793 3.09474 6.90965 3.87368 6.88912 4.70526H13.1109C13.0801 2.97895 11.7043 1.57895 10.0103 1.57895Z" fill="#18A753"/>
</svg>
