<svg width="26" height="18" viewBox="0 0 26 18" fill="none" xmlns="http://www.w3.org/2000/svg">
<path d="M13 12.25C13.862 12.25 14.6886 11.9076 15.2981 11.2981C15.9076 10.6886 16.25 9.86195 16.25 9C16.25 8.13805 15.9076 7.3114 15.2981 6.7019C14.6886 6.09241 13.862 5.75 13 5.75C12.138 5.75 11.3114 6.09241 10.7019 6.7019C10.0924 7.3114 9.75 8.13805 9.75 9C9.75 9.86195 10.0924 10.6886 10.7019 11.2981C11.3114 11.9076 12.138 12.25 13 12.25Z" fill="#4FC451"/>
<path d="M0 2.5C0 2.06902 0.171205 1.6557 0.475951 1.35095C0.780698 1.0462 1.19402 0.875 1.625 0.875H24.375C24.806 0.875 25.2193 1.0462 25.524 1.35095C25.8288 1.6557 26 2.06902 26 2.5V15.5C26 15.931 25.8288 16.3443 25.524 16.649C25.2193 16.9538 24.806 17.125 24.375 17.125H1.625C1.19402 17.125 0.780698 16.9538 0.475951 16.649C0.171205 16.3443 0 15.931 0 15.5V2.5ZM4.875 2.5C4.875 3.36195 4.53259 4.1886 3.9231 4.7981C3.3136 5.40759 2.48695 5.75 1.625 5.75V12.25C2.48695 12.25 3.3136 12.5924 3.9231 13.2019C4.53259 13.8114 4.875 14.638 4.875 15.5H21.125C21.125 14.638 21.4674 13.8114 22.0769 13.2019C22.6864 12.5924 23.513 12.25 24.375 12.25V5.75C23.513 5.75 22.6864 5.40759 22.0769 4.7981C21.4674 4.1886 21.125 3.36195 21.125 2.5H4.875Z" fill="#4FC451"/>
</svg>
