<svg width="26" height="26" viewBox="0 0 26 26" fill="none" xmlns="http://www.w3.org/2000/svg">
<path d="M1.87781 8.61609C1.67783 8.61609 1.48234 8.67539 1.31607 8.78649C1.14979 8.89759 1.02019 9.05551 0.943666 9.24026C0.867137 9.42502 0.847114 9.62832 0.886128 9.82446C0.925142 10.0206 1.02144 10.2008 1.16285 10.3422C1.30425 10.4836 1.48442 10.5799 1.68055 10.6189C1.87669 10.6579 2.07999 10.6379 2.26475 10.5613C2.4495 10.4848 2.60742 10.3552 2.71852 10.1889C2.82962 10.0227 2.88892 9.82718 2.88892 9.6272C2.88892 9.35904 2.78239 9.10186 2.59277 8.91224C2.40315 8.72262 2.14597 8.61609 1.87781 8.61609Z" fill="#FCD406"/>
<path d="M24.4328 10.6311C24.9873 10.6311 25.4367 10.1817 25.4367 9.62724C25.4367 9.07281 24.9873 8.62335 24.4328 8.62335C23.8784 8.62335 23.429 9.07281 23.429 9.62724C23.429 10.1817 23.8784 10.6311 24.4328 10.6311Z" fill="#FCD406"/>
<path d="M13.159 4.61499C13.3579 4.61642 13.5527 4.55876 13.7187 4.44933C13.8847 4.33989 14.0145 4.18361 14.0916 4.0003C14.1687 3.817 14.1896 3.61493 14.1517 3.41972C14.1138 3.22451 14.0188 3.04496 13.8787 2.90384C13.7386 2.76272 13.5597 2.66639 13.3648 2.62706C13.1698 2.58774 12.9676 2.60719 12.7838 2.68296C12.5999 2.75872 12.4427 2.88739 12.3321 3.05263C12.2214 3.21787 12.1624 3.41225 12.1624 3.6111C12.1623 3.8761 12.2671 4.13036 12.4538 4.31842C12.6405 4.50648 12.894 4.61308 13.159 4.61499Z" fill="#FCD406"/>
<path d="M22.8438 11.6278C21.9414 11.8352 21.0629 12.1353 20.2222 12.5233C19.1964 13.0155 18.2277 13.6185 17.3333 14.3217C16.6996 13.5431 16.1523 12.6979 15.7011 11.8011C14.981 10.2629 14.3727 8.67466 13.8811 7.0489C13.8347 6.89537 13.7386 6.76164 13.6078 6.6688C13.477 6.57595 13.3191 6.52927 13.1588 6.53612C12.9986 6.52927 12.8407 6.57595 12.7099 6.6688C12.5791 6.76164 12.483 6.89537 12.4366 7.0489C11.9462 8.67507 11.3379 10.2633 10.6166 11.8011C10.1675 12.6969 9.62007 13.5399 8.98439 14.3145C8.08576 13.6194 7.11765 13.0192 6.0955 12.5233C5.27521 12.1405 4.41874 11.8405 3.53884 11.6278C3.4082 11.5964 3.2714 11.6021 3.14381 11.6442C3.01623 11.6863 2.90291 11.7631 2.81661 11.8661C2.72879 11.9725 2.67328 12.1018 2.65664 12.2388C2.64 12.3757 2.66293 12.5146 2.72272 12.6389C4.09278 15.7541 5.06344 19.0301 5.61161 22.3889C5.64085 22.5585 5.72967 22.712 5.86207 22.8219C5.99448 22.9318 6.16178 22.9908 6.33384 22.9883H20.0561C20.2281 22.9908 20.3954 22.9318 20.5278 22.8219C20.6602 22.712 20.749 22.5585 20.7783 22.3889C21.3265 19.0301 22.2971 15.7541 23.6672 12.6389C23.727 12.5146 23.7499 12.3757 23.7333 12.2388C23.7166 12.1018 23.6611 11.9725 23.5733 11.8661C23.4864 11.7619 23.3718 11.6842 23.2428 11.6421C23.1138 11.5999 22.9755 11.595 22.8438 11.6278ZM8.00217 20.6195C7.84331 20.6209 7.68762 20.5751 7.55484 20.4879C7.42206 20.4007 7.31818 20.276 7.2564 20.1296C7.19461 19.9833 7.1777 19.8218 7.20781 19.6659C7.23793 19.5099 7.3137 19.3664 7.42552 19.2535C7.53734 19.1407 7.68017 19.0636 7.83587 19.0321C7.99158 19.0006 8.15313 19.016 8.30004 19.0765C8.44695 19.1369 8.57258 19.2397 8.66099 19.3717C8.7494 19.5036 8.79661 19.6589 8.79661 19.8178C8.79662 20.0292 8.71315 20.232 8.56437 20.3821C8.41559 20.5322 8.21353 20.6175 8.00217 20.6195ZM13.1661 20.6195C12.9675 20.6005 12.7831 20.5083 12.6489 20.3607C12.5148 20.2131 12.4404 20.0209 12.4404 19.8214C12.4404 19.6219 12.5148 19.4296 12.6489 19.2821C12.7831 19.1345 12.9675 19.0423 13.1661 19.0233C13.3646 19.0423 13.549 19.1345 13.6832 19.2821C13.8174 19.4296 13.8917 19.6219 13.8917 19.8214C13.8917 20.0209 13.8174 20.2131 13.6832 20.3607C13.549 20.5083 13.3646 20.6005 13.1661 20.6195ZM18.3372 20.6195C18.1783 20.6209 18.0226 20.5751 17.8898 20.4879C17.7571 20.4007 17.6532 20.276 17.5914 20.1296C17.5296 19.9833 17.5127 19.8218 17.5428 19.6659C17.5729 19.5099 17.6487 19.3664 17.7605 19.2535C17.8723 19.1407 18.0152 19.0636 18.1709 19.0321C18.3266 19.0006 18.4881 19.016 18.635 19.0765C18.7819 19.1369 18.9076 19.2397 18.996 19.3717C19.0844 19.5036 19.1316 19.6589 19.1316 19.8178C19.1316 20.0292 19.0482 20.232 18.8994 20.3821C18.7506 20.5322 18.5485 20.6175 18.3372 20.6195Z" fill="#FCD406"/>
</svg>
