<svg xmlns="http://www.w3.org/2000/svg" viewBox="0 0 187.17 279.12"><g id="Layer_2" data-name="Layer 2"><g id="Layer_1-2" data-name="Layer 1"><path d="M187,86.92C183.48,38.3,142.74,0,93.9,0A94.4,94.4,0,0,0,3.22,68.65c-6.27,22-2.74,43.26,5,64,19.78,53,51.08,99.36,83.61,145,1.78,2.51,2.6,1.38,3.82-.38,4.43-6.43,9-12.76,13.44-19.2,25.6-37.29,49.93-75.33,66.9-117.5C182.9,123.43,188.32,106,187,86.92Zm-26,47.15c-16.8,41.72-40.82,79.38-66.09,116.31a19,19,0,0,0-1.11,2.23c-27.62-40.24-54.38-79.7-70.46-125.17-7.23-20.44-9.64-40.95-1.5-61.87C34.37,33.2,67.52,13.3,103.05,17.11c33.64,3.62,61.7,31.31,66.88,65.09C172.76,100.68,167.62,117.48,160.94,134.07Z" style="fill:#414042"/><path d="M93.77,36.53C62.38,36.5,36.68,62,36.71,93.16c0,32.06,25.49,57.71,57.14,57.59,31.25-.12,57-25.84,56.92-56.9A57.18,57.18,0,0,0,93.77,36.53Zm-.26,97.58C70.78,134.1,53,116,53,93c0-21.73,18.73-40,40.84-40,22.42.07,40.8,18.8,40.57,41.36C134.21,116.31,115.88,134.12,93.51,134.11Z" style="fill:#414042"/><path d="M112.82,74.35c-2.09-2-3.25-1.68-4.94.53-5.35,7-11,13.73-16.36,20.72-1.9,2.49-3.3,3-5.92.85-3-2.44-6.35-6.86-9.62-6.19-3.57.73-5,6.16-7.71,9.26-1.79,2-1.84,3.31.61,5,7,4.81,13.74,9.9,20.59,14.87l2,1.4c1.52-.09,1.88-1.38,2.56-2.23q10.47-13,20.86-26.07c2.59-3.24,7.29-6.68,7.08-9.77C121.7,79.16,115.86,77.33,112.82,74.35Z" style="fill:#414042"/></g></g></svg>