<svg width="62" height="62" viewBox="0 0 62 62" fill="none" xmlns="http://www.w3.org/2000/svg">
<path d="M6.04622 23.7283C6.41335 23.5365 6.55548 23.0834 6.36368 22.7162C6.17187 22.3491 5.71877 22.207 5.35164 22.3988C4.98451 22.5906 4.84238 23.0437 5.03418 23.4108C5.22598 23.7779 5.67909 23.9201 6.04622 23.7283Z" fill="#3B8686"/>
<path d="M8.70527 22.3391C9.0724 22.1473 9.21454 21.6942 9.02273 21.3271C8.83093 20.9599 8.37783 20.8178 8.0107 21.0096C7.64357 21.2014 7.50143 21.6545 7.69324 22.0217C7.88504 22.3888 8.33814 22.5309 8.70527 22.3391Z" fill="#3B8686"/>
<path d="M11.3642 20.95C11.7313 20.7581 11.8735 20.305 11.6817 19.9379C11.4899 19.5708 11.0368 19.4287 10.6696 19.6205C10.3025 19.8123 10.1604 20.2654 10.3522 20.6325C10.544 20.9996 10.9971 21.1418 11.3642 20.95Z" fill="#3B8686"/>
<path d="M39.8589 0.98618L1.30354 21.1289C1.12724 21.221 0.994748 21.3794 0.935213 21.5692C0.875678 21.759 0.893976 21.9647 0.986083 22.141L21.1288 60.6964C21.2209 60.8727 21.3793 61.0052 21.5691 61.0647C21.7589 61.1242 21.9646 61.1059 22.1409 61.0138L60.6963 40.8711C60.8726 40.779 61.0051 40.6206 61.0646 40.4308C61.1241 40.241 61.1058 40.0353 61.0137 39.859L40.871 1.30364C40.7789 1.12734 40.6205 0.994845 40.4307 0.935309C40.2409 0.875774 40.0353 0.894072 39.8589 0.98618ZM41.9725 6.65146L15.3826 20.543L13.2988 16.5545L39.8888 2.66297L41.9725 6.65146ZM2.66287 22.1111L11.9693 17.2491L14.0531 21.2376L4.7466 26.0996L2.66287 22.1111ZM22.111 59.3371L5.44118 27.4291L42.6671 7.98095L59.337 39.8889L22.111 59.3371Z" fill="#3B8686"/>
<path d="M19.2368 26.3008L18.8257 25.5137C18.5493 24.9848 18.0742 24.5873 17.5048 24.4087C16.9355 24.2301 16.3185 24.285 15.7895 24.5613L11.8011 26.6451C11.2721 26.9214 10.8747 27.3965 10.6961 27.9659C10.5175 28.5353 10.5724 29.1523 10.8487 29.6812L11.2599 30.4682C10.942 30.8066 10.7373 31.2355 10.6742 31.6955C10.6111 32.1554 10.6927 32.6236 10.9077 33.0351C11.1227 33.4466 11.4604 33.7809 11.874 33.9918C12.2875 34.2028 12.7565 34.2797 13.2158 34.2121L13.627 34.9992C13.9033 35.5281 14.3784 35.9255 14.9478 36.1042C15.5172 36.2828 16.1342 36.2279 16.6631 35.9515L20.6516 33.8678C21.1805 33.5915 21.578 33.1164 21.7566 32.547C21.9352 31.9776 21.8803 31.3606 21.604 30.8317L21.1928 30.0446C21.5106 29.7063 21.7153 29.2773 21.7784 28.8174C21.8415 28.3575 21.7599 27.8893 21.5449 27.4778C21.33 27.0663 20.9923 26.7319 20.5787 26.521C20.1651 26.3101 19.6961 26.2331 19.2368 26.3008ZM12.4956 27.9746L16.4841 25.8908C16.6604 25.7987 16.8661 25.7804 17.0559 25.84C17.2457 25.8995 17.4041 26.032 17.4962 26.2083L17.8434 26.873L12.5255 29.6513L12.1782 28.9866C12.0861 28.8103 12.0678 28.6046 12.1273 28.4148C12.1868 28.225 12.3193 28.0667 12.4956 27.9746ZM19.957 32.5383L15.9685 34.622C15.7922 34.7141 15.5865 34.7324 15.3968 34.6729C15.207 34.6134 15.0486 34.4809 14.9565 34.3046L14.6092 33.6398L19.9272 30.8615L20.2745 31.5263C20.3666 31.7026 20.3849 31.9082 20.3253 32.098C20.2658 32.2878 20.1333 32.4462 19.957 32.5383ZM19.8974 29.1847L13.2499 32.6576C13.0736 32.7497 12.8679 32.768 12.6781 32.7085C12.4883 32.649 12.3299 32.5165 12.2378 32.3402C12.1457 32.1639 12.1274 31.9582 12.187 31.7684C12.2465 31.5786 12.379 31.4202 12.5553 31.3281L13.22 30.9808C13.3121 31.1571 13.4705 31.2896 13.6603 31.3492C13.8501 31.4087 14.0558 31.3904 14.2321 31.2983C14.4084 31.2062 14.5409 31.0478 14.6004 30.858C14.6599 30.6682 14.6416 30.4626 14.5495 30.2863L15.2143 29.939C15.3064 30.1153 15.4648 30.2478 15.6546 30.3073C15.8444 30.3668 16.05 30.3485 16.2263 30.2564C16.4026 30.1643 16.5351 30.006 16.5947 29.8162C16.6542 29.6264 16.6359 29.4207 16.5438 29.2444L17.2085 28.8971C17.3006 29.0734 17.459 29.2059 17.6488 29.2654C17.8386 29.325 18.0443 29.3067 18.2206 29.2146C18.3969 29.1225 18.5294 28.9641 18.5889 28.7743C18.6484 28.5845 18.6301 28.3788 18.538 28.2025L19.2028 27.8552C19.3791 27.7631 19.5847 27.7448 19.7745 27.8044C19.9643 27.8639 20.1227 27.9964 20.2148 28.1727C20.3069 28.349 20.3252 28.5547 20.2657 28.7445C20.2061 28.9343 20.0737 29.0926 19.8974 29.1847Z" fill="#3B8686"/>
<path d="M24.7295 36.8145L21.681 38.4071L16.9173 36.9128C16.7287 36.8573 16.5258 36.878 16.3523 36.9705C16.1788 37.0631 16.0486 37.2201 15.9897 37.4078C15.9308 37.5954 15.948 37.7987 16.0376 37.9738C16.1271 38.1488 16.2819 38.2818 16.4684 38.3439L18.7516 39.0601L16.1027 38.9039C16.0034 38.8961 15.9035 38.9083 15.8089 38.9396C15.7143 38.9709 15.6269 39.0207 15.5518 39.0861C15.4767 39.1516 15.4153 39.2313 15.3714 39.3208C15.3274 39.4102 15.3017 39.5074 15.2958 39.6069C15.2898 39.7063 15.3038 39.806 15.3368 39.9C15.3698 39.994 15.4212 40.0805 15.488 40.1544C15.5548 40.2283 15.6356 40.2882 15.7258 40.3306C15.816 40.3729 15.9137 40.3968 16.0133 40.401L17.6766 40.4992L16.7526 40.9819C16.5762 41.074 16.4438 41.2324 16.3842 41.4222C16.3247 41.612 16.343 41.8177 16.4351 41.994L17.1297 43.3235C17.5911 44.2041 18.383 44.8658 19.3316 45.1633C20.2802 45.4609 21.3081 45.3701 22.1899 44.9108L24.8488 43.5216C25.7295 43.0602 26.3912 42.2683 26.6887 41.3197C26.9863 40.3711 26.8955 39.3431 26.4361 38.4614L25.7416 37.1319C25.6495 36.9556 25.4911 36.8231 25.3013 36.7636C25.1115 36.704 24.9058 36.7223 24.7295 36.8145ZM25.1066 39.156C25.383 39.6849 25.4379 40.3019 25.2593 40.8713C25.0807 41.4407 24.6832 41.9158 24.1543 42.1921L21.4953 43.5813C20.9664 43.8576 20.3494 43.9125 19.78 43.7339C19.2106 43.5553 18.7355 43.1578 18.4592 42.6289L18.1119 41.9641L24.7594 38.4912L25.1066 39.156Z" fill="#3B8686"/>
<path d="M30.6931 51.4688L30.1168 51.7699L28.2998 46.9007C28.2627 46.8011 28.2048 46.7105 28.1299 46.635C28.0551 46.5595 27.965 46.5007 27.8658 46.4627C27.7665 46.4246 27.6603 46.408 27.5541 46.4141C27.448 46.4203 27.3443 46.4489 27.2501 46.4981L26.1865 47.0537L24.6364 45.3825C24.5354 45.2736 24.4044 45.1972 24.2599 45.1628C24.1154 45.1285 23.964 45.1378 23.8249 45.1896L21.9556 45.8861C21.7732 45.9584 21.6265 46.0993 21.5467 46.2786C21.467 46.4579 21.4607 46.6613 21.5292 46.8451C21.5977 47.029 21.7355 47.1787 21.9131 47.2621C22.0907 47.3455 22.2939 47.3561 22.4791 47.2914L23.8781 46.7704L24.8098 47.773L23.2616 48.5818C23.1673 48.6311 23.0847 48.6998 23.019 48.7834C22.9534 48.8671 22.9063 48.9637 22.8808 49.067C22.8554 49.1702 22.8522 49.2777 22.8714 49.3822C22.8907 49.4868 22.932 49.5861 22.9925 49.6735L25.9515 53.946L25.3751 54.2471C25.1988 54.3392 25.0663 54.4975 25.0068 54.6873C24.9473 54.8771 24.9656 55.0828 25.0577 55.2591C25.1498 55.4354 25.3081 55.5679 25.4979 55.6274C25.6877 55.687 25.8934 55.6687 26.0697 55.5766L31.3877 52.7982C31.564 52.7061 31.6965 52.5478 31.756 52.358C31.8156 52.1682 31.7973 51.9625 31.7052 51.7862C31.613 51.6099 31.4547 51.4774 31.2649 51.4179C31.0751 51.3583 30.8694 51.3766 30.6931 51.4688ZM27.2916 53.2458L24.7093 49.5178L27.1915 48.221L28.7766 52.47L27.2916 53.2458Z" fill="#3B8686"/>
<path d="M30.6824 32.0121C30.025 32.3555 29.4842 32.8862 29.1285 33.5369C28.7727 34.1877 28.6179 34.9294 28.6836 35.6681C28.7493 36.4069 29.0326 37.1096 29.4977 37.6873C29.9628 38.2651 30.5888 38.6919 31.2964 38.9139C32.0041 39.1359 32.7617 39.143 33.4735 38.9345C34.1852 38.7259 34.8191 38.3109 35.295 37.742C35.7709 37.1732 36.0675 36.476 36.1471 35.7386C36.2268 35.0012 36.086 34.2567 35.7426 33.5994C35.2811 32.7187 34.4893 32.0571 33.5407 31.7595C32.592 31.4619 31.5641 31.5528 30.6824 32.0121ZM33.4607 37.3301C33.0663 37.5361 32.6196 37.6206 32.1772 37.5728C31.7347 37.525 31.3164 37.3471 30.9751 37.0615C30.6338 36.776 30.3848 36.3956 30.2596 35.9686C30.1345 35.5416 30.1388 35.087 30.272 34.6624C30.4052 34.2378 30.6613 33.8622 31.0079 33.5831C31.3546 33.3041 31.7762 33.1341 32.2194 33.0947C32.6627 33.0552 33.1077 33.1481 33.4982 33.3616C33.8886 33.5751 34.207 33.8995 34.4131 34.2939C34.6894 34.8228 34.7443 35.4399 34.5657 36.0092C34.3871 36.5786 33.9896 37.0537 33.4607 37.3301Z" fill="#3B8686"/>
<path d="M35.8917 41.9833C35.2344 42.3267 34.6936 42.8574 34.3378 43.5082C33.982 44.1589 33.8272 44.9006 33.8929 45.6394C33.9587 46.3781 34.242 47.0808 34.7071 47.6585C35.1722 48.2363 35.7981 48.6631 36.5058 48.8851C37.2135 49.1071 37.9711 49.1143 38.6828 48.9057C39.3946 48.6971 40.0285 48.2821 40.5044 47.7133C40.9803 47.1444 41.2768 46.4472 41.3565 45.7098C41.4361 44.9724 41.2954 44.228 40.9519 43.5706C40.4905 42.6899 39.6986 42.0283 38.75 41.7307C37.8014 41.4331 36.7735 41.524 35.8917 41.9833ZM38.6701 47.3013C38.2756 47.5073 37.829 47.5918 37.3865 47.544C36.9441 47.4962 36.5258 47.3183 36.1844 47.0328C35.8431 46.7472 35.5942 46.3669 35.469 45.9398C35.3438 45.5128 35.3481 45.0582 35.4813 44.6336C35.6145 44.209 35.8706 43.8334 36.2173 43.5544C36.5639 43.2753 36.9855 43.1053 37.4288 43.0659C37.872 43.0264 38.317 43.1193 38.7075 43.3328C39.098 43.5463 39.4164 43.8707 39.6224 44.2652C39.8987 44.7941 39.9536 45.4111 39.775 45.9805C39.5964 46.5498 39.199 47.025 38.6701 47.3013Z" fill="#3B8686"/>
<path d="M29.3973 17.662L27.8348 21.6828C27.002 21.5311 26.1424 21.6715 25.4012 22.0803C24.6599 22.4891 24.0826 23.1413 23.7666 23.9266L22.6369 23.7079C22.4423 23.6711 22.241 23.7128 22.077 23.8239C21.9129 23.935 21.7996 24.1065 21.7615 24.3009C21.7235 24.4954 21.764 24.6969 21.8741 24.8616C21.9842 25.0263 22.1549 25.1408 22.3491 25.18L23.4735 25.3998C23.4729 25.9917 23.6143 26.5751 23.8858 27.101C24.3464 27.9825 25.1382 28.645 26.0872 28.9427C27.0362 29.2404 28.0645 29.1489 28.946 28.6883C29.8275 28.2278 30.49 27.4359 30.7877 26.487C31.0854 25.538 30.9939 24.5096 30.5333 23.6281C30.2296 23.0556 29.781 22.5728 29.2323 22.2279L30.7958 18.2041C30.8545 18.0217 30.8413 17.8239 30.7588 17.651C30.6763 17.4781 30.5307 17.3434 30.352 17.2744C30.1734 17.2054 29.975 17.2074 29.7978 17.28C29.6205 17.3525 29.4777 17.4902 29.3987 17.6647L29.3973 17.662ZM26.1677 23.3703C26.5094 23.1947 26.8909 23.1106 27.2748 23.1262L26.7371 24.5072L25.2791 24.2221C25.4894 23.8603 25.7974 23.5651 26.1677 23.3703ZM29.2038 24.3227C29.4801 24.8516 29.535 25.4686 29.3564 26.038C29.1778 26.6074 28.7804 27.0825 28.2515 27.3588C27.7225 27.6351 27.1055 27.69 26.5362 27.5114C25.9668 27.3328 25.4917 26.9354 25.2153 26.4064C25.1019 26.1834 25.0268 25.9428 24.9934 25.6949L27.0667 26.1001C27.2395 26.1339 27.4187 26.1059 27.573 26.0208C27.7272 25.9358 27.8465 25.7991 27.9101 25.6349L28.6768 23.6622C28.893 23.8468 29.0718 24.071 29.2038 24.3227Z" fill="#3B8686"/>
<path d="M39.4329 14.7478L34.7796 17.1788C34.6033 17.2709 34.4708 17.4292 34.4113 17.619C34.3518 17.8088 34.3701 18.0145 34.4622 18.1908C34.5543 18.3671 34.7126 18.4996 34.9024 18.5591C35.0922 18.6187 35.2979 18.6004 35.4742 18.5083L40.1274 16.0772C40.3037 15.9851 40.4362 15.8268 40.4958 15.637C40.5553 15.4472 40.537 15.2415 40.4449 15.0652C40.3528 14.8889 40.1944 14.7564 40.0046 14.6969C39.8148 14.6373 39.6092 14.6556 39.4329 14.7478Z" fill="#3B8686"/>
<path d="M40.822 17.4067L34.8393 20.5323C34.663 20.6245 34.5305 20.7828 34.471 20.9726C34.4114 21.1624 34.4297 21.3681 34.5218 21.5444C34.614 21.7207 34.7723 21.8532 34.9621 21.9127C35.1519 21.9723 35.3576 21.954 35.5339 21.8618L41.5166 18.7362C41.6929 18.6441 41.8254 18.4858 41.885 18.296C41.9445 18.1062 41.9262 17.9005 41.8341 17.7242C41.742 17.5479 41.5836 17.4154 41.3938 17.3559C41.204 17.2963 40.9983 17.3146 40.822 17.4067Z" fill="#3B8686"/>
<path d="M44.6422 24.719L39.989 27.15C39.8127 27.2421 39.6802 27.4005 39.6206 27.5903C39.5611 27.7801 39.5794 27.9857 39.6715 28.162C39.7636 28.3383 39.922 28.4708 40.1118 28.5304C40.3016 28.5899 40.5072 28.5716 40.6835 28.4795L45.3368 26.0485C45.5131 25.9564 45.6456 25.798 45.7051 25.6082C45.7646 25.4184 45.7463 25.2127 45.6542 25.0364C45.5621 24.8601 45.4038 24.7276 45.214 24.6681C45.0242 24.6086 44.8185 24.6269 44.6422 24.719Z" fill="#3B8686"/>
<path d="M46.0313 27.378L40.0485 30.5036C39.8722 30.5957 39.7397 30.754 39.6802 30.9438C39.6207 31.1336 39.639 31.3393 39.7311 31.5156C39.8232 31.6919 39.9816 31.8244 40.1713 31.8839C40.3611 31.9435 40.5668 31.9252 40.7431 31.8331L46.7259 28.7075C46.9022 28.6154 47.0346 28.457 47.0942 28.2672C47.1537 28.0774 47.1354 27.8717 47.0433 27.6954C46.9512 27.5191 46.7928 27.3866 46.603 27.3271C46.4132 27.2676 46.2076 27.2859 46.0313 27.378Z" fill="#3B8686"/>
<path d="M50.1988 35.355L45.5456 37.786C45.3693 37.8781 45.2368 38.0365 45.1773 38.2263C45.1177 38.416 45.136 38.6217 45.2281 38.798C45.3203 38.9743 45.4786 39.1068 45.6684 39.1663C45.8582 39.2259 46.0639 39.2076 46.2402 39.1155L50.8934 36.6845C51.0697 36.5923 51.2022 36.434 51.2618 36.2442C51.3213 36.0544 51.303 35.8487 51.2109 35.6724C51.1188 35.4961 50.9604 35.3636 50.7706 35.3041C50.5808 35.2446 50.3751 35.2629 50.1988 35.355Z" fill="#3B8686"/>
<path d="M49.5937 39.0558L45.6052 41.1396C45.4289 41.2317 45.2964 41.39 45.2368 41.5798C45.1773 41.7696 45.1956 41.9753 45.2877 42.1516C45.3798 42.3279 45.5382 42.4604 45.728 42.5199C45.9178 42.5795 46.1235 42.5612 46.2998 42.4691L50.2882 40.3853C50.4645 40.2932 50.597 40.1348 50.6566 39.9451C50.7161 39.7553 50.6978 39.5496 50.6057 39.3733C50.5136 39.197 50.3552 39.0645 50.1654 39.005C49.9756 38.9454 49.77 38.9637 49.5937 39.0558Z" fill="#3B8686"/>
<path d="M47.4204 30.037L41.4377 33.1626C41.2614 33.2547 41.1289 33.413 41.0694 33.6028C41.0098 33.7926 41.0281 33.9983 41.1202 34.1746C41.2123 34.3509 41.3707 34.4834 41.5605 34.5429C41.7503 34.6025 41.956 34.5842 42.1323 34.4921L48.115 31.3665C48.2913 31.2744 48.4238 31.116 48.4833 30.9262C48.5429 30.7364 48.5246 30.5307 48.4325 30.3544C48.3404 30.1781 48.182 30.0456 47.9922 29.9861C47.8024 29.9266 47.5967 29.9449 47.4204 30.037Z" fill="#3B8686"/>
<path d="M36.923 24.5208L40.9115 22.4371C41.0878 22.345 41.2203 22.1866 41.2799 21.9968C41.3394 21.807 41.3211 21.6014 41.229 21.4251C41.1369 21.2488 40.9785 21.1163 40.7887 21.0567C40.5989 20.9972 40.3933 21.0155 40.217 21.1076L36.2285 23.1913C36.0522 23.2835 35.9197 23.4418 35.8601 23.6316C35.8006 23.8214 35.8189 24.0271 35.911 24.2034C36.0031 24.3797 36.1615 24.5122 36.3513 24.5717C36.5411 24.6312 36.7467 24.6129 36.923 24.5208Z" fill="#3B8686"/>
<path d="M18.0118 17.4771L27.983 12.2677C28.1593 12.1756 28.2918 12.0173 28.3513 11.8275C28.4109 11.6377 28.3926 11.432 28.3005 11.2557C28.2084 11.0794 28.05 10.9469 27.8602 10.8874C27.6704 10.8278 27.4647 10.8461 27.2884 10.9383L17.3172 16.1476C17.1409 16.2397 17.0084 16.3981 16.9489 16.5879C16.8893 16.7776 16.9076 16.9833 16.9998 17.1596C17.0919 17.3359 17.2502 17.4684 17.44 17.528C17.6298 17.5875 17.8355 17.5692 18.0118 17.4771Z" fill="#3B8686"/>
<path d="M33.301 9.48944L38.619 6.71113C38.7953 6.61902 38.9278 6.46065 38.9873 6.27086C39.0468 6.08106 39.0285 5.87539 38.9364 5.69909C38.8443 5.52279 38.6859 5.3903 38.4962 5.33076C38.3064 5.27123 38.1007 5.28953 37.9244 5.38163L32.6064 8.15994C32.4301 8.25205 32.2976 8.41042 32.2381 8.60021C32.1785 8.79001 32.1968 8.99568 32.2889 9.17198C32.381 9.34828 32.5394 9.48078 32.7292 9.54031C32.919 9.59985 33.1247 9.58155 33.301 9.48944Z" fill="#3B8686"/>
</svg>
