<?xml version="1.0" encoding="utf-8"?>
<!-- Generator: Adobe Illustrator 21.1.0, SVG Export Plug-In . SVG Version: 6.00 Build 0)  -->
<svg version="1.1" id="Layer_1" xmlns="http://www.w3.org/2000/svg" xmlns:xlink="http://www.w3.org/1999/xlink" x="0px" y="0px"
	 viewBox="0 0 128 128" style="enable-background:new 0 0 128 128;" xml:space="preserve">
<style type="text/css">
	.st0{fill-rule:evenodd;clip-rule:evenodd;fill:#3774CC;}
	.st1{fill-rule:evenodd;clip-rule:evenodd;fill:#CDD5DB;}
	.st2{fill:#092041;}
	.st3{fill:#FFFFFF;}
	.st4{fill:#1AA5E2;}
	.st5{fill:#3774CC;}
	.st6{fill:none;}
	.st7{fill:#CDD5DB;}
	.st8{fill-rule:evenodd;clip-rule:evenodd;fill:#092041;}
	.st9{fill:#1D3A65;}
	.st10{fill:#9BABB8;}
	.st11{fill:#DADEE0;}
	.st12{fill-rule:evenodd;clip-rule:evenodd;fill:#FFFFFF;}
	.st13{fill-rule:evenodd;clip-rule:evenodd;fill:#1AA5E2;}
	.st14{fill:#0075D0;}
	.st15{fill:#76C9EE;}
	.st16{fill:#001A40;}
	.st17{fill:#86DCF4;}
	.st18{fill:#A3DBF3;}
	.st19{fill:none;stroke:#092041;stroke-width:1.7067;stroke-miterlimit:10;}
	.st20{fill:#F2F2F2;}
	.st21{opacity:0.3;}
	.st22{fill:#4B5E6D;}
	.st23{fill:#00A7E5;}
	.st24{fill:#E6E6E6;}
	.st25{fill:#6A8294;}
	.st26{fill:#3974CC;}
	.st27{fill:#CCCCCC;}
	.st28{clip-path:url(#SVGID_2_);}
</style>
<g>
	<path class="st5" d="M63.4,100.5c0,0-9.3-3.5-26.2-3.5S11,101.7,11,101.7V48.3c0,0,8.8-6.3,26.2-6.3s26.2,6.3,26.2,6.3V100.5z"/>
	<path class="st5" d="M116,101.7c0,0-4.5-4.7-24.4-4.7s-28,3.5-28,3.5V48.3c0,0,7.6-6.3,26.2-6.3s26.2,6.3,26.2,6.3V101.7z"/>
	<g>
		<path class="st3" d="M63.4,94.2c0,0-8.1-4.5-22.9-4.5s-22.9,4.5-22.9,4.5V42.1c0,0,7.7-6.1,22.9-6.1s22.9,6.1,22.9,6.1V94.2z"/>
		<path class="st2" d="M63.4,95.3c-0.2,0-0.3,0-0.5-0.1c-0.1,0-8.1-4.4-22.4-4.4c-14.3,0-22.3,4.4-22.4,4.4c-0.3,0.2-0.7,0.2-1,0
			c-0.3-0.2-0.5-0.5-0.5-0.9V42.1c0-0.3,0.1-0.6,0.4-0.8c0.3-0.3,8.2-6.3,23.5-6.3S63.7,41,64,41.3c0.2,0.2,0.4,0.5,0.4,0.8v52.1
			c0,0.4-0.2,0.7-0.5,0.9C63.8,95.2,63.6,95.3,63.4,95.3z M18.7,42.6v49.9c3.1-1.3,10.5-3.9,21.8-3.9c11.3,0,18.8,2.6,21.8,3.9V42.6
			c-1.7-1.2-9.1-5.6-21.8-5.6C27.7,37,20.4,41.5,18.7,42.6z"/>
	</g>
	<g>
		<path class="st3" d="M109.4,94.2c0,0-3.9-4.5-21.3-4.5s-24.4,4.5-24.4,4.5V42.1c0,0,6.6-6.1,22.9-6.1s22.9,6.1,22.9,6.1V94.2z"/>
		<path class="st2" d="M109.4,95.3c-0.3,0-0.6-0.1-0.8-0.3c-0.1-0.1-4.2-4.2-20.6-4.2c-16.8,0-23.8,4.3-23.9,4.4
			c-0.3,0.2-0.7,0.2-1.1,0c-0.3-0.2-0.5-0.5-0.5-0.9V42.1c0-0.3,0.1-0.6,0.3-0.8c0.3-0.3,7.1-6.4,23.6-6.4s23.3,6.1,23.6,6.4
			c0.2,0.2,0.3,0.5,0.3,0.8v52.1c0,0.4-0.3,0.8-0.7,1C109.6,95.2,109.5,95.3,109.4,95.3z M64.7,42.6v49.9c3-1.4,10.3-3.9,23.4-3.9
			c11.9,0,17.7,2.1,20.3,3.6V42.6c-1.5-1.1-8.2-5.6-21.8-5.6C72.8,37,66.2,41.4,64.7,42.6z"/>
	</g>
	<g>
		<path class="st18" d="M71.6,36.6c-0.1,0,0,38.7,0,38.7l4.4-3.9l3.9,3.9V34.5C77.3,34.7,74.6,35.5,71.6,36.6z"/>
	</g>
	<g>
		<path class="st5" d="M38.6,71.9c0-0.9,0.2-1.5,0.7-2c0.5-0.4,1.1-0.7,2-0.7c0.9,0,1.5,0.2,2,0.7c0.5,0.5,0.7,1.1,0.7,1.9
			c0,0.8-0.2,1.5-0.7,1.9c-0.5,0.5-1.1,0.7-2,0.7c-0.9,0-1.5-0.2-2-0.7S38.6,72.7,38.6,71.9z M43.2,66.6h-3.8l-0.8-15.1H44
			L43.2,66.6z"/>
	</g>
	<g>
		<path class="st5" d="M29.7,40.1c-2.4-3.1-5.6-11-6.6-12.4l3-4.8c1.5,7.5,4.4,14,5.6,14.1l2.1-3.2L36,44.2L28,43L29.7,40.1z"/>
		<path class="st6" d="M26.1,22.9c1.5,7.5,4.4,14,5.6,14.1l2.1-3.2L36,44.2L28,43l1.7-2.9c-2.4-3.1-5.6-11-6.6-12.4L26.1,22.9
			 M27.8,13.3L23,21l-3,4.8L18.7,28l1.5,2c0.3,0.4,1.1,2.1,1.7,3.4c1.1,2.2,2.3,4.8,3.6,6.9l-0.6,1l-2.8,4.7l5.4,0.8l7.9,1.1
			l5.1,0.7l-1.1-5.1l-2.2-10.3l-1.8-8.7L31.9,30c-0.8-2-1.6-4.7-2.2-7.8L27.8,13.3L27.8,13.3z"/>
	</g>
	<g>
		<path class="st2" d="M100.5,36.7c1.4-5.2,1.1-16.8,1.7-19l-6.3-4.4c2.1,10.2,1.9,19.8,0.5,20.6L92.2,31l2.8,14l9.3-5.6L100.5,36.7
			z"/>
		<path class="st6" d="M95.9,13.3l6.3,4.4c-0.6,2.2-0.3,13.9-1.7,19l3.7,2.7L95,45.1l-2.8-14l4.3,2.9C97.9,33.1,98,23.5,95.9,13.3
			 M90.5,5.1l1.8,8.9c1.2,5.7,1.5,10.5,1.5,13.7l-7-4.8l1.7,8.8l2.8,14l1,5.1l4.4-2.7l9.3-5.6l4.7-2.8l-4.4-3.2l-1.8-1.4
			c0.5-3.4,0.7-7.6,0.8-11.2c0.1-2.1,0.2-4.7,0.3-5.4l0.7-2.5l-2.1-1.4L98,10.3L90.5,5.1L90.5,5.1z"/>
	</g>
</g>
<path class="st6" d="M26.1,22.9l-3,4.8c0.8,1,2.6,5.3,4.5,8.8c0.9-0.3,1.9-0.5,3-0.7C29.2,33.6,27.2,28.6,26.1,22.9z"/>
<path class="st6" d="M40.6,48.5l-5.1-0.7l-7.9-1.1l-5.4-0.8l2.8-4.7l0.6-1c-0.1-0.2-0.3-0.5-0.4-0.7c-3.4,1.2-5.6,2.5-6.4,3.1v49.9
	c3.1-1.3,10.5-3.9,21.8-3.9c11.3,0,18.8,2.6,21.8,3.9V42.6c-1.7-1.2-9.1-5.6-21.8-5.6c-0.8,0-1.6,0-2.3,0l1.3,6.3L40.6,48.5z"/>
<path class="st6" d="M33.8,33.8l-1.1,1.7c0.4-0.1,0.9-0.1,1.4-0.2L33.8,33.8z"/>
<path class="st6" d="M28,43l7.9,1.1l-1.4-6.8c-2.2,0.3-4.2,0.6-5.9,1.1c0.4,0.6,0.8,1.2,1.1,1.7L28,43z"/>
<path class="st6" d="M96.8,48.2l-4.4,2.7l-1-5.1l-1.7-8.6c-1-0.1-2.1-0.1-3.2-0.1c-13.7,0-20.3,4.4-21.8,5.6v49.9
	c3-1.4,10.3-3.9,23.4-3.9c11.9,0,17.7,2.1,20.3,3.6V42.6c-0.2-0.2-0.6-0.4-1.1-0.7l-1.1,0.7L96.8,48.2z"/>
<path class="st6" d="M100.5,36.7c1.4-5.2,1.1-16.8,1.7-19l-6.3-4.4c2.1,10.2,1.9,19.8,0.5,20.6L92.2,31l0.9,4.3
	C96,35.6,98.5,36.1,100.5,36.7L100.5,36.7z"/>
<path class="st6" d="M103.4,39.9c-2.4-1-5.7-2-10-2.5l1.5,7.6L103.4,39.9z"/>
<path class="st2" d="M62.6,94.2V42.1c0-0.3,0.1-0.6,0.3-0.8c0,0,0.2-0.2,0.6-0.5c-2.1-1.4-9.7-5.9-23-5.9c-0.9,0-1.9,0-2.8,0.1
	l0.4,2.1c0.8,0,1.5,0,2.3,0c12.7,0,20.1,4.4,21.8,5.6v49.9c-3.1-1.3-10.5-3.9-21.8-3.9c-11.3,0-18.8,2.6-21.8,3.9V42.6
	c0.8-0.6,3-1.9,6.4-3.1c-0.3-0.6-0.7-1.2-1-1.9c-4.5,1.7-6.9,3.5-7.1,3.6c-0.2,0.2-0.4,0.5-0.4,0.8v52.1c0,0.4,0.2,0.7,0.5,0.9
	c0.3,0.2,0.7,0.2,1,0c0.1,0,8.1-4.4,22.4-4.4c14.3,0,22.3,4.4,22.4,4.4c0.2,0.1,0.3,0.1,0.5,0.1c0,0,0.1,0,0.1,0
	c-0.1,0-0.3,0-0.4-0.1C62.8,94.9,62.6,94.6,62.6,94.2z"/>
<path class="st3" d="M28.6,38.4c-0.4-0.6-0.7-1.2-1.1-1.9c-1.3,0.3-2.5,0.7-3.5,1.1c0.3,0.6,0.7,1.3,1,1.9
	C26.1,39.2,27.3,38.8,28.6,38.4z"/>
<path class="st3" d="M34.5,37.4c1.2-0.1,2.4-0.2,3.7-0.3L37.7,35c-1.3,0.1-2.5,0.2-3.7,0.3L34.5,37.4z"/>
<path class="st3" d="M31.7,37.1l1-1.6c-0.7,0.1-1.5,0.2-2.2,0.4C31,36.6,31.4,37,31.7,37.1z"/>
<path class="st2" d="M109.2,40.7l-2,1.2c0.5,0.3,0.9,0.6,1.1,0.7v49.6c-2.6-1.5-8.4-3.6-20.3-3.6c-13.1,0-20.4,2.5-23.4,3.9V42.6
	c1.5-1.2,8.1-5.6,21.8-5.6c1.1,0,2.1,0,3.2,0.1L89.2,35c-0.9,0-1.8-0.1-2.7-0.1c-14.1,0-21.1,4.5-23,5.9c0.3,0.2,0.5,0.4,0.6,0.4
	c0.2,0.2,0.4,0.5,0.4,0.8v52.1c0,0.4-0.2,0.7-0.5,0.9c-0.1,0.1-0.3,0.1-0.4,0.1c0.2,0,0.5,0,0.7-0.1c0.1,0,7.1-4.4,23.9-4.4
	c16.4,0,20.5,4.1,20.6,4.2c0.2,0.2,0.5,0.3,0.8,0.3c0.1,0,0.2,0,0.4-0.1c0.4-0.2,0.7-0.5,0.7-1V42.1c0-0.3-0.1-0.6-0.3-0.8
	C110,41.3,109.8,41,109.2,40.7z"/>
<path class="st3" d="M93.4,37.4L93,35.3c-1.2-0.1-2.4-0.2-3.8-0.3l0.4,2.1C91,37.2,92.3,37.3,93.4,37.4z"/>
<path class="st3" d="M104.2,39.4l-0.8,0.5c1.7,0.7,3,1.4,3.8,1.9l2-1.2c-1.3-0.9-4.1-2.6-8.6-3.9L104.2,39.4z"/>
<path class="st2" d="M64.4,94.2V42.1c0-0.3-0.1-0.6-0.4-0.8c0,0-0.2-0.2-0.6-0.4c-0.3,0.3-0.5,0.4-0.6,0.5c-0.2,0.2-0.3,0.5-0.3,0.8
	v52.1c0,0.4,0.2,0.7,0.5,0.9c0.1,0.1,0.3,0.1,0.4,0.1c0.1,0,0.3-0.1,0.4-0.1C64.2,94.9,64.4,94.6,64.4,94.2z"/>
</svg>
