<?xml version="1.0" encoding="utf-8"?>
<!-- Generator: Adobe Illustrator 21.1.0, SVG Export Plug-In . SVG Version: 6.00 Build 0)  -->
<svg version="1.1" id="Layer_1" xmlns="http://www.w3.org/2000/svg" xmlns:xlink="http://www.w3.org/1999/xlink" x="0px" y="0px"
	 viewBox="0 0 128 128" style="enable-background:new 0 0 128 128;" xml:space="preserve">
<style type="text/css">
	.st0{fill-rule:evenodd;clip-rule:evenodd;fill:#57c702;}
	.st1{fill-rule:evenodd;clip-rule:evenodd;fill:#CDD5DB;}
	.st2{fill:#092041;}
	.st3{fill:#FFFFFF;}
	.st4{fill:#1AA5E2;}
	.st5{fill:#57c702;}
	.st6{fill:none;}
	.st7{fill:#CDD5DB;}
	.st8{fill-rule:evenodd;clip-rule:evenodd;fill:#092041;}
	.st9{fill:#1D3A65;}
	.st10{fill:#9BABB8;}
	.st11{fill:#DADEE0;}
	.st12{fill-rule:evenodd;clip-rule:evenodd;fill:#FFFFFF;}
	.st13{fill-rule:evenodd;clip-rule:evenodd;fill:#1AA5E2;}
	.st14{fill:#0075D0;}
	.st15{fill:#76C9EE;}
	.st16{fill:#001A40;}
	.st17{fill:#86DCF4;}
	.st18{fill:#57c702;}
	.st19{fill:none;stroke:#092041;stroke-width:1.7067;stroke-miterlimit:10;}
	.st20{fill:#F2F2F2;}
	.st21{opacity:0.3;}
	.st22{fill:#4B5E6D;}
	.st23{fill:#00A7E5;}
	.st24{fill:#E6E6E6;}
	.st25{fill:#6A8294;}
	.st26{fill:#3974CC;}
	.st27{fill:#CCCCCC;}
	.st28{clip-path:url(#SVGID_2_);}
</style>
<g>
	<polygon class="st5" points="82.3,40.8 72.9,83.7 26,83.7 13,40.8 	"/>
</g>
<circle class="st5" cx="36.7" cy="100.4" r="7.1"/>
<g>
	<g>
		<polygon class="st3" points="86.3,37.8 77.4,78.4 33.1,78.4 20.7,37.8 		"/>
		<path class="st2" d="M77.4,79.8H33.1c-0.6,0-1.2-0.4-1.4-1L19.3,38.2c-0.1-0.4-0.1-0.9,0.2-1.3s0.7-0.6,1.2-0.6h65.5
			c0.4,0,0.9,0.2,1.1,0.5s0.4,0.8,0.3,1.2l-8.9,40.6C78.7,79.4,78.1,79.8,77.4,79.8z M34.1,76.9h42.1l8.2-37.6H22.7L34.1,76.9z"/>
	</g>
</g>
<circle class="st5" cx="77.1" cy="100.4" r="7.1"/>
<path class="st2" d="M87.8,96.5H28.8c-1.2,0-2.2-1-2.2-2.2s1-2.2,2.2-2.2h57.7c1.9-1.4,3.9-3.4,3.7-6.2c-0.2-2.5-2.1-4.7-3.9-5.6
	l-1.6-0.8l11.5-47.4H110c1.2,0,2.2,1,2.2,2.2s-1,2.2-2.2,2.2H99.6l-9.9,40.8c2.4,1.7,4.6,4.7,4.9,8.3c0.2,2.3-0.4,6.7-6.2,10.5
	L87.8,96.5z"/>
<g>
	<path class="st5" d="M53.7,65.4c0-0.7,0.2-1.3,0.6-1.6c0.4-0.4,0.9-0.6,1.7-0.6c0.7,0,1.3,0.2,1.7,0.6c0.4,0.4,0.6,0.9,0.6,1.6
		c0,0.7-0.2,1.2-0.6,1.6c-0.4,0.4-0.9,0.6-1.6,0.6c-0.7,0-1.3-0.2-1.7-0.6C53.9,66.6,53.7,66.1,53.7,65.4z M57.5,61h-3.1l-0.7-12.6
		h4.4L57.5,61z"/>
</g>
<polygon class="st6" points="44.8,42.2 46,48 40.1,47.1 31.1,45.8 24.9,45 28.1,39.6 28.3,39.3 22.7,39.3 34.1,76.9 76.2,76.9 
	83.4,44.4 73.5,47.9 67.7,50.1 67.7,43.8 67.7,39.3 44.2,39.3 "/>
<polygon class="st3" points="67.7,50.1 73.5,47.9 83.4,44.4 84.5,39.3 67.7,39.3 67.7,43.8 "/>
<path class="st2" d="M83.4,44.4l-7.1,32.5H34.1L22.7,39.3h5.6l0.4-0.8c-0.4-0.7-0.8-1.4-1.2-2.2h-6.8c-0.5,0-0.9,0.2-1.2,0.6
	s-0.4,0.9-0.2,1.3l12.3,40.6c0.2,0.6,0.8,1,1.4,1h44.4c0.7,0,1.3-0.5,1.4-1.2l7.8-35.5l-0.7,0.3L83.4,44.4z"/>
<polygon class="st2" points="67.7,39.3 67.7,36.4 43.6,36.4 44.2,39.3 "/>
<path class="st3" d="M28.3,39.3h15.9l-0.6-2.9h-16c0.4,0.8,0.8,1.5,1.2,2.2L28.3,39.3z"/>
<path class="st3" d="M87.4,36.9c-0.3-0.3-0.7-0.5-1.1-0.5H67.7l0,2.9h16.8l-1.1,5.1l2.5-0.9l0.7-0.3l1.1-5.1
	C87.8,37.7,87.7,37.2,87.4,36.9z"/>
<g>
	<path class="st5" d="M33.6,38.4c-2.8-3.5-6.4-12.6-7.6-14.1l3.4-5.5c1.8,8.6,5.1,15.9,6.4,16.1l2.3-3.7L40.7,43l-9-1.3L33.6,38.4z"
		/>
	<path class="st6" d="M29.5,18.8c1.8,8.6,5.1,15.9,6.4,16.1l2.3-3.7L40.7,43l-9-1.3l2-3.3c-2.8-3.5-6.4-12.6-7.6-14.1L29.5,18.8
		 M31.4,7.8l-5.5,8.8l-3.4,5.5L21,24.5l1.8,2.2c0.3,0.5,1.3,2.4,1.9,3.9c1.2,2.5,2.6,5.5,4,7.9l-0.6,1.1L24.9,45l6.1,0.9l9,1.3
		L46,48l-1.2-5.8l-2.5-11.8l-2.1-10l-4.1,6.5c-0.9-2.3-1.8-5.4-2.5-8.9L31.4,7.8L31.4,7.8z"/>
</g>
<g>
	<path class="st6" d="M80.7,6.5l6.4,6.7c-1.2,2.5-3.6,16.3-6.5,22.1l3.7,4.1L72,43.8l0-17.3l4.4,4.5C78.3,30.4,80.8,19.1,80.7,6.5
		 M76.3-4.5l0,11c0,7-0.7,12.8-1.5,16.6l-7.2-7.3l0,10.8l0,17.3l0,6.3l5.9-2.1l12.3-4.5l6.2-2.2l-4.4-4.9l-1.8-2
		c1.4-3.8,2.6-8.8,3.6-13c0.6-2.5,1.3-5.5,1.7-6.3l1.4-2.8l-2.1-2.2l-6.4-6.7L76.3-4.5L76.3-4.5z"/>
	<path class="st18" d="M80.6,35.2c2.9-5.8,5.2-19.6,6.5-22.1l-6.4-6.7c0,12.6-2.4,23.9-4.3,24.5l-4.4-4.5l0,17.3l12.3-4.5L80.6,35.2
		z"/>
</g>
</svg>
