<svg width="64" height="64" viewBox="0 0 64 64" fill="none" xmlns="http://www.w3.org/2000/svg">
<path d="M46.1377 45.9651C57.0313 35.1122 57.0313 17.5561 46.1377 7.02244L7.04881 45.9651C17.622 56.818 35.2441 56.818 46.1377 45.9651ZM44.8561 15.9601C46.7785 15.9601 48.0601 17.2369 48.0601 19.1521C48.0601 21.0673 46.7785 22.3441 44.8561 22.3441C42.9337 22.3441 41.6521 21.0673 41.6521 19.1521C41.6521 17.2369 42.9337 15.9601 44.8561 15.9601ZM44.8561 28.7282C46.7785 28.7282 48.0601 30.005 48.0601 31.9202C48.0601 33.8354 46.7785 35.1122 44.8561 35.1122C42.9337 35.1122 41.6521 33.8354 41.6521 31.9202C41.6521 30.005 42.9337 28.7282 44.8561 28.7282ZM32.0401 28.7282C33.9625 28.7282 35.2441 30.005 35.2441 31.9202C35.2441 33.8354 33.9625 35.1122 32.0401 35.1122C30.1176 35.1122 28.836 33.8354 28.836 31.9202C28.836 30.005 30.1176 28.7282 32.0401 28.7282ZM32.0401 41.4963C33.9625 41.4963 35.2441 42.7731 35.2441 44.6883C35.2441 46.6035 33.9625 47.8803 32.0401 47.8803C30.1176 47.8803 28.836 46.6035 28.836 44.6883C28.836 42.7731 30.1176 41.4963 32.0401 41.4963ZM19.224 47.8803C17.3016 47.8803 16.02 46.6035 16.02 44.6883C16.02 42.7731 17.3016 41.4963 19.224 41.4963C21.1464 41.4963 22.428 42.7731 22.428 44.6883C22.428 46.6035 21.1464 47.8803 19.224 47.8803ZM53.1865 52.9875C38.4481 67.6708 14.7384 67.6708 0 52.9875L4.48561 48.5187C16.6608 60.6484 36.2053 60.6484 48.3805 48.5187C60.5557 36.389 60.5557 16.9177 48.3805 4.78803L53.1865 0C67.6045 14.6833 67.6045 38.3042 53.1865 52.9875Z" fill="#18A753"/>
</svg>
