<svg width="30" height="30" viewBox="0 0 30 30" fill="none" xmlns="http://www.w3.org/2000/svg">
<path d="M15 0.833496C22.8242 0.833496 29.1666 7.17591 29.1666 15.0002C29.1666 22.8244 22.8242 29.1668 15 29.1668C7.17573 29.1668 0.833313 22.8244 0.833313 15.0002C0.833313 7.17591 7.17573 0.833496 15 0.833496ZM10.4992 19.7361C9.93965 19.0603 9.24406 18.8195 8.40398 19.015L8.19148 19.0731L7.35565 20.5124C7.19801 20.769 7.1458 21.0767 7.20995 21.371C7.27409 21.6652 7.44962 21.9233 7.69976 22.091C7.9499 22.2587 8.25525 22.3232 8.55184 22.2708C8.84842 22.2184 9.11324 22.0533 9.29081 21.8101L9.37865 21.6783L10.4978 19.7361H10.4992ZM16.7141 10.2685C16.0228 10.8408 15.3258 12.5309 16.3033 14.2167L20.61 21.6769C20.7591 21.9304 20.9984 22.1182 21.28 22.2028C21.5616 22.2875 21.8648 22.2627 22.129 22.1335C22.3931 22.0043 22.5988 21.7801 22.7048 21.5059C22.8109 21.2316 22.8095 20.9274 22.701 20.6541L22.6316 20.5124L21.4954 18.5404H23.1812C23.3344 18.5408 23.4861 18.5109 23.6276 18.4524C23.7692 18.3939 23.8978 18.308 24.006 18.1997C24.1142 18.0913 24.2 17.9626 24.2583 17.821C24.3166 17.6794 24.3463 17.5276 24.3457 17.3745C24.3465 17.0904 24.2431 16.8159 24.0551 16.6029C23.8672 16.3899 23.6077 16.2531 23.3257 16.2185L23.1798 16.21H20.1481L17.04 10.8309L16.7141 10.2699V10.2685ZM17.108 5.95616C16.8633 5.81564 16.5761 5.76835 16.2993 5.82303C16.0226 5.87771 15.7749 6.03067 15.6021 6.25366L15.5142 6.384L14.9943 7.28075L14.4857 6.384C14.3366 6.13055 14.0973 5.94274 13.8157 5.85809C13.5341 5.77344 13.2309 5.79819 12.9667 5.92741C12.7026 6.05662 12.4969 6.28077 12.3909 6.55505C12.2848 6.82933 12.2862 7.13352 12.3947 7.40683L12.4641 7.5485L13.6513 9.61258L9.84756 16.2043H6.87681C6.72378 16.204 6.57219 16.2338 6.43074 16.2922C6.28928 16.3506 6.16076 16.4364 6.05255 16.5446C5.94435 16.6528 5.85858 16.7813 5.80019 16.9228C5.74181 17.0642 5.71194 17.2158 5.71231 17.3688C5.71231 17.9652 6.15431 18.454 6.7309 18.5262L6.87681 18.5347H17.4735C17.9551 17.6281 17.3885 16.3403 16.326 16.2142L16.1546 16.2043H12.5378L17.5358 7.5485C17.6902 7.2806 17.7319 6.96234 17.6517 6.66373C17.5714 6.36511 17.3759 6.11059 17.108 5.95616Z" fill="url(#paint0_linear)"/>
<defs>
<linearGradient id="paint0_linear" x1="15" y1="0.833496" x2="15" y2="29.1668" gradientUnits="userSpaceOnUse">
<stop stop-color="#4BC350"/>
<stop offset="1" stop-color="#74CB49"/>
</linearGradient>
</defs>
</svg>
