<svg width="24" height="26" viewBox="0 0 24 26" fill="none" xmlns="http://www.w3.org/2000/svg">
<path d="M23.3066 1.53331C22.7067 0.904149 21.819 0.671447 20.9912 0.917692L1.68844 6.64167C0.815082 6.89038 0.196051 7.6008 0.0292962 8.50206C-0.141057 9.42055 0.45398 10.5878 1.23137 11.0753L7.26692 14.8577C7.88596 15.2467 8.68494 15.1495 9.1972 14.6225L16.1085 7.52939C16.4564 7.15879 17.0323 7.15879 17.3802 7.52939C17.7281 7.88521 17.7281 8.46512 17.3802 8.83449L10.4569 15.9276C9.9434 16.4546 9.84742 17.2721 10.2253 17.9086L13.9131 24.1263C14.345 24.8638 15.0888 25.2837 15.9046 25.2837C16.0005 25.2837 16.1085 25.2837 16.2045 25.2701C17.1402 25.1483 17.884 24.4945 18.16 23.5711L23.8824 3.90958C24.1343 3.07234 23.9064 2.16123 23.3066 1.53331Z" fill="white"/>
</svg>
