<svg width="56" height="56" viewBox="0 0 56 56" fill="none" xmlns="http://www.w3.org/2000/svg">
<path d="M16.7954 44.8C13.7162 44.8 11.2249 47.32 11.2249 50.4C11.2249 53.48 13.7162 56 16.7954 56C19.8745 56 22.3938 53.48 22.3938 50.4C22.3938 47.32 19.8745 44.8 16.7954 44.8ZM44.7877 44.8C41.7085 44.8 39.2172 47.32 39.2172 50.4C39.2172 53.48 41.7085 56 44.7877 56C47.8668 56 50.3861 53.48 50.3861 50.4C50.3861 47.32 47.8668 44.8 44.7877 44.8ZM40.7288 30.8C42.8282 30.8 44.6757 29.652 45.6274 27.916L55.6487 9.744C55.8846 9.31959 56.0056 8.84092 55.9998 8.35535C55.994 7.86979 55.8615 7.39416 55.6155 6.97553C55.3695 6.5569 55.0184 6.20979 54.5971 5.96853C54.1758 5.72727 53.6988 5.60024 53.2134 5.6H11.7848L9.15348 0H0V5.6H5.59846L15.6757 26.852L11.8967 33.684C9.85329 37.436 12.5405 42 16.7954 42H50.3861V36.4H16.7954L19.8745 30.8H40.7288ZM14.444 11.2H48.4547L40.7288 25.2H21.0782L14.444 11.2Z" fill="#18A753"/>
</svg>
