<svg xmlns="http://www.w3.org/2000/svg" viewBox="0 0 28 35.8"><title>purse-guarantee-slate</title><path d="M15.8,37.4a.37.37,0,0,1-.3-.1L8,31.6A16.11,16.11,0,0,1,1.7,18.9V4.7a.47.47,0,0,1,.5-.5H8.1V2.1a.47.47,0,0,1,.5-.5H22.8a.47.47,0,0,1,.5.5V4.2h5.9a.47.47,0,0,1,.5.5V18.9a16,16,0,0,1-6.3,12.7L16,37.3A.35.35,0,0,1,15.8,37.4ZM2.7,5.2V18.9A15.06,15.06,0,0,0,8.6,30.8l7.1,5.4,7.1-5.4a15.06,15.06,0,0,0,5.9-11.9V5.2H22.8a.47.47,0,0,1-.5-.5V2.6H9.2V4.7a.47.47,0,0,1-.5.5Z" transform="translate(-1.7 -1.6)" fill="#3a4954"/><path d="M15.8,34.1a.37.37,0,0,1-.3-.1L9.6,29.5A13.45,13.45,0,0,1,4.3,18.9V7.3a.47.47,0,0,1,.5-.5h5.9V4.7a.47.47,0,0,1,.5-.5h9a.47.47,0,0,1,.5.5V6.8h5.9a.47.47,0,0,1,.5.5V19a13.45,13.45,0,0,1-5.3,10.6L16.1,34A.37.37,0,0,1,15.8,34.1ZM5.3,7.8V19a12.27,12.27,0,0,0,4.9,9.8L15.8,33l5.6-4.2A12.27,12.27,0,0,0,26.3,19V7.8H20.4a.47.47,0,0,1-.5-.5V5.2h-8V7.3a.47.47,0,0,1-.5.5Z" transform="translate(-1.7 -1.6)" fill="#3a4954"/><path d="M10.4,12.2a7.64,7.64,0,1,0,10.8,0A7.6,7.6,0,0,0,10.4,12.2ZM20.2,22a6.4,6.4,0,0,1-8.9,0l1.6-1.6a4,4,0,0,0,5.7-5.7l-1.1,1.1-4.6,4.6a4,4,0,1,1,5.7-5.7l1.6-1.6A6.4,6.4,0,0,1,20.2,22Z" transform="translate(-1.7 -1.6)" fill="#3a4954"/></svg>
