<svg xmlns="http://www.w3.org/2000/svg" viewBox="0 0 2447.45 582.33"><defs><style>.cls-1{isolation:isolate;}.cls-2{fill:#339a46;}.cls-3{fill:#a7cf38;}.cls-4{fill:#a8cf38;}.cls-5{mix-blend-mode:multiply;}.cls-6{fill:#90ca69;}</style></defs><title>12Artboard 14</title><g class="cls-1"><g id="Layer_1" data-name="Layer 1"><path class="cls-2" d="M908,410.36H862.27V320.93H836.41V284.27h25.85v-85.4h166.15v37.3H908.47v48.11h101.72v36.66H908Z"/><path class="cls-2" d="M1112.33,410.36h-39v-71H1049.6V297h24.16V198.87h84.56q35.39,0,56.37,17,18.22,15,20.77,40.26,1.06,20.14-.85,28.4a174.45,174.45,0,0,1-6.36,20.34,56.39,56.39,0,0,1-16.64,18.86,86.53,86.53,0,0,1-21.93,11.87l41.75,74.81h-43l-39.84-72.48h-36.24Zm0-113.38h51.29q15.26-.42,23.95-7.21a23.87,23.87,0,0,0,7.31-9.85q2-5.4,2.23-15.36-.21-11-8.9-18.86-8.26-7-23.31-8.05h-52.56Z"/><path class="cls-2" d="M1448.65,410.36H1284V320.93h-26.7V284.27H1284v-85.4h164.66v37.3H1328.07v48.11h103v36.66h-103v52.34h120.58Z"/><path class="cls-2" d="M1469.84,380.27l30.94-28.61,16.32,12.71a79,79,0,0,0,39.21,10.6q12.71,0,28-5.09,16.1-7.63,17.17-20.77,0-14.83-19.92-22.46l-49.8-10.17q-27.76-6.57-43.66-20.56a58.12,58.12,0,0,1-11.23-15.79,41.74,41.74,0,0,1-3.81-17.91q0-28.82,22.68-46,23.52-17.37,61.67-17.38a160,160,0,0,1,38.89,5.19q20.66,5.2,47.36,24.27l-31.79,24.58a67.14,67.14,0,0,0-19-12.5q-11.55-5.3-31.89-6.78-21.41,0-33.38,6.78t-10.07,19.92q1.06,18,41.54,22.68,30.09,4,43.34,8.37t26.81,15.79a45.42,45.42,0,0,1,14.62,34.12q0,31.79-25.22,51.07-24.79,18.86-66.54,18.86-22.68.84-45.77-8.48-21-9.54-25.75-13.25T1469.84,380.27Z"/><path class="cls-2" d="M1735.17,324.75v86h-46.83V322.84H1664.6V285.75h23.74V199.08h46.83V284.7h70.36V199.08h45.56V410.79h-45.56v-86Z"/><path class="cls-3" d="M2040.12,410.36H1868.25V198.87h46.83V373.28h82.65V340.22h42.38Z"/><path class="cls-3" d="M2067.45,303.77q0-44.08,30.52-74.6a101.91,101.91,0,0,1,34.76-22.78,115.1,115.1,0,0,1,42.17-7.52,111.82,111.82,0,0,1,39.63,7.42,109.11,109.11,0,0,1,34.33,22.89,100,100,0,0,1,14.09,16,93.48,93.48,0,0,1,9.85,17.7,101,101,0,0,1,.64,80.53,104.21,104.21,0,0,1-22.25,34.12A96.87,96.87,0,0,1,2216,401.25a107.89,107.89,0,0,1-41.32,8.26,112.68,112.68,0,0,1-43-8.05,105.64,105.64,0,0,1-34.76-23.95,109.87,109.87,0,0,1-13.14-16.21,98.56,98.56,0,0,1-9.11-17.27A117.57,117.57,0,0,1,2067.45,303.77Zm107.66-64a69.86,69.86,0,0,0-25.32,4.45,64,64,0,0,0-21.3,13.77q-18.86,18.23-18.86,45.56,0,25.86,19.5,45.77,19.5,19.5,45.56,19.5,26.7,0,45.14-18.86,18.22-19.28,18.65-47.68a61.52,61.52,0,0,0-4.56-23.73,62.7,62.7,0,0,0-14.2-20.56,61.93,61.93,0,0,0-20.56-13.88A64.54,64.54,0,0,0,2175.11,239.77Z"/><path class="cls-3" d="M362.38,248.76h387.5a25,25,0,0,0,0-50H362.38a25,25,0,0,0,0,50Z"/><path class="cls-2" d="M441.09,399H694.87a25,25,0,0,0,0-50H441.09a25,25,0,1,0,0,50Z"/><path class="cls-4" d="M404.89,321.73H723.21a25,25,0,0,0,0-50H404.89a25,25,0,0,0,0,50Z"/><g class="cls-5"><path class="cls-6" d="M358.16,248.41l361.72,72.78a25,25,0,0,0,8.44-49.3L366.6,199.11a25,25,0,0,0-8.44,49.3Z"/></g><g class="cls-5"><path class="cls-6" d="M400.8,321.38l291.27,77a25,25,0,0,0,8.44-49.3l-291.27-77a25,25,0,0,0-8.44,49.3Z"/></g><path class="cls-3" d="M165.65,145.46H324.9a25,25,0,0,0,0-50H165.65a25,25,0,1,0,0,50Z"/><path class="cls-3" d="M308.28,136.92l29.88,34.91a25,25,0,0,0,37.65-32.94L345.93,104a25,25,0,1,0-37.65,32.94Z"/><circle class="cls-3" cx="515.92" cy="437.33" r="28.92"/><circle class="cls-3" cx="616.38" cy="437.33" r="28.92"/><path class="cls-3" d="M461.82,455.42c-.39.08-.2.56-.08.83a6.87,6.87,0,0,0,.51.89c.37.57.78,1.12,1.21,1.65.85,1.07,1.76,2.07,2.69,3.06,1.83,2,3.75,3.88,5.71,5.7,3.92,3.64,7.93,7.14,12.1,10.34a185,185,0,0,0,25.86,17.2c17.83,9.84,37,16.09,56.36,16.49s38.55-5.15,56-15.49,33.42-24.82,48.5-40.68c-11.26,19.55-25.91,37-43.81,50a108.4,108.4,0,0,1-29.06,15,93.75,93.75,0,0,1-31.92,4.81,102.82,102.82,0,0,1-31.66-5.94,127.16,127.16,0,0,1-28.93-14.78,154.67,154.67,0,0,1-25.07-21.42,147.2,147.2,0,0,1-10.75-12.86c-1.66-2.28-3.26-4.6-4.75-7-.73-1.23-1.43-2.47-2.07-3.77a21.78,21.78,0,0,1-.88-2,7.78,7.78,0,0,1-.31-1.07,1.94,1.94,0,0,1,0-.58C461.47,455.56,461.65,455.38,461.82,455.42Z"/><path class="cls-3" d="M670.72,455.42a8.69,8.69,0,0,1,3.47,3.41,8.59,8.59,0,0,1,1.28,4.7,8.59,8.59,0,0,1-3.47-3.41A8.69,8.69,0,0,1,670.72,455.42Z"/><path class="cls-3" d="M461.47,455.77a8.58,8.58,0,0,1-1.76,4.51,8.49,8.49,0,0,1-3.8,3,8.49,8.49,0,0,1,1.76-4.51A8.58,8.58,0,0,1,461.47,455.77Z"/></g></g></svg>