<svg xmlns="http://www.w3.org/2000/svg" viewBox="0 0 368.82 352.79"><g id="Layer_2" data-name="Layer 2"><g id="Layer_1-2" data-name="Layer 1"><path d="M0,203.72c1-4.65,1.51-9.53,3.28-13.89a95.43,95.43,0,0,1,8.5-16.16c16.43-25.24,33.07-50.33,49.63-75.48C73.61,79.66,90.49,67.91,112.55,65c11.12-1.44,22.52-.74,33.8-1a42.16,42.16,0,0,1,6.46.16c4.72.64,7.58,3.93,7.4,8.2s-3.21,7.43-8,7.57c-7.32.21-14.65.16-22,.09-10.5-.11-20.82.57-30.59,5.08a56,56,0,0,0-23.76,20.3q-27.1,41-54,82.07c-.83,1.28-1.46,2.69-2.48,4.57,1.72.08,3,.18,4.2.2,12.72.19,25.49-.34,38.13.73,17.91,1.5,32.78,17.46,34.17,35.43.54,7,1.08,13.87,6.09,19.48a23.59,23.59,0,0,0,16.53,8.37c1.32.09,2.64.14,4,.14,41.29,0,82.59,0,123.88,0,10.7,0,19-3.94,23.66-13.75,1.73-3.66,2.27-8,2.64-12.16,2-22.66,18.47-38.08,41.24-38.26,10.45-.09,20.89,0,31.33,0h4.58a34.11,34.11,0,0,0-2-4.48Q334.39,167.37,320.86,147c-10.41-15.7-21-31.29-31.3-47-8.74-13.36-21-19.89-36.88-19.82q-17.28.06-34.57,0c-5.67,0-8.77-2.39-9.37-6.88-.63-4.66,2.16-8.85,7.19-8.87,16.18-.07,32.47-.61,48.52,1s28.44,10.93,37.42,24.32q28.67,42.75,57.11,85.63a59.17,59.17,0,0,1,9.84,33.66q-.06,51.14,0,102.28c0,24.13-17.4,41.57-41.54,41.57q-143,.06-285.94,0c-20.91,0-36.59-13-40.71-33.56A12,12,0,0,0,0,317.53Zm352.66,5a15.09,15.09,0,0,0-1.81-.26c-12.61,0-25.22-.19-37.81.1A26.92,26.92,0,0,0,302.31,211c-9.21,4.39-13.09,12.2-13.75,22.28-1.51,23.43-17.71,39.09-40.91,39.22-42.14.24-84.28.11-126.42.05-14.16,0-25.54-5.76-33.87-17.28-5.41-7.5-7-16.12-7.46-25.15-.62-11-10.2-20.93-21.19-21.33-13.67-.49-27.36-.25-41-.31a6.91,6.91,0,0,0-1.49.36c-.08,1-.2,1.94-.2,2.88q0,49.69,0,99.4a29.81,29.81,0,0,0,1,7.81c3.18,11.46,12.32,17.77,25.6,17.78q141.72,0,283.44,0a33.5,33.5,0,0,0,8.55-.91c11.37-3,18.15-12.12,18.17-24.58.08-33.26,0-66.51,0-99.77C352.83,210.63,352.73,209.81,352.66,208.74Z" style="fill:#414042"/><path d="M176.43,180.82V11.33A30.89,30.89,0,0,1,176.58,7a7.88,7.88,0,0,1,15.67.12,36.44,36.44,0,0,1,.13,4.31v169.1a30.75,30.75,0,0,0,2.44-1.93c5-5,10-10.05,15.05-15,4-3.93,8.78-4.22,12.15-.93s3.15,8.2-.74,12.15Q206,190.35,190.51,205.7c-3.82,3.8-8.53,3.72-12.37-.11q-15.3-15.27-30.5-30.62c-4.68-4.75-4.13-10.83,1-13.62,3.24-1.76,6.81-1.1,10.12,2.13,4.9,4.77,9.69,9.66,14.54,14.49C174.13,178.78,175,179.52,176.43,180.82Z" style="fill:#414042"/></g></g></svg>