<svg xmlns="http://www.w3.org/2000/svg" viewBox="0 0 383.11 353.15"><g id="Layer_2" data-name="Layer 2"><g id="Layer_1-2" data-name="Layer 1"><path d="M373,80.65q-90.9.18-181.79.08c-.75,0-1.51,0-2.25,0-1.77.14-2.53-.08-2.18-2.37a62.5,62.5,0,0,0,.08-18.27C181.18,20,144.14-6.38,104.47,1.34c-32.37,6.29-56.24,36-55.42,68.9.86,34,25.74,62.61,58.71,67.24,2.36.33,3,1,3,3.36q-.14,45.45,0,90.89c0,2.43-.61,3.11-3.08,3.09-15.46-.11-30.92-.06-46.38-.06-9.23,0-18.45,0-27.68,0-4.48,0-7.49,2.88-7.67,7-.2,4.29,2.68,7.47,7.22,7.91,1.11.1,2.24,0,3.36,0h66.59c7.58,0,7.58,0,7.58,7.77v85.65c0,7.49,2.39,9.92,9.78,9.92h97.25a20.82,20.82,0,0,0,3.36-.11A7.45,7.45,0,0,0,221,338.2a27.4,27.4,0,0,0-3.74-.09c-29.18,0-58.35-.05-87.53.08-3.16,0-4.08-.57-4.08-4q.19-96.14.1-192.26a14.59,14.59,0,0,0,0-1.87c-.2-1.72.5-2.27,2.24-2.55,24.54-4,42.2-17.25,53.07-39.54a3.58,3.58,0,0,1,3.93-2.36c5.86.11,11.73.22,17.58,0,3.1-.14,4.14.46,4.11,3.93-.2,20.94-.06,41.89-.14,62.83,0,3.84,1,7,4.71,8.51s6.66,0,9.35-2.76c8-8.2,16.23-16.22,24.23-24.44,1.74-1.79,2.64-1.73,4.34,0,7.92,8.13,16,16.06,24,24.18,2.75,2.81,5.73,4.55,9.62,3s4.69-5,4.68-8.9c-.08-20.95,0-41.9-.1-62.84,0-2.66.43-3.54,3.37-3.52q37,.21,74.06,0c3.17,0,3.49,1.09,3.49,3.76q-.09,117.45.05,234.9c0,3.48-1,3.94-4.12,3.92-24.68-.13-49.37-.07-74.06-.07a27.4,27.4,0,0,0-3.74.1,7.45,7.45,0,0,0-.11,14.75,24.49,24.49,0,0,0,3.74.11c27.68,0,55.36-.08,83,.08,4.58,0,7.93-1.27,10.12-5.31V86C380.92,81.93,377.58,80.64,373,80.65ZM118.17,123.37a54.25,54.25,0,1,1,54.28-54.11A54.32,54.32,0,0,1,118.17,123.37Zm154.2,22.49c-6.64-6.64-12.68-12.71-18.75-18.75-4.9-4.88-8.49-4.88-13.38,0l-18.33,18.25c-.74-1.11-.41-2.24-.41-3.27,0-14.46,0-28.91-.07-43.37,0-2.4.56-3.09,3-3.07,15.08.12,30.16.1,45.24,0,2,0,2.73.43,2.72,2.61C272.32,113.84,272.37,129.41,272.37,145.86Z" style="fill:#414042"/><path d="M323.78,261.68c5.9,0,8.67-2.81,8.71-8.73q.11-15.13,0-30.27c0-6.3-2.6-8.85-8.85-8.86q-18.67,0-37.37,0c-12.58,0-25.16,0-37.74,0-6,0-8.73,2.65-8.78,8.62q-.12,15.13,0,30.27c0,6.13,2.86,9,8.92,9Q286.22,261.74,323.78,261.68Zm-69.13-29.94c-.09-2.17.36-3,2.81-3q28.8.15,57.58,0c1.89,0,2.62.43,2.55,2.45-.15,4.24-.18,8.48,0,12.71.1,2.36-.7,2.92-3,2.89-9.47-.13-18.94-.06-28.41-.06s-19-.08-28.42.06c-2.43,0-3.28-.59-3.16-3.09C254.83,239.72,254.8,235.72,254.65,231.74Z" style="fill:#414042"/><path d="M78.87,282.66c-11.7,0-23.41,0-35.12,0s-23.41,0-35.12,0c-5.29,0-8.52,2.77-8.61,7.23s3.37,7.7,8.65,7.7q35.11.07,70.24,0c5.28,0,8.74-3.23,8.61-7.74S84.15,282.67,78.87,282.66Z" style="fill:#414042"/><path d="M323.84,297.59c5.42,0,8.69-3,8.62-7.67s-3.25-7.24-8.54-7.26c-9,0-17.92,0-26.89,0-8.71,0-17.43,0-26.14,0-5.44,0-8.87,2.88-8.89,7.37s3.51,7.57,8.81,7.58Q297.33,297.66,323.84,297.59Z" style="fill:#414042"/><path d="M80.75,201.67a7.23,7.23,0,0,0,6.76-7.93A7.31,7.31,0,0,0,80,186.91c-3.61-.1-7.22,0-10.83,0s-7.46-.07-11.2,0c-4.36.1-7.48,3-7.73,7a7.33,7.33,0,0,0,7,7.79C65.07,202,72.92,202,80.75,201.67Z" style="fill:#414042"/><path d="M5.4,201.31a46.81,46.81,0,0,0,17,0c3.76-.68,5.69-4,5.34-7.84a7.11,7.11,0,0,0-6.88-6.56c-2.23-.13-4.47,0-6.71,0s-4.73-.11-7.09,0a7.27,7.27,0,0,0-7,6.48A7,7,0,0,0,5.4,201.31Z" style="fill:#414042"/><path d="M253.67,338.13a7.46,7.46,0,1,0,7.45,7.28A7.53,7.53,0,0,0,253.67,338.13Z" style="fill:#414042"/><path d="M132.46,53.29c-3.59,3.46-7.06,7-10.59,10.57-4.39,4.39-4.38,4.38-9,0a12.69,12.69,0,0,0-2.68-2c-5-2.6-10.83,1-10.75,7.06a5.78,5.78,0,0,0,1.79,4.37c3.65,3.75,7.28,7.54,11.13,11.08,3.19,2.94,7.2,2.79,10.39-.33Q133,74,143.11,63.7c3.22-3.29,3.23-7.71.31-10.7S135.93,50,132.46,53.29Z" style="fill:#414042"/></g></g></svg>