<svg xmlns="http://www.w3.org/2000/svg" viewBox="0 0 382.92 383.08"><g id="Layer_2" data-name="Layer 2"><g id="Layer_1-2" data-name="Layer 1"><path d="M.7,301.45a1.07,1.07,0,0,1,.52.4,12.07,12.07,0,0,1,1.4,3.84A39,39,0,0,0,39.81,334c36.29.08,72.58,0,108.86,0a21,21,0,0,0,3.36-.16,6.8,6.8,0,0,0,6-7.32c-.21-3.48-2.52-5.58-6.49-5.87-1.49-.1-3-.05-4.49-.05H44.57a49.72,49.72,0,0,1-6-.19c-14-1.7-23.28-11.69-24-25.76-.07-1.24,0-2.49,0-3.74q0-123.43,0-246.87a34,34,0,0,1,2-12.85c4.29-10.67,12.62-15.62,23.71-16.59,1.49-.13,3-.06,4.49-.06H226.93a41.75,41.75,0,0,1,10,.93c11.61,2.82,19.32,12.42,19.33,24.36q.06,45.65,0,91.27c0,2.49-.12,5,.83,7.39,1.11,2.8,3,4.54,6.18,4.57s5.08-1.69,6.26-4.46a13.75,13.75,0,0,0,.87-5.5c0-30.43.15-60.85-.06-91.27-.1-13.85-5.2-25.52-16.87-33.73a36.73,36.73,0,0,0-21.41-6.89q-96.51-.17-193,0c-16.57,0-31.81,12-36.36,27.92a13.71,13.71,0,0,1-1.49,4.22,1.09,1.09,0,0,1-.53.4A4.12,4.12,0,0,1,0,37.43V297.79A4.12,4.12,0,0,1,.7,301.45Z" style="fill:#414042"/><path d="M1.23,33.37a13.71,13.71,0,0,0,1.49-4.22C7.27,13.23,22.51,1.26,39.08,1.23q96.51-.18,193,0a36.73,36.73,0,0,1,21.41,6.89c11.67,8.21,16.77,19.88,16.87,33.73.21,30.42.07,60.84.06,91.27a13.75,13.75,0,0,1-.87,5.5c-1.18,2.77-3.12,4.49-6.26,4.46s-5.07-1.77-6.18-4.57c-.95-2.39-.83-4.9-.83-7.39q0-45.63,0-91.27c0-11.94-7.72-21.54-19.33-24.36a41.75,41.75,0,0,0-10-.93H44.75c-1.5,0-3-.07-4.49.06-11.09,1-19.42,5.92-23.71,16.59a34,34,0,0,0-2,12.85q0,123.43,0,246.87c0,1.25,0,2.5,0,3.74.7,14.07,10,24.06,24,25.76a49.72,49.72,0,0,0,6,.19h102.5c1.5,0,3-.05,4.49.05,4,.29,6.28,2.39,6.49,5.87a6.8,6.8,0,0,1-6,7.32,21,21,0,0,1-3.36.16c-36.28,0-72.57.06-108.86,0A39,39,0,0,1,2.62,305.69a12.07,12.07,0,0,0-1.4-3.84,1.07,1.07,0,0,0-.52-.4l0,.18A22.22,22.22,0,0,0,1,304.21c4.57,18.65,20.22,30.94,39.73,31q54.63.09,109.24,0a17.4,17.4,0,0,0,3-.12,7.89,7.89,0,0,0,6.52-7.18c.26-3.75-1.79-7.17-5.22-8.14a19.42,19.42,0,0,0-5.18-.43q-53.13,0-106.24,0c-17.16,0-26.95-9.74-26.95-26.82V42.62c0-16.86,9.83-26.69,26.68-26.7,62.1,0,124.2.17,186.3-.11,16-.07,26.85,11.39,26.61,26.55-.5,30.41-.15,60.84-.15,91.26a15.47,15.47,0,0,0,.54,5.55,7.91,7.91,0,0,0,15,0,15.69,15.69,0,0,0,.55-4.43q0-46.75,0-93.51a44.64,44.64,0,0,0-1-9.64c-4.31-19.12-20-31.52-40-31.53Q141,0,51.6,0C47,0,42.37-.07,37.76.11,19.35.83,2.75,15.86.67,33.59l0,.18A1.09,1.09,0,0,0,1.23,33.37Z" style="fill:#414042"/><path d="M292,381.36c19.47-2.7,37-9.88,52.22-22.45,18.19-15,30.28-34,35.32-57.07,7.13-32.67-.07-62.25-21.14-88-17.11-20.87-39.45-33.3-66.51-36.39-29.91-3.41-56.54,4.43-79.46,24.11-19.75,17-31.51,38.43-34.79,64.21-3.75,29.41,3.66,55.95,22.59,78.86,16.16,19.56,37,31.51,62,36,2,.36,4.58-.27,5.66,2.4h6a3.36,3.36,0,0,1,4.49,0h2.24c1.25-1,2.5-1.17,3.74,0h4.49C289.05,381,290.77,381.53,292,381.36Zm-82.14-48.44c-12.07-15.91-18.11-33.84-18.27-49.78.1-56.18,45.49-96.64,97.56-91a87.07,87.07,0,0,1,44,17.82c2,1.5,2.11,2.28.29,4.09q-59.73,59.54-119.28,119.25C212.14,335.35,211.33,334.9,209.82,332.92Zm12.72,13.41a40,40,0,0,0,4.19-3.15Q285.34,284.67,343.82,226c2.56-2.57,3.61-2.26,5.63.4,39.92,52.47,8.7,129.64-56.57,139.56C267,369.93,243.88,363.18,222.54,346.33Z" style="fill:#414042"/><path d="M381.64,262.23c-8.65-56.94-66.47-96.76-122.88-84.61-55.78,12-91,63.77-81.5,119.87,6.78,40.17,38.47,73.65,78.14,82.76,4.16.95,8.51,1.05,12.47,2.83-1.08-2.67-3.67-2-5.66-2.4-25-4.5-45.86-16.45-62-36-18.93-22.91-26.34-49.45-22.59-78.86,3.28-25.78,15-47.25,34.79-64.21,22.92-19.68,49.55-27.52,79.46-24.11,27.06,3.09,49.4,15.52,66.51,36.39,21.07,25.71,28.27,55.29,21.14,88-5,23.12-17.13,42-35.32,57.07C329,371.48,311.43,378.66,292,381.36c-1.19.17-2.91-.33-3.14,1.72,4.56-.88,9.16-1.57,13.67-2.66C356.61,367.37,390,317.43,381.64,262.23Z" style="fill:#414042"/><path d="M273.86,383.08h4.49A5.74,5.74,0,0,0,273.86,383.08Z" style="fill:#414042"/><path d="M273.86,383.08a5.74,5.74,0,0,1,4.49,0A3.36,3.36,0,0,0,273.86,383.08Z" style="fill:#414042"/><path d="M.58,33.78A1,1,0,0,1,0,33.69v3.74C.85,36.33,0,34.94.58,33.78Z" style="fill:#414042"/><path d="M.58,33.78c0-.06.05-.12.09-.19a1,1,0,0,1-.67.1A1,1,0,0,0,.58,33.78Z" style="fill:#414042"/><path d="M.7,33.77H.58C0,34.94.85,36.33,0,37.43A4.12,4.12,0,0,0,.7,33.77Z" style="fill:#414042"/><path d="M.7,33.77l0-.18c0,.07-.06.13-.09.19Z" style="fill:#414042"/><path d="M.59,301.44c-.55-1.16.26-2.55-.59-3.65v3.74A1,1,0,0,1,.59,301.44Z" style="fill:#414042"/><path d="M.67,301.63a.77.77,0,0,1-.08-.19,1,1,0,0,0-.59.09H.34Z" style="fill:#414042"/><path d="M.59,301.44H.7a4.12,4.12,0,0,0-.7-3.66C.85,298.89,0,300.28.59,301.44Z" style="fill:#414042"/><path d="M.59,301.44a.77.77,0,0,0,.08.19l0-.18Z" style="fill:#414042"/><path d="M280.59,383.08h3.74A4.05,4.05,0,0,0,280.59,383.08Z" style="fill:#414042"/><path d="M280.59,383.08a4.05,4.05,0,0,1,3.74,0C283.09,381.91,281.84,382.05,280.59,383.08Z" style="fill:#414042"/><path d="M158.49,127.78c-7.61-.06-15.22,0-22.82,0v.09c-8.61,0-17.22-.22-25.81,0a39.55,39.55,0,0,0-36.64,29.49c-2.22,8.37-1.17,16.86-1.35,25.3-.11,5.28,3.36,8.9,8,8.84s7.72-3.48,7.81-8.65c.08-5-.08-10,.05-15,.33-13.57,10.36-24,23.44-24.18q24.51-.25,49,0a23.53,23.53,0,0,1,23.21,22.74c.2,5.36,0,10.72.11,16.08s3.29,8.95,8,9,8-3.46,8.08-8.86c.1-5.11.18-10.23,0-15.34C198.6,144.13,181.78,128,158.49,127.78Z" style="fill:#414042"/><path d="M135.34,111.66a31.88,31.88,0,1,0-31.5-32.09A31.84,31.84,0,0,0,135.34,111.66Zm.44-47.85a16,16,0,1,1-.39,32,16,16,0,0,1,.39-32Z" style="fill:#414042"/><path d="M150.58,223.55c-15.57,0-31.15,0-46.73,0H56a7.59,7.59,0,0,0-7.39,4.74,7.41,7.41,0,0,0,1.29,8.35c2,2.41,4.77,2.82,7.76,2.82q35.15-.08,70.29,0c7.73,0,15.45.06,23.18,0,5.08,0,8.43-3.36,8.39-8S156.17,223.57,150.58,223.55Z" style="fill:#414042"/><path d="M135.38,271.47c-13.07-.13-26.15,0-39.23,0-13.33,0-26.65-.06-40,0-4.87,0-8.21,3.34-8.26,7.78a7.89,7.89,0,0,0,8.07,8q39.8.11,79.58,0a7.71,7.71,0,0,0,7.05-4.13C145.66,277.79,141.9,271.53,135.38,271.47Z" style="fill:#414042"/></g></g></svg>