<svg xmlns="http://www.w3.org/2000/svg" viewBox="0 0 392.54 301.28"><g id="Layer_2" data-name="Layer 2"><g id="Layer_1-2" data-name="Layer 1"><path d="M389.21,40.19c4.7-4.62,4.26-8.77-.3-13.19-8-7.71-15.79-15.54-23.58-23.41C360.79-1,356.44-1,352.1,3.71c-4.89,5.28-9.73,10.61-14.46,15.76-3.15-2-5.06-3.31-7-4.5-56.37-34.29-129.38-7.16-149,55.69-1.81,5.79-4.36,6.85-9.65,6.84q-79.59-.23-159.2-.09C1.16,77.42,0,78.62,0,90.36V288.25c0,12,.92,13,12.61,13l259.68.06c11.21,0,12.3-1.13,12.3-12.5,0-28.84,0-57.68,0-87a54.35,54.35,0,0,1,5.32-1.29c57.42-7.16,97.17-60.73,86.86-117.36-1.49-8.18-7.28-17.18-5.18-24C373.88,51.7,383,46.32,389.21,40.19ZM95.3,91.3h40.1v23.06H95.3ZM216.47,257.7c-6.38,0-12.21-.06-18,0-4.52.06-8.4,1.27-8.39,6.79s3.56,6.84,8.28,6.77c5.66-.08,11.31,0,17.72,0V287.6H14.46V271.27H164l5.33-.18a6.53,6.53,0,0,0,.78-13L160.07,258l-138.24-.32-7.36-.31v-166H81.64c0,9.1.29,18.27-.09,27.41-.3,7.47,3.18,10.19,10.15,10.15q23.58-.12,47.16.05c7,0,10.41-2.81,10.11-10.22-.36-8.95-.08-17.92-.08-27.43h25.88c2.65,14.62,4.09,29,8,42.63,4.93,17.12,15.45,31.21,28.92,43,2,1.72,4.53,4.25,4.56,6.44C216.59,207.8,216.47,232.24,216.47,257.7Zm53.8,30H230.93V191.5l39.34,11.11Zm50.25-111.11c-38.14,21.33-86.14,11.53-112.22-22.92-26.72-35.28-23.14-84,8.47-115.35,29.07-28.79,78.44-33.14,108.62-9.85L262.15,91.17c-5.5-5.85-12-12.64-18.35-19.59-4.3-4.7-8.44-5.32-13.12-.56q-11.93,12.12-24,24c-4.73,4.64-4.13,8.66.41,13.15,16.85,16.65,33.5,33.51,50.29,50.23,5.64,5.61,8.21,5.39,14.75-1.14q38.53-38.51,77-77.08c3.06-3.07,5.8-6.45,9.61-10.71C374.48,109.74,357.29,156,320.52,176.55Zm-57-31.75-43.4-43.46,17.87-17.26c5.67,5.93,11.41,12.11,17.34,18.09,8.09,8.19,9.66,8.11,18-.27q39.06-39.11,78.09-78.23a88.45,88.45,0,0,0,5.76-7L374,34.21Z" style="fill:#414042"/></g></g></svg>