<svg xmlns="http://www.w3.org/2000/svg" viewBox="0 0 652.53 199.09"><defs><style>.cls-1{fill:#1d1d1d;stroke:#fff;stroke-miterlimit:10;stroke-width:3px;}.cls-2{fill:#fff;}</style></defs><g id="Layer_2" data-name="Layer 2"><g id="Layer_1-2" data-name="Layer 1"><rect class="cls-1" x="1.5" y="1.5" width="649.53" height="196.09" rx="45.96"/><path class="cls-2" d="M218.15,45.13h4.78V79.21h-4.78Zm3.23,29.53h7.72a8.15,8.15,0,0,0,5.84-2A7.19,7.19,0,0,0,237,67.18v-10a7.22,7.22,0,0,0-2.08-5.52,8.2,8.2,0,0,0-5.84-2h-7.72V45.13H229a15.62,15.62,0,0,1,7,1.43,9.89,9.89,0,0,1,4.43,4.17,13.37,13.37,0,0,1,1.53,6.61V67a13.35,13.35,0,0,1-1.53,6.61A9.94,9.94,0,0,1,236,77.78a15.83,15.83,0,0,1-7,1.43h-7.55Z"/><path class="cls-2" d="M253.1,78.31a8.15,8.15,0,0,1-3.44-3.62A12.7,12.7,0,0,1,248.48,69V65a12.48,12.48,0,0,1,1.18-5.66,8.16,8.16,0,0,1,3.44-3.58,12.51,12.51,0,0,1,10.82,0,8.16,8.16,0,0,1,3.44,3.58A12.48,12.48,0,0,1,268.54,65v4a12.55,12.55,0,0,1-1.18,5.69,8.18,8.18,0,0,1-3.44,3.59,12.33,12.33,0,0,1-10.82,0Zm9.29-4.87A6.52,6.52,0,0,0,263.76,69V65a6.4,6.4,0,0,0-1.37-4.38,5.63,5.63,0,0,0-7.76,0A6.4,6.4,0,0,0,253.26,65v4a6.52,6.52,0,0,0,1.37,4.41,5.58,5.58,0,0,0,7.76,0Z"/><path class="cls-2" d="M272.29,54.88h5l4.32,17.36,6.07-17.36H291l6.07,17.36,4.32-17.36h5l-7.5,24.33h-3.61L289.33,62.4,283.4,79.21h-3.61Z"/><path class="cls-2" d="M311.53,54.88h4.78V79.21h-4.78Zm14.76,9.58a5.51,5.51,0,0,0-1.34-4,4.92,4.92,0,0,0-3.75-1.41,5,5,0,0,0-3.62,1.24,4.67,4.67,0,0,0-1.27,3.5l-.5-4.69a8.65,8.65,0,0,1,2.95-3.4,7.12,7.12,0,0,1,4-1.19,7.51,7.51,0,0,1,6.12,2.59q2.18,2.58,2.17,7.32V79.21h-4.78Z"/><path class="cls-2" d="M343.12,72.92a2.14,2.14,0,0,0,.39,1.38,1.31,1.31,0,0,0,1.09.48h2.25v4.54H344a5.31,5.31,0,0,1-4.2-1.68,7,7,0,0,1-1.49-4.76V45.13h4.78Z"/><path class="cls-2" d="M356.15,78.31a8.13,8.13,0,0,1-3.43-3.62A12.7,12.7,0,0,1,351.53,69V65a12.48,12.48,0,0,1,1.19-5.66,8.14,8.14,0,0,1,3.43-3.58,12.53,12.53,0,0,1,10.83,0,8.14,8.14,0,0,1,3.43,3.58A12.48,12.48,0,0,1,371.6,65v4a12.55,12.55,0,0,1-1.19,5.69A8.16,8.16,0,0,1,367,78.31a12.35,12.35,0,0,1-10.83,0Zm9.29-4.87A6.47,6.47,0,0,0,366.81,69V65a6.35,6.35,0,0,0-1.37-4.38,5.62,5.62,0,0,0-7.75,0A6.36,6.36,0,0,0,356.31,65v4a6.47,6.47,0,0,0,1.38,4.41,5.57,5.57,0,0,0,7.75,0Z"/><path class="cls-2" d="M379.45,77.69q-2.24-1.86-2.23-5.66a6.85,6.85,0,0,1,2-5.41c1.36-1.2,3.41-1.81,6.16-1.81h6.92l.33,3.85h-7.22a4.09,4.09,0,0,0-2.8.83,3.24,3.24,0,0,0-.93,2.54A3.17,3.17,0,0,0,383,74.78a6.43,6.43,0,0,0,3.74.89,10.8,10.8,0,0,0,4.09-.59,1.93,1.93,0,0,0,1.35-1.83l.49,3.42a5.49,5.49,0,0,1-1.56,1.62,6.84,6.84,0,0,1-2.14.95,11,11,0,0,1-2.75.32Q381.67,79.56,379.45,77.69Zm12.68-13.91a5.13,5.13,0,0,0-1.28-3.71,4.81,4.81,0,0,0-3.62-1.33,9.23,9.23,0,0,0-2.85.45,8.55,8.55,0,0,0-2.47,1.24L378.42,58a9.1,9.1,0,0,1,3.64-2.59,13.1,13.1,0,0,1,5-.92,11.62,11.62,0,0,1,5.18,1.06,7.4,7.4,0,0,1,3.28,3.1,9.92,9.92,0,0,1,1.12,4.88V79.21h-4.54Z"/><path class="cls-2" d="M407.09,78.47a7.39,7.39,0,0,1-2.87-3.39,13.09,13.09,0,0,1-1-5.34V64.37a13.57,13.57,0,0,1,1-5.37,7.24,7.24,0,0,1,2.8-3.38,8,8,0,0,1,4.42-1.16,7.31,7.31,0,0,1,3.95,1.12,8.35,8.35,0,0,1,2.89,3.16l-.49,5a5.73,5.73,0,0,0-.57-2.65,3.79,3.79,0,0,0-1.62-1.67,5.44,5.44,0,0,0-2.59-.58,4.65,4.65,0,0,0-3.67,1.48,6.07,6.07,0,0,0-1.3,4.15v5.3a5.89,5.89,0,0,0,1.3,4.09A4.7,4.7,0,0,0,413,75.27a5.22,5.22,0,0,0,2.59-.6A3.91,3.91,0,0,0,417.2,73a5.91,5.91,0,0,0,.57-2.7l.33,5.14a7,7,0,0,1-2.38,3,6.68,6.68,0,0,1-4.07,1.22A8.58,8.58,0,0,1,407.09,78.47Zm10.68-33.34h4.78V79.21h-4.78Z"/><path class="cls-2" d="M446.62,78.31a8.07,8.07,0,0,1-3.43-3.62A12.7,12.7,0,0,1,442,69V65a12.48,12.48,0,0,1,1.19-5.66,8.08,8.08,0,0,1,3.43-3.58,12.53,12.53,0,0,1,10.83,0,8.14,8.14,0,0,1,3.43,3.58A12.48,12.48,0,0,1,462.06,65v4a12.55,12.55,0,0,1-1.18,5.69,8.16,8.16,0,0,1-3.43,3.59,12.35,12.35,0,0,1-10.83,0Zm9.29-4.87A6.47,6.47,0,0,0,457.28,69V65a6.35,6.35,0,0,0-1.37-4.38,5.63,5.63,0,0,0-7.76,0A6.4,6.4,0,0,0,446.78,65v4a6.52,6.52,0,0,0,1.37,4.41,5.58,5.58,0,0,0,7.76,0Z"/><path class="cls-2" d="M468.86,54.88h4.78V79.21h-4.78Zm14.77,9.58a5.55,5.55,0,0,0-1.34-4,4.92,4.92,0,0,0-3.75-1.41,5,5,0,0,0-3.62,1.24,4.68,4.68,0,0,0-1.28,3.5l-.49-4.69a8.7,8.7,0,0,1,2.94-3.4,7.12,7.12,0,0,1,4-1.19,7.55,7.55,0,0,1,6.13,2.59q2.17,2.58,2.17,7.32V79.21h-4.78Z"/><path class="cls-2" d="M506.69,54.88h11v4.31h-11Zm3.88,22.81a7.26,7.26,0,0,1-1.37-4.81V47.8H514V72.92a2.34,2.34,0,0,0,.35,1.38,1.19,1.19,0,0,0,1,.48h2.3v4.54h-2.77A5.31,5.31,0,0,1,510.57,77.69Z"/><path class="cls-2" d="M524.22,45.13H529V79.21h-4.78ZM539,64.46a5.55,5.55,0,0,0-1.34-4,4.92,4.92,0,0,0-3.75-1.41,5,5,0,0,0-3.62,1.22A4.54,4.54,0,0,0,529,63.74l-.49-4.69a8.66,8.66,0,0,1,2.94-3.34,7.19,7.19,0,0,1,4-1.18,7.55,7.55,0,0,1,6.13,2.59c1.44,1.72,2.17,4.16,2.17,7.32V79.21H539Z"/><path class="cls-2" d="M555.23,78.29a8.44,8.44,0,0,1-3.65-3.71,13,13,0,0,1-1.25-5.92V65.92a14.29,14.29,0,0,1,1.21-6.17,8.62,8.62,0,0,1,3.5-3.89,10.83,10.83,0,0,1,5.53-1.33,8.78,8.78,0,0,1,5.21,1.52,9.47,9.47,0,0,1,3.29,4.41,18.77,18.77,0,0,1,1.13,6.91V69H553.8V65.12h11.86a8.14,8.14,0,0,0-1.54-4.63,4.31,4.31,0,0,0-3.55-1.65,5.16,5.16,0,0,0-4.2,1.78,7.61,7.61,0,0,0-1.49,5v3.09a6.34,6.34,0,0,0,1.59,4.64A6.05,6.05,0,0,0,561,75a7.62,7.62,0,0,0,2.89-.59,8.19,8.19,0,0,0,2.55-1.64l3.14,3.14a13.08,13.08,0,0,1-4.05,2.69,11.62,11.62,0,0,1-4.53,1A12.07,12.07,0,0,1,555.23,78.29Z"/><path class="cls-2" d="M220.13,99.62H228V156h-7.91Zm4.07,27h18a8.41,8.41,0,0,0,4.5-1.2,8,8,0,0,0,3-3.42,11.54,11.54,0,0,0,1.07-5.08,11.68,11.68,0,0,0-1.07-5.12,8.11,8.11,0,0,0-3-3.43,8.33,8.33,0,0,0-4.5-1.22h-18V99.62H242a17.8,17.8,0,0,1,8.88,2.16,14.93,14.93,0,0,1,6,6.07,20.53,20.53,0,0,1,0,18.13,14.83,14.83,0,0,1-6,6,18,18,0,0,1-8.88,2.13H224.2Z"/><path class="cls-2" d="M278.7,145.62a3.53,3.53,0,0,0,.64,2.27,2.18,2.18,0,0,0,1.8.79h3.73v7.53h-4.66a8.79,8.79,0,0,1-7-2.79c-1.64-1.87-2.46-4.49-2.46-7.88V99.62h7.91Z"/><path class="cls-2" d="M297.13,153.51c-2.46-2-3.69-5.18-3.69-9.36q0-6,3.38-9t10.2-3h11.44l.54,6.36H307.06a6.75,6.75,0,0,0-4.64,1.38,5.38,5.38,0,0,0-1.53,4.21,5.21,5.21,0,0,0,2,4.53q2,1.48,6.18,1.48a18,18,0,0,0,6.77-1,3.2,3.2,0,0,0,2.23-3l.81,5.67a9.13,9.13,0,0,1-2.58,2.67,11.19,11.19,0,0,1-3.54,1.57,18.08,18.08,0,0,1-4.54.53Q300.81,156.6,297.13,153.51Zm21-23a8.53,8.53,0,0,0-2.11-6.15,8,8,0,0,0-6-2.19,15.44,15.44,0,0,0-4.71.73A14.16,14.16,0,0,0,301.2,125l-5.78-4a15.2,15.2,0,0,1,6-4.28,21.82,21.82,0,0,1,8.32-1.53,19.24,19.24,0,0,1,8.57,1.76,12.24,12.24,0,0,1,5.43,5.12,16.45,16.45,0,0,1,1.86,8.09V156h-7.52Z"/><path class="cls-2" d="M334.21,115.76h8.07l12.37,35-4.38,8.57Zm35.64,0-17.14,49.68a11.91,11.91,0,0,1-2.44,4.36,8.61,8.61,0,0,1-3.73,2.31,18.37,18.37,0,0,1-5.43.7h-1.59v-7.6h1.59a6,6,0,0,0,3.51-.9,7,7,0,0,0,2.27-3.06l14.89-45.49Z"/><path class="cls-2" d="M389.6,155.82a29.1,29.1,0,0,1-6.81-2.33,28,28,0,0,1-5.91-3.88l4.92-6.05a22.23,22.23,0,0,0,7.1,4.19,24.71,24.71,0,0,0,8.42,1.4q6.12,0,9.5-2.27a7.28,7.28,0,0,0,3.37-6.42v0a6.79,6.79,0,0,0-1.53-4.67,9.17,9.17,0,0,0-4-2.56,43.8,43.8,0,0,0-6.26-1.53.69.69,0,0,0-.25,0,.66.66,0,0,1-.25,0l-.58-.11a60.22,60.22,0,0,1-9.22-2.2,12.93,12.93,0,0,1-6.06-4.46q-2.54-3.23-2.53-9.21v0a16.41,16.41,0,0,1,2.35-8.94,14.87,14.87,0,0,1,6.85-5.64,29.62,29.62,0,0,1,16.77-1.28,30.08,30.08,0,0,1,5.78,2,33.2,33.2,0,0,1,5.6,3.28l-4.5,6.28a26,26,0,0,0-6.42-3.55,18.32,18.32,0,0,0-6.41-1.18q-5.79,0-9,2.31a7.56,7.56,0,0,0-3.2,6.53v0A6.23,6.23,0,0,0,389,120a10,10,0,0,0,4.11,2.46,62.08,62.08,0,0,0,6.84,1.65l.29.06.29,0,.43.08.43.08a46.8,46.8,0,0,1,8.55,2.48,13.33,13.33,0,0,1,5.74,4.64q2.31,3.2,2.31,8.74v.08a15.51,15.51,0,0,1-2.45,8.82,15.29,15.29,0,0,1-7.07,5.59,29.21,29.21,0,0,1-11.19,1.92A36.8,36.8,0,0,1,389.6,155.82Z"/><path class="cls-2" d="M427.38,115.76h18.15v7.13H427.38Zm6.42,37.75q-2.26-2.69-2.27-8V104.05h7.91v41.57a3.79,3.79,0,0,0,.58,2.27,2,2,0,0,0,1.71.79h3.8v7.53H441C437.7,156.21,435.31,155.31,433.8,153.51Z"/><path class="cls-2" d="M464.85,154.54a13.55,13.55,0,0,1-5.68-6,21.07,21.07,0,0,1-2-9.48v-6.56a20.57,20.57,0,0,1,2-9.36,13.49,13.49,0,0,1,5.68-5.94,20.79,20.79,0,0,1,17.92,0,13.54,13.54,0,0,1,5.68,5.94,20.7,20.7,0,0,1,2,9.36v6.67a20.86,20.86,0,0,1-2,9.41,13.62,13.62,0,0,1-5.68,5.95,20.52,20.52,0,0,1-17.92,0Zm15.38-8.07q2.26-2.59,2.27-7.29v-6.67c0-3.13-.76-5.54-2.27-7.25a9.33,9.33,0,0,0-12.84,0c-1.51,1.71-2.27,4.12-2.27,7.25v6.67q0,4.69,2.27,7.29a9.23,9.23,0,0,0,12.84,0Z"/><path class="cls-2" d="M503.64,115.76h7.91V156h-7.91Zm19.51,7.6a9.57,9.57,0,0,0-3.69-.66,7.84,7.84,0,0,0-5.83,2.08,7.74,7.74,0,0,0-2.08,5.75l-.81-7.75a14.77,14.77,0,0,1,4.81-5.61,11.34,11.34,0,0,1,6.51-2,14.7,14.7,0,0,1,5,.79,11,11,0,0,1,3.9,2.35l-5.16,7A6.58,6.58,0,0,0,523.15,123.36Z"/><path class="cls-2" d="M545.69,154.5a14,14,0,0,1-6-6.15,21.16,21.16,0,0,1-2.08-9.79V134a23.68,23.68,0,0,1,2-10.19,14.22,14.22,0,0,1,5.8-6.44,17.82,17.82,0,0,1,9.15-2.21,14.55,14.55,0,0,1,8.61,2.52,15.69,15.69,0,0,1,5.45,7.29,31.25,31.25,0,0,1,1.88,11.44v2.64H543.32v-6.36H563a13.51,13.51,0,0,0-2.55-7.66,7.11,7.11,0,0,0-5.87-2.74,8.58,8.58,0,0,0-7,3c-1.64,2-2.46,4.74-2.46,8.34v5.12c0,3.33.87,5.89,2.63,7.68s4.26,2.67,7.49,2.67a12.44,12.44,0,0,0,4.77-1,13.73,13.73,0,0,0,4.22-2.71l5.2,5.19a21.67,21.67,0,0,1-6.71,4.44,19.07,19.07,0,0,1-7.48,1.58A20.07,20.07,0,0,1,545.69,154.5Z"/><path class="cls-2" d="M83.61,99.32c0-12.5,0-25,0-37.51a12.78,12.78,0,0,1,3.5-9.2c.82-.88,1.33-.91,2.21,0q23.06,23.15,46.2,46.19c1,1,.79,1.46-.09,2.33q-22.83,22.75-45.57,45.6c-1.1,1.11-1.67.79-2.55-.09a12.61,12.61,0,0,1-3.69-9.34Q83.63,118.3,83.61,99.32Z"/><path class="cls-2" d="M92.64,49.33c3.15-.78,6-.71,8.59.8q26.63,15.36,53.22,30.77c.25.15.47.33,1.23.85-1,.84-2,1.53-2.82,2.35-3.84,3.79-7.66,7.58-11.42,11.44-.9.93-1.38,1-2.34,0q-22.92-22.8-45.91-45.52A8.58,8.58,0,0,1,92.64,49.33Z"/><path class="cls-2" d="M93.41,150.1c.76-.81,1.22-1.33,1.72-1.82q21.81-21.6,43.6-43.25c1.32-1.32,1.93-1.16,3.11.07,3.93,4.09,8,8.08,12,12.05.86.84,1.06,1.23-.18,1.94-17.17,9.81-34.3,19.69-51.48,29.49A13.66,13.66,0,0,1,93.41,150.1Z"/><path class="cls-2" d="M174.38,100.27a11,11,0,0,1-5.47,9.63c-2.84,1.8-5.84,3.34-8.72,5.08a1.39,1.39,0,0,1-2-.32q-7.06-6.94-14.21-13.81c-.74-.7-.84-1.1-.07-1.86q7.2-7.11,14.32-14.32a1.32,1.32,0,0,1,2-.28c2.72,1.73,5.54,3.31,8.26,5A12.25,12.25,0,0,1,174.38,100.27Z"/></g></g></svg>