<svg xmlns="http://www.w3.org/2000/svg" viewBox="0 0 305.54 353.09"><g id="Layer_2" data-name="Layer 2"><g id="Layer_1-2" data-name="Layer 1"><path d="M292.68,120.18c-11.17-3.67-21,2.09-25.57,14.9q-3.44,9.66-6.92,19.3l-1.29-.23v-6.56q0-69,0-138c0-8.07-1.51-9.54-9.56-9.54H9.22C1.48,0,0,1.43,0,9.22Q0,176.56,0,343.9c0,7.77,1.46,9.18,9.23,9.18H249.39c8,0,9.48-1.47,9.5-9.59,0-19.75-.11-39.5.1-59.25A39.61,39.61,0,0,1,261.05,272c14.15-41.3,28.5-82.54,42.77-123.81C308.33,135.11,303.79,123.83,292.68,120.18Zm-46.05,220.7H12.13c-.13-2.48-.34-4.7-.34-6.92q0-157.26-.14-314.52c0-6,1.45-7.82,7.61-7.81q110.3.31,220.6,0c5.93,0,7.26,1.78,7.24,7.45-.19,51.89-.61,103.79.25,155.67.27,16.84-5,31.61-11.34,46.79a34.74,34.74,0,0,1-.53-4.28c-.06-14.29,0-28.57-.11-42.86,0-8.16-1.5-9.66-9.54-9.66q-95.8,0-191.61,0c-9.82,0-10.87,1.09-10.88,10.86q0,48.54,0,97.07c0,8.2,1.63,9.76,10.1,9.76q87,0,174,0h7.51c.06,1.17.33,1.91.09,2.38-6.9,13.2-.6,25.86,1.77,38.58,1.08,5.81,5.7,7.14,10.46,3.43,6.26-4.89,12.27-10.1,19.39-16Zm-23.4-79.28c-1.72,8.41-2.54,9-11.2,9H35.77V176.89H223.24c.09,2,.28,4,.28,6q0,36.87,0,73.73A25.42,25.42,0,0,1,223.23,261.6Zm16.06,36.9-14.53-5c16-46.2,31.81-92,47.94-138.7l14.64,4.8C271.33,205.89,255.48,251.72,239.29,298.5ZM283.88,146c-2.13-.74-4.22-1.61-7.21-2.76,1.32-3.35,1.7-6.79,3.62-8.51,2.13-1.91,6.15-3.66,8.45-2.88s4.86,4.72,5,7.4C294.16,146.69,291.1,148.47,283.88,146Z" style="fill:#414042"/><path d="M110,82.33c19.5,0,39,0,58.52,0s39,0,58.53,0c6.89,0,8.61-1.79,8.74-8.56.11-5.66.06-11.33,0-17-.07-8.3-1.68-9.95-10-10-18.46,0-36.92,0-55.37,0-20.35,0-40.7,0-61,0-7.18,0-8.89,1.76-9,8.9-.07,5.66,0,11.33,0,17C100.47,80.82,101.89,82.3,110,82.33Zm2.4-23H223.54v10.6H112.38Z" style="fill:#414042"/><path d="M109.82,129.76c19.3,0,38.6,0,57.9,0s38.6,0,57.9,0c8.67,0,10.12-1.52,10.17-10.37,0-4.83,0-9.65,0-14.48,0-9.41-1.2-10.63-10.4-10.66q-23.29-.06-46.58-.06-34.29,0-68.6,0c-8.32,0-9.82,1.59-9.87,10q0,8.17.06,16.36C100.51,128.09,102.16,129.74,109.82,129.76Zm2.56-23.18H223.47v10.57H112.38Z" style="fill:#414042"/><path d="M79.83,46.91c-8,.09-15.94,0-23.91,0v0q-12.27,0-24.53,0c-5.45,0-8.11,2.72-8.09,8.14,0,6.51.07,13,0,19.51,0,5.14,2.4,7.87,7.59,7.88q24.85,0,49.7,0c5.16,0,7.72-2.53,7.68-7.76,0-6.5,0-13,.06-19.5C88.48,49.27,85.5,46.85,79.83,46.91ZM76,70.09h-40V59.42H76Z" style="fill:#414042"/><path d="M80.39,129.66c5.07,0,7.91-2.39,7.94-7.6,0-6.92,0-13.84,0-20.76,0-5-2.84-7.16-7.6-7.17q-24.84,0-49.69,0c-5.18,0-7.67,2.67-7.65,7.82q0,9.75-.05,19.5c-.05,5.45,2.58,8.17,8,8.16H55.23v0ZM35.74,117.11V106.44H75.8v10.67Z" style="fill:#414042"/><path d="M153.53,294.1c-39.48-.05-79,0-118.44-.16-4.94,0-6.4,1.82-5.82,6.28.23,1.79.36,3.6.56,5.61h128C160.19,296.08,159.46,294.11,153.53,294.1Z" style="fill:#414042"/><path d="M93.68,152.48V141.2l-64.17-.11a6.08,6.08,0,0,0-3.63,1.42,6.32,6.32,0,0,0-2.08,4.56l0,5.41Z" style="fill:#414042"/><path d="M29.88,35.3l53.79.11,4.21,0c0-1.63.07-3.26.1-4.89L88,24,22.88,24c-.07.3-1.29,5.58,2.28,9A8.72,8.72,0,0,0,29.88,35.3Z" style="fill:#414042"/></g></g></svg>