<svg xmlns="http://www.w3.org/2000/svg" viewBox="0 0 278.28 278.76"><g id="Layer_2" data-name="Layer 2"><g id="Layer_1-2" data-name="Layer 1"><path d="M139,278.76C68.1,278.71,8.19,224.84.8,154.5-7.32,77.24,47.35,9.35,124.53.84,200.63-7.55,269.88,48,277.64,124c1,9.83.67,19.86.11,29.75-.5,8.7-7.06,13.94-14.88,13.14s-12.9-7.36-12-16A111.56,111.56,0,0,0,243,96.82C223.9,49.52,174,21,123.6,28.39c-51.26,7.55-91.23,48.47-95.67,99.44C24,172.61,40.69,208.88,78.53,233.32s77.41,24.48,117,3.05c1.46-.79,2.83-1.73,4.3-2.49,7-3.65,14.83-1.58,18.59,4.91s1.82,14.4-4.94,18.6A139,139,0,0,1,139,278.76Z" style="fill:#414042"/><path d="M119.94,139.23c-9-9-17.81-17.47-26.28-26.31a21.37,21.37,0,0,1-5.18-8.75C86.92,98.44,90,92.7,95.05,89.89a13.46,13.46,0,0,1,16.09,2.21c8.23,7.93,16.22,16.11,24.33,24.18,1.15,1.14,2.37,2.22,4.05,3.77l22.12-22.31c2-2,3.9-4.08,6-5.93a13.67,13.67,0,0,1,18.89.33,13.45,13.45,0,0,1,.2,18.87c-7.51,7.94-15.37,15.56-23.14,23.25a68.69,68.69,0,0,1-5.47,4.38c2.05,2.17,3.33,3.6,4.69,5,7.72,7.76,15.53,15.41,23.15,23.26,5.76,5.94,5.94,14.23.71,19.63s-13.94,5.5-20-.43c-9.07-8.92-17.94-18.05-27.48-27.68L116.93,181c-1.86,1.89-3.68,3.84-5.65,5.6-5.84,5.24-14.11,5.19-19.28,0s-5.32-13.55.16-19.24c8-8.36,16.35-16.45,24.54-24.67C117.63,141.76,118.5,140.77,119.94,139.23Z" style="fill:#414042"/></g></g></svg>