<svg xmlns="http://www.w3.org/2000/svg" viewBox="0 0 278.28 278.76"><g id="Layer_2" data-name="Layer 2"><g id="Layer_1-2" data-name="Layer 1"><path d="M127.78,152.55c15-17.13,29.52-33.74,44.12-50.24A48,48,0,0,1,179.81,95c8.06-5.73,16.3-5.55,23.13,1.66,7.1,7.5,6.12,15.82-1,22.78q-32.25,31.65-65,62.77c-7.48,7.08-16.38,7.48-24.53,1-12-9.51-23.65-19.39-35.19-29.41-7.51-6.53-9.2-14.72-2.75-22.68,6.67-8.25,15.4-9,23.9-2.69C106.63,134.61,114.36,141.49,127.78,152.55Z" style="fill:#414042"/><path d="M139,278.76C68.1,278.71,8.19,224.84.8,154.5-7.32,77.24,47.35,9.35,124.53.84,200.63-7.55,269.88,48,277.64,124c1,9.83.67,19.86.11,29.75-.5,8.7-7.06,13.94-14.88,13.14s-12.9-7.36-12-16A111.56,111.56,0,0,0,243,96.82C223.9,49.52,174,21,123.6,28.39c-51.26,7.55-91.23,48.47-95.67,99.44C24,172.61,40.69,208.88,78.53,233.32s77.41,24.48,117,3.05c1.46-.79,2.83-1.73,4.3-2.49,7-3.65,14.83-1.58,18.59,4.91s1.82,14.4-4.94,18.6A139,139,0,0,1,139,278.76Z" style="fill:#414042"/></g></g></svg>