<svg width="60" height="60" viewBox="0 0 60 60" fill="none" xmlns="http://www.w3.org/2000/svg">
<path d="M58.6164 12.484C56.7744 7.822 51.4754 0 36.6694 0C28.6014 0 24.7344 4.498 20.6404 9.259C18.3724 11.898 16.0274 14.626 12.8184 16.729C1.71937 24 -2.19963 32.9 1.16937 43.184C4.51637 53.399 12.3134 60 21.0354 60C24.1634 60 27.3504 59.175 30.5104 57.545C39.2824 53.024 44.3454 46.218 48.8134 40.213C50.9564 37.334 52.9784 34.614 55.1334 32.593C59.8874 28.138 61.3854 19.492 58.6164 12.484ZM3.01637 42.578C-0.0876307 33.102 3.46637 25.18 13.8834 18.355C17.3214 16.101 19.7584 13.267 22.1144 10.527C26.0744 5.922 29.4934 1.944 36.6694 1.944C50.3254 1.944 55.1484 8.995 56.8094 13.198C56.9124 13.455 56.9974 13.72 57.0854 13.984C57.3164 17.94 56.9414 22.957 55.0294 25.797C53.9484 27.404 52.0794 29.754 51.0394 31.099C53.6604 25.173 52.3834 21.694 52.3834 21.694C49.4004 35.59 40.7294 36.452 35.0884 47.109C35.0884 47.109 40.1684 44.131 43.4364 40.648C43.4364 40.648 38.8974 51.801 28.0004 53.206C20.1794 54.213 18.0474 56.347 16.2134 57.261C10.3754 55.34 5.44837 50.004 3.01637 42.578Z" fill="#18A753"/>
</svg>
